<ttFont>
    <TTGlyph name=".notdef" xMin="0" yMin="0" xMax="1024" yMax="1434">
      <contour>
        <pt x="1024" y="1434" on="1"/>
        <pt x="1024" y="0" on="1"/>
        <pt x="0" y="0" on="1"/>
        <pt x="0" y="1434" on="1"/>
      </contour>
      <contour>
        <pt x="164" y="1331" on="1"/>
        <pt x="512" y="809" on="1"/>
        <pt x="860" y="1331" on="1"/>
      </contour>
      <contour>
        <pt x="922" y="1239" on="1"/>
        <pt x="573" y="717" on="1"/>
        <pt x="922" y="195" on="1"/>
      </contour>
      <contour>
        <pt x="512" y="625" on="1"/>
        <pt x="164" y="102" on="1"/>
        <pt x="860" y="102" on="1"/>
      </contour>
      <contour>
        <pt x="451" y="717" on="1"/>
        <pt x="102" y="1239" on="1"/>
        <pt x="102" y="195" on="1"/>
      </contour>
    </TTGlyph>
    <TTGlyph name="A" xMin="20" yMin="0" xMax="1575" yMax="1409">
      <contour>
        <pt x="1575" y="0" on="1"/>
        <pt x="1096" y="0" on="1"/>
        <pt x="1036" y="199" on="1"/>
        <pt x="543" y="199" on="1"/>
        <pt x="483" y="0" on="1"/>
        <pt x="20" y="0" on="1"/>
        <pt x="535" y="1409" on="1"/>
        <pt x="1061" y="1409" on="1"/>
      </contour>
      <contour>
        <pt x="786" y="1016" on="1"/>
        <pt x="637" y="514" on="1"/>
        <pt x="942" y="514" on="1"/>
        <pt x="795" y="1016" on="1"/>
      </contour>
    </TTGlyph>
    <TTGlyph name="AE" xMin="-31" yMin="0" xMax="1970" yMax="1409">
      <contour>
        <pt x="981" y="199" on="1"/>
        <pt x="502" y="199" on="1"/>
        <pt x="432" y="0" on="1"/>
        <pt x="-31" y="0" on="1"/>
        <pt x="565" y="1409" on="1"/>
        <pt x="1956" y="1409" on="1"/>
        <pt x="1956" y="1071" on="1"/>
        <pt x="1208" y="1071" on="1"/>
        <pt x="1253" y="877" on="1"/>
        <pt x="1841" y="877" on="1"/>
        <pt x="1841" y="553" on="1"/>
        <pt x="1329" y="553" on="1"/>
        <pt x="1378" y="338" on="1"/>
        <pt x="1970" y="338" on="1"/>
        <pt x="1970" y="0" on="1"/>
        <pt x="1026" y="0" on="1"/>
      </contour>
      <contour>
        <pt x="614" y="514" on="1"/>
        <pt x="911" y="514" on="1"/>
        <pt x="801" y="1016" on="1"/>
        <pt x="793" y="1016" on="1"/>
      </contour>
    </TTGlyph>
    <TTGlyph name="AEacute" xMin="-31" yMin="0" xMax="1970" yMax="1812">
      <contour>
        <pt x="1225" y="1540" on="1"/>
        <pt x="965" y="1540" on="1"/>
        <pt x="1153" y="1812" on="1"/>
        <pt x="1548" y="1812" on="1"/>
        <pt x="1552" y="1804" on="1"/>
      </contour>
      <contour>
        <pt x="981" y="199" on="1"/>
        <pt x="502" y="199" on="1"/>
        <pt x="432" y="0" on="1"/>
        <pt x="-31" y="0" on="1"/>
        <pt x="565" y="1409" on="1"/>
        <pt x="1956" y="1409" on="1"/>
        <pt x="1956" y="1071" on="1"/>
        <pt x="1208" y="1071" on="1"/>
        <pt x="1253" y="877" on="1"/>
        <pt x="1841" y="877" on="1"/>
        <pt x="1841" y="553" on="1"/>
        <pt x="1329" y="553" on="1"/>
        <pt x="1378" y="338" on="1"/>
        <pt x="1970" y="338" on="1"/>
        <pt x="1970" y="0" on="1"/>
        <pt x="1026" y="0" on="1"/>
      </contour>
      <contour>
        <pt x="614" y="514" on="1"/>
        <pt x="911" y="514" on="1"/>
        <pt x="801" y="1016" on="1"/>
        <pt x="793" y="1016" on="1"/>
      </contour>
    </TTGlyph>
    <TTGlyph name="Aacute" xMin="20" yMin="0" xMax="1575" yMax="1813">
      <contour>
        <pt x="1096" y="0" on="1"/>
        <pt x="1036" y="199" on="1"/>
        <pt x="543" y="199" on="1"/>
        <pt x="483" y="0" on="1"/>
        <pt x="20" y="0" on="1"/>
        <pt x="535" y="1409" on="1"/>
        <pt x="1061" y="1409" on="1"/>
        <pt x="1575" y="0" on="1"/>
      </contour>
      <contour>
        <pt x="637" y="514" on="1"/>
        <pt x="942" y="514" on="1"/>
        <pt x="795" y="1016" on="1"/>
        <pt x="786" y="1016" on="1"/>
      </contour>
      <contour>
        <pt x="861" y="1540" on="1"/>
        <pt x="600" y="1540" on="1"/>
        <pt x="789" y="1813" on="1"/>
        <pt x="1184" y="1813" on="1"/>
        <pt x="1188" y="1805" on="1"/>
      </contour>
    </TTGlyph>
    <TTGlyph name="Abreve" xMin="20" yMin="0" xMax="1575" yMax="1813">
      <contour>
        <pt x="1575" y="0" on="1"/>
        <pt x="1096" y="0" on="1"/>
        <pt x="1036" y="199" on="1"/>
        <pt x="543" y="199" on="1"/>
        <pt x="483" y="0" on="1"/>
        <pt x="20" y="0" on="1"/>
        <pt x="535" y="1409" on="1"/>
        <pt x="1061" y="1409" on="1"/>
      </contour>
      <contour>
        <pt x="786" y="1016" on="1"/>
        <pt x="637" y="514" on="1"/>
        <pt x="942" y="514" on="1"/>
        <pt x="795" y="1016" on="1"/>
      </contour>
      <contour>
        <pt x="1175" y="1813" on="1"/>
        <pt x="1175" y="1762" on="0"/>
        <pt x="1122" y="1657" on="0"/>
        <pt x="1024" y="1572" on="0"/>
        <pt x="883" y="1518" on="0"/>
        <pt x="796" y="1518" on="1"/>
        <pt x="707" y="1518" on="0"/>
        <pt x="568" y="1572" on="0"/>
        <pt x="470" y="1657" on="0"/>
        <pt x="419" y="1762" on="0"/>
        <pt x="419" y="1813" on="1"/>
        <pt x="616" y="1813" on="1"/>
        <pt x="619" y="1797" on="0"/>
        <pt x="648" y="1761" on="0"/>
        <pt x="695" y="1730" on="0"/>
        <pt x="758" y="1710" on="0"/>
        <pt x="796" y="1710" on="1"/>
        <pt x="834" y="1710" on="0"/>
        <pt x="899" y="1730" on="0"/>
        <pt x="947" y="1761" on="0"/>
        <pt x="977" y="1797" on="0"/>
        <pt x="980" y="1813" on="1"/>
      </contour>
    </TTGlyph>
    <TTGlyph name="Acircumflex" xMin="20" yMin="0" xMax="1575" yMax="1813">
      <contour>
        <pt x="1575" y="0" on="1"/>
        <pt x="1096" y="0" on="1"/>
        <pt x="1036" y="199" on="1"/>
        <pt x="543" y="199" on="1"/>
        <pt x="483" y="0" on="1"/>
        <pt x="20" y="0" on="1"/>
        <pt x="535" y="1409" on="1"/>
        <pt x="1061" y="1409" on="1"/>
      </contour>
      <contour>
        <pt x="786" y="1016" on="1"/>
        <pt x="637" y="514" on="1"/>
        <pt x="942" y="514" on="1"/>
        <pt x="795" y="1016" on="1"/>
      </contour>
      <contour>
        <pt x="1213" y="1516" on="1"/>
        <pt x="947" y="1516" on="1"/>
        <pt x="795" y="1674" on="1"/>
        <pt x="643" y="1516" on="1"/>
        <pt x="381" y="1516" on="1"/>
        <pt x="666" y="1813" on="1"/>
        <pt x="928" y="1813" on="1"/>
      </contour>
    </TTGlyph>
    <TTGlyph name="Adieresis" xMin="20" yMin="0" xMax="1575" yMax="1813">
      <contour>
        <pt x="1575" y="0" on="1"/>
        <pt x="1096" y="0" on="1"/>
        <pt x="1036" y="199" on="1"/>
        <pt x="543" y="199" on="1"/>
        <pt x="483" y="0" on="1"/>
        <pt x="20" y="0" on="1"/>
        <pt x="535" y="1409" on="1"/>
        <pt x="1061" y="1409" on="1"/>
      </contour>
      <contour>
        <pt x="786" y="1016" on="1"/>
        <pt x="637" y="514" on="1"/>
        <pt x="942" y="514" on="1"/>
        <pt x="795" y="1016" on="1"/>
      </contour>
      <contour>
        <pt x="1178" y="1528" on="1"/>
        <pt x="867" y="1528" on="1"/>
        <pt x="867" y="1813" on="1"/>
        <pt x="1178" y="1813" on="1"/>
      </contour>
      <contour>
        <pt x="727" y="1528" on="1"/>
        <pt x="416" y="1528" on="1"/>
        <pt x="416" y="1813" on="1"/>
        <pt x="727" y="1813" on="1"/>
      </contour>
    </TTGlyph>
    <TTGlyph name="Agrave" xMin="20" yMin="0" xMax="1575" yMax="1813">
      <contour>
        <pt x="1096" y="0" on="1"/>
        <pt x="1036" y="199" on="1"/>
        <pt x="543" y="199" on="1"/>
        <pt x="483" y="0" on="1"/>
        <pt x="20" y="0" on="1"/>
        <pt x="535" y="1409" on="1"/>
        <pt x="1061" y="1409" on="1"/>
        <pt x="1575" y="0" on="1"/>
      </contour>
      <contour>
        <pt x="637" y="514" on="1"/>
        <pt x="942" y="514" on="1"/>
        <pt x="795" y="1016" on="1"/>
        <pt x="786" y="1016" on="1"/>
      </contour>
      <contour>
        <pt x="734" y="1540" on="1"/>
        <pt x="406" y="1805" on="1"/>
        <pt x="410" y="1813" on="1"/>
        <pt x="805" y="1813" on="1"/>
        <pt x="994" y="1540" on="1"/>
      </contour>
    </TTGlyph>
    <TTGlyph name="Amacron" xMin="20" yMin="0" xMax="1575" yMax="1772">
      <contour>
        <pt x="1575" y="0" on="1"/>
        <pt x="1096" y="0" on="1"/>
        <pt x="1036" y="199" on="1"/>
        <pt x="543" y="199" on="1"/>
        <pt x="483" y="0" on="1"/>
        <pt x="20" y="0" on="1"/>
        <pt x="535" y="1409" on="1"/>
        <pt x="1061" y="1409" on="1"/>
      </contour>
      <contour>
        <pt x="786" y="1016" on="1"/>
        <pt x="637" y="514" on="1"/>
        <pt x="942" y="514" on="1"/>
        <pt x="795" y="1016" on="1"/>
      </contour>
      <contour>
        <pt x="1121" y="1567" on="1"/>
        <pt x="473" y="1567" on="1"/>
        <pt x="473" y="1772" on="1"/>
        <pt x="1121" y="1772" on="1"/>
      </contour>
    </TTGlyph>
    <TTGlyph name="Aogonek" xMin="20" yMin="-432" xMax="1575" yMax="1409">
      <contour>
        <pt x="1575" y="0" on="1"/>
        <pt x="1308" y="0" on="1"/>
        <pt x="1297" y="-25" on="0"/>
        <pt x="1275" y="-102" on="0"/>
        <pt x="1275" y="-141" on="1"/>
        <pt x="1275" y="-161" on="0"/>
        <pt x="1288" y="-199" on="0"/>
        <pt x="1316" y="-228" on="0"/>
        <pt x="1363" y="-246" on="0"/>
        <pt x="1398" y="-246" on="1"/>
        <pt x="1484" y="-246" on="1"/>
        <pt x="1484" y="-401" on="1"/>
        <pt x="1391" y="-432" on="0"/>
        <pt x="1288" y="-432" on="1"/>
        <pt x="1238" y="-432" on="0"/>
        <pt x="1145" y="-406" on="0"/>
        <pt x="1073" y="-351" on="0"/>
        <pt x="1029" y="-262" on="0"/>
        <pt x="1029" y="-199" on="1"/>
        <pt x="1029" y="-134" on="0"/>
        <pt x="1080" y="-39" on="0"/>
        <pt x="1111" y="0" on="1"/>
        <pt x="1096" y="0" on="1"/>
        <pt x="1036" y="199" on="1"/>
        <pt x="543" y="199" on="1"/>
        <pt x="483" y="0" on="1"/>
        <pt x="20" y="0" on="1"/>
        <pt x="535" y="1409" on="1"/>
        <pt x="1061" y="1409" on="1"/>
      </contour>
      <contour>
        <pt x="786" y="1016" on="1"/>
        <pt x="637" y="514" on="1"/>
        <pt x="942" y="514" on="1"/>
        <pt x="795" y="1016" on="1"/>
      </contour>
    </TTGlyph>
    <TTGlyph name="Aring" xMin="20" yMin="0" xMax="1575" yMax="1954">
      <contour>
        <pt x="1575" y="0" on="1"/>
        <pt x="1096" y="0" on="1"/>
        <pt x="1036" y="199" on="1"/>
        <pt x="543" y="199" on="1"/>
        <pt x="483" y="0" on="1"/>
        <pt x="20" y="0" on="1"/>
        <pt x="535" y="1409" on="1"/>
        <pt x="1061" y="1409" on="1"/>
      </contour>
      <contour>
        <pt x="786" y="1016" on="1"/>
        <pt x="637" y="514" on="1"/>
        <pt x="942" y="514" on="1"/>
        <pt x="795" y="1016" on="1"/>
      </contour>
      <contour>
        <pt x="797" y="1954" on="1"/>
        <pt x="842" y="1954" on="0"/>
        <pt x="923" y="1919" on="0"/>
        <pt x="984" y="1859" on="0"/>
        <pt x="1020" y="1778" on="0"/>
        <pt x="1020" y="1731" on="1"/>
        <pt x="1020" y="1686" on="0"/>
        <pt x="985" y="1605" on="0"/>
        <pt x="924" y="1545" on="0"/>
        <pt x="843" y="1510" on="0"/>
        <pt x="797" y="1510" on="1"/>
        <pt x="752" y="1510" on="0"/>
        <pt x="671" y="1544" on="0"/>
        <pt x="610" y="1604" on="0"/>
        <pt x="574" y="1685" on="0"/>
        <pt x="574" y="1731" on="1"/>
        <pt x="574" y="1777" on="0"/>
        <pt x="609" y="1858" on="0"/>
        <pt x="670" y="1919" on="0"/>
        <pt x="751" y="1954" on="0"/>
      </contour>
      <contour>
        <pt x="797" y="1813" on="1"/>
        <pt x="760" y="1813" on="0"/>
        <pt x="715" y="1766" on="0"/>
        <pt x="715" y="1729" on="1"/>
        <pt x="715" y="1694" on="0"/>
        <pt x="762" y="1649" on="0"/>
        <pt x="797" y="1649" on="1"/>
        <pt x="834" y="1649" on="0"/>
        <pt x="879" y="1696" on="0"/>
        <pt x="879" y="1733" on="1"/>
        <pt x="879" y="1768" on="0"/>
        <pt x="832" y="1813" on="0"/>
      </contour>
    </TTGlyph>
    <TTGlyph name="Aringacute" xMin="20" yMin="0" xMax="1575" yMax="1959">
      <contour>
        <pt x="1575" y="0" on="1"/>
        <pt x="1096" y="0" on="1"/>
        <pt x="1036" y="199" on="1"/>
        <pt x="543" y="199" on="1"/>
        <pt x="483" y="0" on="1"/>
        <pt x="20" y="0" on="1"/>
        <pt x="535" y="1409" on="1"/>
        <pt x="590" y="1409" on="1"/>
        <pt x="575" y="1445" on="0"/>
        <pt x="575" y="1491" on="1"/>
        <pt x="575" y="1541" on="0"/>
        <pt x="610" y="1617" on="0"/>
        <pt x="671" y="1668" on="0"/>
        <pt x="752" y="1694" on="0"/>
        <pt x="798" y="1694" on="1"/>
        <pt x="843" y="1694" on="0"/>
        <pt x="924" y="1669" on="0"/>
        <pt x="985" y="1618" on="0"/>
        <pt x="1021" y="1542" on="0"/>
        <pt x="1021" y="1491" on="1"/>
        <pt x="1021" y="1447" on="0"/>
        <pt x="1005" y="1409" on="1"/>
        <pt x="1061" y="1409" on="1"/>
      </contour>
      <contour>
        <pt x="786" y="1016" on="1"/>
        <pt x="637" y="514" on="1"/>
        <pt x="942" y="514" on="1"/>
        <pt x="795" y="1016" on="1"/>
      </contour>
      <contour>
        <pt x="1191" y="1951" on="1"/>
        <pt x="918" y="1745" on="1"/>
        <pt x="657" y="1745" on="1"/>
        <pt x="815" y="1959" on="1"/>
        <pt x="1187" y="1959" on="1"/>
      </contour>
      <contour>
        <pt x="798" y="1573" on="1"/>
        <pt x="761" y="1573" on="0"/>
        <pt x="716" y="1526" on="0"/>
        <pt x="716" y="1489" on="1"/>
        <pt x="716" y="1454" on="0"/>
        <pt x="763" y="1409" on="0"/>
        <pt x="798" y="1409" on="1"/>
        <pt x="835" y="1409" on="0"/>
        <pt x="880" y="1456" on="0"/>
        <pt x="880" y="1493" on="1"/>
        <pt x="880" y="1528" on="0"/>
        <pt x="833" y="1573" on="0"/>
      </contour>
    </TTGlyph>
    <TTGlyph name="Atilde" xMin="20" yMin="0" xMax="1575" yMax="1813">
      <contour>
        <pt x="1575" y="0" on="1"/>
        <pt x="1096" y="0" on="1"/>
        <pt x="1036" y="199" on="1"/>
        <pt x="543" y="199" on="1"/>
        <pt x="483" y="0" on="1"/>
        <pt x="20" y="0" on="1"/>
        <pt x="535" y="1409" on="1"/>
        <pt x="1061" y="1409" on="1"/>
      </contour>
      <contour>
        <pt x="786" y="1016" on="1"/>
        <pt x="637" y="514" on="1"/>
        <pt x="942" y="514" on="1"/>
        <pt x="795" y="1016" on="1"/>
      </contour>
      <contour>
        <pt x="1252" y="1813" on="1"/>
        <pt x="1252" y="1757" on="0"/>
        <pt x="1211" y="1652" on="0"/>
        <pt x="1135" y="1570" on="0"/>
        <pt x="1029" y="1520" on="0"/>
        <pt x="965" y="1520" on="1"/>
        <pt x="916" y="1520" on="0"/>
        <pt x="824" y="1546" on="0"/>
        <pt x="736" y="1576" on="0"/>
        <pt x="652" y="1602" on="0"/>
        <pt x="611" y="1602" on="1"/>
        <pt x="572" y="1602" on="0"/>
        <pt x="519" y="1555" on="0"/>
        <pt x="508" y="1520" on="1"/>
        <pt x="342" y="1520" on="1"/>
        <pt x="342" y="1575" on="0"/>
        <pt x="383" y="1680" on="0"/>
        <pt x="459" y="1763" on="0"/>
        <pt x="564" y="1813" on="0"/>
        <pt x="629" y="1813" on="1"/>
        <pt x="678" y="1813" on="0"/>
        <pt x="770" y="1787" on="0"/>
        <pt x="858" y="1757" on="0"/>
        <pt x="942" y="1731" on="0"/>
        <pt x="983" y="1731" on="1"/>
        <pt x="1022" y="1731" on="0"/>
        <pt x="1075" y="1778" on="0"/>
        <pt x="1086" y="1813" on="1"/>
      </contour>
    </TTGlyph>
    <TTGlyph name="B" xMin="152" yMin="0" xMax="1511" yMax="1409">
      <contour>
        <pt x="1090" y="1409" on="1"/>
        <pt x="1170" y="1409" on="0"/>
        <pt x="1311" y="1358" on="0"/>
        <pt x="1417" y="1266" on="0"/>
        <pt x="1479" y="1139" on="0"/>
        <pt x="1479" y="1063" on="1"/>
        <pt x="1479" y="986" on="0"/>
        <pt x="1441" y="875" on="0"/>
        <pt x="1376" y="797" on="0"/>
        <pt x="1291" y="749" on="0"/>
        <pt x="1243" y="735" on="1"/>
        <pt x="1243" y="727" on="1"/>
        <pt x="1298" y="715" on="0"/>
        <pt x="1395" y="665" on="0"/>
        <pt x="1468" y="581" on="0"/>
        <pt x="1511" y="459" on="0"/>
        <pt x="1511" y="375" on="1"/>
        <pt x="1511" y="291" on="0"/>
        <pt x="1447" y="152" on="0"/>
        <pt x="1336" y="54" on="0"/>
        <pt x="1187" y="0" on="0"/>
        <pt x="1102" y="0" on="1"/>
        <pt x="152" y="0" on="1"/>
        <pt x="152" y="1409" on="1"/>
      </contour>
      <contour>
        <pt x="604" y="569" on="1"/>
        <pt x="604" y="328" on="1"/>
        <pt x="948" y="328" on="1"/>
        <pt x="970" y="328" on="0"/>
        <pt x="1009" y="345" on="0"/>
        <pt x="1037" y="374" on="0"/>
        <pt x="1053" y="414" on="0"/>
        <pt x="1053" y="438" on="1"/>
        <pt x="1053" y="459" on="1"/>
        <pt x="1053" y="482" on="0"/>
        <pt x="1037" y="522" on="0"/>
        <pt x="1009" y="552" on="0"/>
        <pt x="970" y="569" on="0"/>
        <pt x="948" y="569" on="1"/>
      </contour>
      <contour>
        <pt x="604" y="1100" on="1"/>
        <pt x="604" y="860" on="1"/>
        <pt x="915" y="860" on="1"/>
        <pt x="937" y="860" on="0"/>
        <pt x="976" y="877" on="0"/>
        <pt x="1004" y="907" on="0"/>
        <pt x="1020" y="948" on="0"/>
        <pt x="1020" y="971" on="1"/>
        <pt x="1020" y="991" on="1"/>
        <pt x="1020" y="1013" on="0"/>
        <pt x="1003" y="1053" on="0"/>
        <pt x="975" y="1083" on="0"/>
        <pt x="937" y="1100" on="0"/>
        <pt x="915" y="1100" on="1"/>
      </contour>
    </TTGlyph>
    <TTGlyph name="C" xMin="92" yMin="-25" xMax="1501" yMax="1434">
      <contour>
        <pt x="823" y="1434" on="1"/>
        <pt x="977" y="1434" on="0"/>
        <pt x="1227" y="1356" on="0"/>
        <pt x="1404" y="1203" on="0"/>
        <pt x="1501" y="977" on="0"/>
        <pt x="1501" y="829" on="1"/>
        <pt x="1069" y="829" on="1"/>
        <pt x="1069" y="890" on="0"/>
        <pt x="1037" y="988" on="0"/>
        <pt x="974" y="1058" on="0"/>
        <pt x="882" y="1096" on="0"/>
        <pt x="821" y="1096" on="1"/>
        <pt x="749" y="1096" on="0"/>
        <pt x="648" y="1048" on="0"/>
        <pt x="584" y="962" on="0"/>
        <pt x="555" y="842" on="0"/>
        <pt x="555" y="770" on="1"/>
        <pt x="555" y="639" on="1"/>
        <pt x="555" y="567" on="0"/>
        <pt x="585" y="447" on="0"/>
        <pt x="649" y="361" on="0"/>
        <pt x="748" y="313" on="0"/>
        <pt x="817" y="313" on="1"/>
        <pt x="951" y="313" on="0"/>
        <pt x="1083" y="450" on="0"/>
        <pt x="1083" y="571" on="1"/>
        <pt x="1501" y="571" on="1"/>
        <pt x="1501" y="426" on="0"/>
        <pt x="1410" y="203" on="0"/>
        <pt x="1236" y="52" on="0"/>
        <pt x="984" y="-25" on="0"/>
        <pt x="823" y="-25" on="1"/>
        <pt x="462" y="-25" on="0"/>
        <pt x="92" y="343" on="0"/>
        <pt x="92" y="705" on="1"/>
        <pt x="92" y="1066" on="0"/>
        <pt x="462" y="1434" on="0"/>
      </contour>
    </TTGlyph>
    <TTGlyph name="Cacute" xMin="92" yMin="-25" xMax="1501" yMax="1813">
      <contour>
        <pt x="823" y="1434" on="1"/>
        <pt x="977" y="1434" on="0"/>
        <pt x="1227" y="1356" on="0"/>
        <pt x="1404" y="1203" on="0"/>
        <pt x="1501" y="977" on="0"/>
        <pt x="1501" y="829" on="1"/>
        <pt x="1069" y="829" on="1"/>
        <pt x="1069" y="890" on="0"/>
        <pt x="1037" y="988" on="0"/>
        <pt x="974" y="1058" on="0"/>
        <pt x="882" y="1096" on="0"/>
        <pt x="821" y="1096" on="1"/>
        <pt x="749" y="1096" on="0"/>
        <pt x="648" y="1048" on="0"/>
        <pt x="584" y="962" on="0"/>
        <pt x="555" y="842" on="0"/>
        <pt x="555" y="770" on="1"/>
        <pt x="555" y="639" on="1"/>
        <pt x="555" y="567" on="0"/>
        <pt x="585" y="447" on="0"/>
        <pt x="649" y="361" on="0"/>
        <pt x="748" y="313" on="0"/>
        <pt x="817" y="313" on="1"/>
        <pt x="951" y="313" on="0"/>
        <pt x="1083" y="450" on="0"/>
        <pt x="1083" y="571" on="1"/>
        <pt x="1501" y="571" on="1"/>
        <pt x="1501" y="426" on="0"/>
        <pt x="1410" y="203" on="0"/>
        <pt x="1236" y="52" on="0"/>
        <pt x="984" y="-25" on="0"/>
        <pt x="823" y="-25" on="1"/>
        <pt x="462" y="-25" on="0"/>
        <pt x="92" y="343" on="0"/>
        <pt x="92" y="705" on="1"/>
        <pt x="92" y="1066" on="0"/>
        <pt x="462" y="1434" on="0"/>
      </contour>
      <contour>
        <pt x="882" y="1540" on="1"/>
        <pt x="621" y="1540" on="1"/>
        <pt x="810" y="1813" on="1"/>
        <pt x="1205" y="1813" on="1"/>
        <pt x="1209" y="1805" on="1"/>
      </contour>
    </TTGlyph>
    <TTGlyph name="Ccaron" xMin="92" yMin="-25" xMax="1501" yMax="1813">
      <contour>
        <pt x="823" y="1434" on="1"/>
        <pt x="977" y="1434" on="0"/>
        <pt x="1227" y="1356" on="0"/>
        <pt x="1404" y="1203" on="0"/>
        <pt x="1501" y="977" on="0"/>
        <pt x="1501" y="829" on="1"/>
        <pt x="1069" y="829" on="1"/>
        <pt x="1069" y="890" on="0"/>
        <pt x="1037" y="988" on="0"/>
        <pt x="974" y="1058" on="0"/>
        <pt x="882" y="1096" on="0"/>
        <pt x="821" y="1096" on="1"/>
        <pt x="749" y="1096" on="0"/>
        <pt x="648" y="1048" on="0"/>
        <pt x="584" y="962" on="0"/>
        <pt x="555" y="842" on="0"/>
        <pt x="555" y="770" on="1"/>
        <pt x="555" y="639" on="1"/>
        <pt x="555" y="567" on="0"/>
        <pt x="585" y="447" on="0"/>
        <pt x="649" y="361" on="0"/>
        <pt x="748" y="313" on="0"/>
        <pt x="817" y="313" on="1"/>
        <pt x="951" y="313" on="0"/>
        <pt x="1083" y="450" on="0"/>
        <pt x="1083" y="571" on="1"/>
        <pt x="1501" y="571" on="1"/>
        <pt x="1501" y="426" on="0"/>
        <pt x="1410" y="203" on="0"/>
        <pt x="1236" y="52" on="0"/>
        <pt x="984" y="-25" on="0"/>
        <pt x="823" y="-25" on="1"/>
        <pt x="462" y="-25" on="0"/>
        <pt x="92" y="343" on="0"/>
        <pt x="92" y="705" on="1"/>
        <pt x="92" y="1066" on="0"/>
        <pt x="462" y="1434" on="0"/>
      </contour>
      <contour>
        <pt x="928" y="1516" on="1"/>
        <pt x="666" y="1516" on="1"/>
        <pt x="381" y="1813" on="1"/>
        <pt x="643" y="1813" on="1"/>
        <pt x="795" y="1655" on="1"/>
        <pt x="947" y="1813" on="1"/>
        <pt x="1213" y="1813" on="1"/>
      </contour>
    </TTGlyph>
    <TTGlyph name="Ccedilla" xMin="92" yMin="-432" xMax="1501" yMax="1434">
      <contour>
        <pt x="823" y="1434" on="1"/>
        <pt x="977" y="1434" on="0"/>
        <pt x="1227" y="1356" on="0"/>
        <pt x="1404" y="1203" on="0"/>
        <pt x="1501" y="977" on="0"/>
        <pt x="1501" y="829" on="1"/>
        <pt x="1069" y="829" on="1"/>
        <pt x="1069" y="890" on="0"/>
        <pt x="1037" y="988" on="0"/>
        <pt x="974" y="1058" on="0"/>
        <pt x="882" y="1096" on="0"/>
        <pt x="821" y="1096" on="1"/>
        <pt x="749" y="1096" on="0"/>
        <pt x="648" y="1048" on="0"/>
        <pt x="584" y="962" on="0"/>
        <pt x="555" y="842" on="0"/>
        <pt x="555" y="770" on="1"/>
        <pt x="555" y="639" on="1"/>
        <pt x="555" y="567" on="0"/>
        <pt x="585" y="447" on="0"/>
        <pt x="649" y="361" on="0"/>
        <pt x="748" y="313" on="0"/>
        <pt x="817" y="313" on="1"/>
        <pt x="951" y="313" on="0"/>
        <pt x="1083" y="450" on="0"/>
        <pt x="1083" y="571" on="1"/>
        <pt x="1501" y="571" on="1"/>
        <pt x="1501" y="430" on="0"/>
        <pt x="1415" y="213" on="0"/>
        <pt x="1252" y="62" on="0"/>
        <pt x="1014" y="-20" on="0"/>
        <pt x="862" y="-24" on="1"/>
        <pt x="857" y="-59" on="1"/>
        <pt x="894" y="-63" on="0"/>
        <pt x="963" y="-86" on="0"/>
        <pt x="1016" y="-128" on="0"/>
        <pt x="1047" y="-194" on="0"/>
        <pt x="1047" y="-242" on="1"/>
        <pt x="1047" y="-300" on="0"/>
        <pt x="998" y="-374" on="0"/>
        <pt x="925" y="-416" on="0"/>
        <pt x="841" y="-432" on="0"/>
        <pt x="805" y="-432" on="1"/>
        <pt x="770" y="-432" on="0"/>
        <pt x="697" y="-428" on="0"/>
        <pt x="629" y="-419" on="0"/>
        <pt x="569" y="-407" on="0"/>
        <pt x="547" y="-399" on="1"/>
        <pt x="547" y="-289" on="1"/>
        <pt x="586" y="-293" on="0"/>
        <pt x="627" y="-297" on="1"/>
        <pt x="662" y="-300" on="0"/>
        <pt x="746" y="-305" on="0"/>
        <pt x="787" y="-305" on="1"/>
        <pt x="824" y="-305" on="0"/>
        <pt x="869" y="-277" on="0"/>
        <pt x="869" y="-242" on="1"/>
        <pt x="869" y="-211" on="0"/>
        <pt x="836" y="-176" on="0"/>
        <pt x="791" y="-176" on="1"/>
        <pt x="713" y="-176" on="1"/>
        <pt x="736" y="-22" on="1"/>
        <pt x="418" y="-1" on="0"/>
        <pt x="92" y="366" on="0"/>
        <pt x="92" y="705" on="1"/>
        <pt x="92" y="1066" on="0"/>
        <pt x="462" y="1434" on="0"/>
      </contour>
    </TTGlyph>
    <TTGlyph name="Ccircumflex" xMin="92" yMin="-25" xMax="1501" yMax="1813">
      <contour>
        <pt x="823" y="1434" on="1"/>
        <pt x="977" y="1434" on="0"/>
        <pt x="1227" y="1356" on="0"/>
        <pt x="1404" y="1203" on="0"/>
        <pt x="1501" y="977" on="0"/>
        <pt x="1501" y="829" on="1"/>
        <pt x="1069" y="829" on="1"/>
        <pt x="1069" y="890" on="0"/>
        <pt x="1037" y="988" on="0"/>
        <pt x="974" y="1058" on="0"/>
        <pt x="882" y="1096" on="0"/>
        <pt x="821" y="1096" on="1"/>
        <pt x="749" y="1096" on="0"/>
        <pt x="648" y="1048" on="0"/>
        <pt x="584" y="962" on="0"/>
        <pt x="555" y="842" on="0"/>
        <pt x="555" y="770" on="1"/>
        <pt x="555" y="639" on="1"/>
        <pt x="555" y="567" on="0"/>
        <pt x="585" y="447" on="0"/>
        <pt x="649" y="361" on="0"/>
        <pt x="748" y="313" on="0"/>
        <pt x="817" y="313" on="1"/>
        <pt x="951" y="313" on="0"/>
        <pt x="1083" y="450" on="0"/>
        <pt x="1083" y="571" on="1"/>
        <pt x="1501" y="571" on="1"/>
        <pt x="1501" y="426" on="0"/>
        <pt x="1410" y="203" on="0"/>
        <pt x="1236" y="52" on="0"/>
        <pt x="984" y="-25" on="0"/>
        <pt x="823" y="-25" on="1"/>
        <pt x="462" y="-25" on="0"/>
        <pt x="92" y="343" on="0"/>
        <pt x="92" y="705" on="1"/>
        <pt x="92" y="1066" on="0"/>
        <pt x="462" y="1434" on="0"/>
      </contour>
      <contour>
        <pt x="1213" y="1516" on="1"/>
        <pt x="947" y="1516" on="1"/>
        <pt x="795" y="1674" on="1"/>
        <pt x="643" y="1516" on="1"/>
        <pt x="381" y="1516" on="1"/>
        <pt x="666" y="1813" on="1"/>
        <pt x="928" y="1813" on="1"/>
      </contour>
    </TTGlyph>
    <TTGlyph name="Cdotaccent" xMin="92" yMin="-25" xMax="1501" yMax="1813">
      <contour>
        <pt x="823" y="1434" on="1"/>
        <pt x="977" y="1434" on="0"/>
        <pt x="1227" y="1356" on="0"/>
        <pt x="1404" y="1203" on="0"/>
        <pt x="1501" y="977" on="0"/>
        <pt x="1501" y="829" on="1"/>
        <pt x="1069" y="829" on="1"/>
        <pt x="1069" y="890" on="0"/>
        <pt x="1037" y="988" on="0"/>
        <pt x="974" y="1058" on="0"/>
        <pt x="882" y="1096" on="0"/>
        <pt x="821" y="1096" on="1"/>
        <pt x="749" y="1096" on="0"/>
        <pt x="648" y="1048" on="0"/>
        <pt x="584" y="962" on="0"/>
        <pt x="555" y="842" on="0"/>
        <pt x="555" y="770" on="1"/>
        <pt x="555" y="639" on="1"/>
        <pt x="555" y="567" on="0"/>
        <pt x="585" y="447" on="0"/>
        <pt x="649" y="361" on="0"/>
        <pt x="748" y="313" on="0"/>
        <pt x="817" y="313" on="1"/>
        <pt x="951" y="313" on="0"/>
        <pt x="1083" y="450" on="0"/>
        <pt x="1083" y="571" on="1"/>
        <pt x="1501" y="571" on="1"/>
        <pt x="1501" y="426" on="0"/>
        <pt x="1410" y="203" on="0"/>
        <pt x="1236" y="52" on="0"/>
        <pt x="984" y="-25" on="0"/>
        <pt x="823" y="-25" on="1"/>
        <pt x="462" y="-25" on="0"/>
        <pt x="92" y="343" on="0"/>
        <pt x="92" y="705" on="1"/>
        <pt x="92" y="1066" on="0"/>
        <pt x="462" y="1434" on="0"/>
      </contour>
      <contour>
        <pt x="953" y="1528" on="1"/>
        <pt x="641" y="1528" on="1"/>
        <pt x="641" y="1813" on="1"/>
        <pt x="953" y="1813" on="1"/>
      </contour>
    </TTGlyph>
    <TTGlyph name="D" xMin="152" yMin="0" xMax="1501" yMax="1409">
      <contour>
        <pt x="762" y="1409" on="1"/>
        <pt x="942" y="1409" on="0"/>
        <pt x="1218" y="1324" on="0"/>
        <pt x="1405" y="1150" on="0"/>
        <pt x="1501" y="885" on="0"/>
        <pt x="1501" y="705" on="1"/>
        <pt x="1501" y="524" on="0"/>
        <pt x="1405" y="259" on="0"/>
        <pt x="1218" y="85" on="0"/>
        <pt x="942" y="0" on="0"/>
        <pt x="762" y="0" on="1"/>
        <pt x="152" y="0" on="1"/>
        <pt x="152" y="1409" on="1"/>
      </contour>
      <contour>
        <pt x="604" y="1071" on="1"/>
        <pt x="604" y="338" on="1"/>
        <pt x="754" y="338" on="1"/>
        <pt x="828" y="338" on="0"/>
        <pt x="936" y="379" on="0"/>
        <pt x="1005" y="458" on="0"/>
        <pt x="1038" y="571" on="0"/>
        <pt x="1038" y="643" on="1"/>
        <pt x="1038" y="766" on="1"/>
        <pt x="1038" y="838" on="0"/>
        <pt x="1005" y="951" on="0"/>
        <pt x="936" y="1030" on="0"/>
        <pt x="828" y="1071" on="0"/>
        <pt x="754" y="1071" on="1"/>
      </contour>
    </TTGlyph>
    <TTGlyph name="Dcaron" xMin="152" yMin="0" xMax="1501" yMax="1813">
      <contour>
        <pt x="762" y="1409" on="1"/>
        <pt x="942" y="1409" on="0"/>
        <pt x="1218" y="1324" on="0"/>
        <pt x="1405" y="1150" on="0"/>
        <pt x="1501" y="885" on="0"/>
        <pt x="1501" y="705" on="1"/>
        <pt x="1501" y="524" on="0"/>
        <pt x="1405" y="259" on="0"/>
        <pt x="1218" y="85" on="0"/>
        <pt x="942" y="0" on="0"/>
        <pt x="762" y="0" on="1"/>
        <pt x="152" y="0" on="1"/>
        <pt x="152" y="1409" on="1"/>
      </contour>
      <contour>
        <pt x="604" y="1071" on="1"/>
        <pt x="604" y="338" on="1"/>
        <pt x="754" y="338" on="1"/>
        <pt x="828" y="338" on="0"/>
        <pt x="936" y="379" on="0"/>
        <pt x="1005" y="458" on="0"/>
        <pt x="1038" y="571" on="0"/>
        <pt x="1038" y="643" on="1"/>
        <pt x="1038" y="766" on="1"/>
        <pt x="1038" y="838" on="0"/>
        <pt x="1005" y="951" on="0"/>
        <pt x="936" y="1030" on="0"/>
        <pt x="828" y="1071" on="0"/>
        <pt x="754" y="1071" on="1"/>
      </contour>
      <contour>
        <pt x="853" y="1516" on="1"/>
        <pt x="591" y="1516" on="1"/>
        <pt x="306" y="1813" on="1"/>
        <pt x="568" y="1813" on="1"/>
        <pt x="720" y="1655" on="1"/>
        <pt x="872" y="1813" on="1"/>
        <pt x="1138" y="1813" on="1"/>
      </contour>
    </TTGlyph>
    <TTGlyph name="Dcroat" xMin="2" yMin="0" xMax="1501" yMax="1409">
      <contour>
        <pt x="2" y="823" on="1"/>
        <pt x="152" y="823" on="1"/>
        <pt x="152" y="1409" on="1"/>
        <pt x="762" y="1409" on="1"/>
        <pt x="942" y="1409" on="0"/>
        <pt x="1218" y="1324" on="0"/>
        <pt x="1405" y="1150" on="0"/>
        <pt x="1501" y="885" on="0"/>
        <pt x="1501" y="705" on="1"/>
        <pt x="1501" y="524" on="0"/>
        <pt x="1405" y="259" on="0"/>
        <pt x="1218" y="85" on="0"/>
        <pt x="942" y="0" on="0"/>
        <pt x="762" y="0" on="1"/>
        <pt x="152" y="0" on="1"/>
        <pt x="152" y="623" on="1"/>
        <pt x="2" y="623" on="1"/>
      </contour>
      <contour>
        <pt x="604" y="623" on="1"/>
        <pt x="604" y="338" on="1"/>
        <pt x="754" y="338" on="1"/>
        <pt x="828" y="338" on="0"/>
        <pt x="936" y="379" on="0"/>
        <pt x="1005" y="458" on="0"/>
        <pt x="1038" y="571" on="0"/>
        <pt x="1038" y="643" on="1"/>
        <pt x="1038" y="766" on="1"/>
        <pt x="1038" y="838" on="0"/>
        <pt x="1005" y="951" on="0"/>
        <pt x="936" y="1030" on="0"/>
        <pt x="828" y="1071" on="0"/>
        <pt x="754" y="1071" on="1"/>
        <pt x="604" y="1071" on="1"/>
        <pt x="604" y="823" on="1"/>
        <pt x="803" y="823" on="1"/>
        <pt x="803" y="623" on="1"/>
      </contour>
    </TTGlyph>
    <TTGlyph name="Delta" xMin="54" yMin="0" xMax="1548" yMax="1409">
      <contour>
        <pt x="54" y="143" on="1"/>
        <pt x="532" y="1409" on="1"/>
        <pt x="1068" y="1409" on="1"/>
        <pt x="1548" y="143" on="1"/>
        <pt x="1548" y="0" on="1"/>
        <pt x="54" y="0" on="1"/>
      </contour>
      <contour>
        <pt x="548" y="314" on="1"/>
        <pt x="1025" y="314" on="1"/>
        <pt x="796" y="1074" on="1"/>
        <pt x="788" y="1074" on="1"/>
      </contour>
    </TTGlyph>
    <TTGlyph name="E" xMin="152" yMin="0" xMax="1384" yMax="1409">
      <contour>
        <pt x="152" y="0" on="1"/>
        <pt x="152" y="1409" on="1"/>
        <pt x="1370" y="1409" on="1"/>
        <pt x="1370" y="1071" on="1"/>
        <pt x="604" y="1071" on="1"/>
        <pt x="604" y="877" on="1"/>
        <pt x="1260" y="877" on="1"/>
        <pt x="1260" y="553" on="1"/>
        <pt x="604" y="553" on="1"/>
        <pt x="604" y="338" on="1"/>
        <pt x="1384" y="338" on="1"/>
        <pt x="1384" y="0" on="1"/>
      </contour>
    </TTGlyph>
    <TTGlyph name="Eacute" xMin="152" yMin="0" xMax="1384" yMax="1812">
      <contour>
        <pt x="854" y="1540" on="1"/>
        <pt x="594" y="1540" on="1"/>
        <pt x="782" y="1812" on="1"/>
        <pt x="1178" y="1812" on="1"/>
        <pt x="1182" y="1804" on="1"/>
      </contour>
      <contour>
        <pt x="152" y="0" on="1"/>
        <pt x="152" y="1409" on="1"/>
        <pt x="1370" y="1409" on="1"/>
        <pt x="1370" y="1071" on="1"/>
        <pt x="604" y="1071" on="1"/>
        <pt x="604" y="877" on="1"/>
        <pt x="1260" y="877" on="1"/>
        <pt x="1260" y="553" on="1"/>
        <pt x="604" y="553" on="1"/>
        <pt x="604" y="338" on="1"/>
        <pt x="1384" y="338" on="1"/>
        <pt x="1384" y="0" on="1"/>
      </contour>
    </TTGlyph>
    <TTGlyph name="Ebreve" xMin="152" yMin="0" xMax="1384" yMax="1812">
      <contour>
        <pt x="1167" y="1812" on="1"/>
        <pt x="1167" y="1761" on="0"/>
        <pt x="1114" y="1656" on="0"/>
        <pt x="1016" y="1571" on="0"/>
        <pt x="876" y="1518" on="0"/>
        <pt x="788" y="1518" on="1"/>
        <pt x="700" y="1518" on="0"/>
        <pt x="560" y="1571" on="0"/>
        <pt x="463" y="1656" on="0"/>
        <pt x="412" y="1761" on="0"/>
        <pt x="412" y="1812" on="1"/>
        <pt x="608" y="1812" on="1"/>
        <pt x="611" y="1796" on="0"/>
        <pt x="640" y="1760" on="0"/>
        <pt x="687" y="1730" on="0"/>
        <pt x="750" y="1710" on="0"/>
        <pt x="788" y="1710" on="1"/>
        <pt x="827" y="1710" on="0"/>
        <pt x="892" y="1730" on="0"/>
        <pt x="940" y="1760" on="0"/>
        <pt x="970" y="1796" on="0"/>
        <pt x="973" y="1812" on="1"/>
      </contour>
      <contour>
        <pt x="152" y="0" on="1"/>
        <pt x="152" y="1409" on="1"/>
        <pt x="1370" y="1409" on="1"/>
        <pt x="1370" y="1071" on="1"/>
        <pt x="604" y="1071" on="1"/>
        <pt x="604" y="877" on="1"/>
        <pt x="1260" y="877" on="1"/>
        <pt x="1260" y="553" on="1"/>
        <pt x="604" y="553" on="1"/>
        <pt x="604" y="338" on="1"/>
        <pt x="1384" y="338" on="1"/>
        <pt x="1384" y="0" on="1"/>
      </contour>
    </TTGlyph>
    <TTGlyph name="Ecaron" xMin="152" yMin="0" xMax="1384" yMax="1812">
      <contour>
        <pt x="922" y="1516" on="1"/>
        <pt x="659" y="1516" on="1"/>
        <pt x="375" y="1812" on="1"/>
        <pt x="637" y="1812" on="1"/>
        <pt x="788" y="1655" on="1"/>
        <pt x="940" y="1812" on="1"/>
        <pt x="1206" y="1812" on="1"/>
      </contour>
      <contour>
        <pt x="152" y="0" on="1"/>
        <pt x="152" y="1409" on="1"/>
        <pt x="1370" y="1409" on="1"/>
        <pt x="1370" y="1071" on="1"/>
        <pt x="604" y="1071" on="1"/>
        <pt x="604" y="877" on="1"/>
        <pt x="1260" y="877" on="1"/>
        <pt x="1260" y="553" on="1"/>
        <pt x="604" y="553" on="1"/>
        <pt x="604" y="338" on="1"/>
        <pt x="1384" y="338" on="1"/>
        <pt x="1384" y="0" on="1"/>
      </contour>
    </TTGlyph>
    <TTGlyph name="Ecircumflex" xMin="152" yMin="0" xMax="1384" yMax="1812">
      <contour>
        <pt x="1206" y="1516" on="1"/>
        <pt x="940" y="1516" on="1"/>
        <pt x="788" y="1673" on="1"/>
        <pt x="637" y="1516" on="1"/>
        <pt x="375" y="1516" on="1"/>
        <pt x="659" y="1812" on="1"/>
        <pt x="922" y="1812" on="1"/>
      </contour>
      <contour>
        <pt x="152" y="0" on="1"/>
        <pt x="152" y="1409" on="1"/>
        <pt x="1370" y="1409" on="1"/>
        <pt x="1370" y="1071" on="1"/>
        <pt x="604" y="1071" on="1"/>
        <pt x="604" y="877" on="1"/>
        <pt x="1260" y="877" on="1"/>
        <pt x="1260" y="553" on="1"/>
        <pt x="604" y="553" on="1"/>
        <pt x="604" y="338" on="1"/>
        <pt x="1384" y="338" on="1"/>
        <pt x="1384" y="0" on="1"/>
      </contour>
    </TTGlyph>
    <TTGlyph name="Edieresis" xMin="152" yMin="0" xMax="1384" yMax="1812">
      <contour>
        <pt x="1171" y="1528" on="1"/>
        <pt x="860" y="1528" on="1"/>
        <pt x="860" y="1812" on="1"/>
        <pt x="1171" y="1812" on="1"/>
      </contour>
      <contour>
        <pt x="721" y="1528" on="1"/>
        <pt x="410" y="1528" on="1"/>
        <pt x="410" y="1812" on="1"/>
        <pt x="721" y="1812" on="1"/>
      </contour>
      <contour>
        <pt x="152" y="0" on="1"/>
        <pt x="152" y="1409" on="1"/>
        <pt x="1370" y="1409" on="1"/>
        <pt x="1370" y="1071" on="1"/>
        <pt x="604" y="1071" on="1"/>
        <pt x="604" y="877" on="1"/>
        <pt x="1260" y="877" on="1"/>
        <pt x="1260" y="553" on="1"/>
        <pt x="604" y="553" on="1"/>
        <pt x="604" y="338" on="1"/>
        <pt x="1384" y="338" on="1"/>
        <pt x="1384" y="0" on="1"/>
      </contour>
    </TTGlyph>
    <TTGlyph name="Edotaccent" xMin="152" yMin="0" xMax="1384" yMax="1812">
      <contour>
        <pt x="946" y="1528" on="1"/>
        <pt x="635" y="1528" on="1"/>
        <pt x="635" y="1812" on="1"/>
        <pt x="946" y="1812" on="1"/>
      </contour>
      <contour>
        <pt x="152" y="0" on="1"/>
        <pt x="152" y="1409" on="1"/>
        <pt x="1370" y="1409" on="1"/>
        <pt x="1370" y="1071" on="1"/>
        <pt x="604" y="1071" on="1"/>
        <pt x="604" y="877" on="1"/>
        <pt x="1260" y="877" on="1"/>
        <pt x="1260" y="553" on="1"/>
        <pt x="604" y="553" on="1"/>
        <pt x="604" y="338" on="1"/>
        <pt x="1384" y="338" on="1"/>
        <pt x="1384" y="0" on="1"/>
      </contour>
    </TTGlyph>
    <TTGlyph name="Egrave" xMin="152" yMin="0" xMax="1384" yMax="1812">
      <contour>
        <pt x="727" y="1540" on="1"/>
        <pt x="399" y="1804" on="1"/>
        <pt x="403" y="1812" on="1"/>
        <pt x="799" y="1812" on="1"/>
        <pt x="987" y="1540" on="1"/>
      </contour>
      <contour>
        <pt x="152" y="0" on="1"/>
        <pt x="152" y="1409" on="1"/>
        <pt x="1370" y="1409" on="1"/>
        <pt x="1370" y="1071" on="1"/>
        <pt x="604" y="1071" on="1"/>
        <pt x="604" y="877" on="1"/>
        <pt x="1260" y="877" on="1"/>
        <pt x="1260" y="553" on="1"/>
        <pt x="604" y="553" on="1"/>
        <pt x="604" y="338" on="1"/>
        <pt x="1384" y="338" on="1"/>
        <pt x="1384" y="0" on="1"/>
      </contour>
    </TTGlyph>
    <TTGlyph name="Emacron" xMin="152" yMin="0" xMax="1384" yMax="1772">
      <contour>
        <pt x="1114" y="1567" on="1"/>
        <pt x="467" y="1567" on="1"/>
        <pt x="467" y="1772" on="1"/>
        <pt x="1114" y="1772" on="1"/>
      </contour>
      <contour>
        <pt x="152" y="0" on="1"/>
        <pt x="152" y="1409" on="1"/>
        <pt x="1370" y="1409" on="1"/>
        <pt x="1370" y="1071" on="1"/>
        <pt x="604" y="1071" on="1"/>
        <pt x="604" y="877" on="1"/>
        <pt x="1260" y="877" on="1"/>
        <pt x="1260" y="553" on="1"/>
        <pt x="604" y="553" on="1"/>
        <pt x="604" y="338" on="1"/>
        <pt x="1384" y="338" on="1"/>
        <pt x="1384" y="0" on="1"/>
      </contour>
    </TTGlyph>
    <TTGlyph name="Eng" xMin="152" yMin="-430" xMax="1554" yMax="1409">
      <contour>
        <pt x="1554" y="-59" on="1"/>
        <pt x="1554" y="-158" on="0"/>
        <pt x="1511" y="-298" on="0"/>
        <pt x="1420" y="-388" on="0"/>
        <pt x="1278" y="-430" on="0"/>
        <pt x="1180" y="-430" on="1"/>
        <pt x="1155" y="-430" on="0"/>
        <pt x="1087" y="-425" on="0"/>
        <pt x="1016" y="-415" on="0"/>
        <pt x="950" y="-402" on="0"/>
        <pt x="926" y="-393" on="1"/>
        <pt x="926" y="-150" on="1"/>
        <pt x="1026" y="-150" on="1"/>
        <pt x="1088" y="-150" on="0"/>
        <pt x="1141" y="-81" on="0"/>
        <pt x="1141" y="-18" on="1"/>
        <pt x="1141" y="20" on="1"/>
        <pt x="567" y="684" on="1"/>
        <pt x="567" y="0" on="1"/>
        <pt x="152" y="0" on="1"/>
        <pt x="152" y="1409" on="1"/>
        <pt x="547" y="1409" on="1"/>
        <pt x="1139" y="715" on="1"/>
        <pt x="1139" y="1409" on="1"/>
        <pt x="1554" y="1409" on="1"/>
      </contour>
    </TTGlyph>
    <TTGlyph name="Eogonek" xMin="152" yMin="-432" xMax="1460" yMax="1409">
      <contour>
        <pt x="1370" y="1071" on="1"/>
        <pt x="604" y="1071" on="1"/>
        <pt x="604" y="877" on="1"/>
        <pt x="1260" y="877" on="1"/>
        <pt x="1260" y="553" on="1"/>
        <pt x="604" y="553" on="1"/>
        <pt x="604" y="338" on="1"/>
        <pt x="1384" y="338" on="1"/>
        <pt x="1384" y="0" on="1"/>
        <pt x="1284" y="0" on="1"/>
        <pt x="1273" y="-25" on="0"/>
        <pt x="1251" y="-101" on="0"/>
        <pt x="1251" y="-141" on="1"/>
        <pt x="1251" y="-161" on="0"/>
        <pt x="1264" y="-199" on="0"/>
        <pt x="1292" y="-228" on="0"/>
        <pt x="1339" y="-246" on="0"/>
        <pt x="1374" y="-246" on="1"/>
        <pt x="1460" y="-246" on="1"/>
        <pt x="1460" y="-401" on="1"/>
        <pt x="1367" y="-432" on="0"/>
        <pt x="1264" y="-432" on="1"/>
        <pt x="1215" y="-432" on="0"/>
        <pt x="1122" y="-406" on="0"/>
        <pt x="1050" y="-351" on="0"/>
        <pt x="1006" y="-262" on="0"/>
        <pt x="1006" y="-199" on="1"/>
        <pt x="1006" y="-135" on="0"/>
        <pt x="1057" y="-38" on="0"/>
        <pt x="1087" y="0" on="1"/>
        <pt x="152" y="0" on="1"/>
        <pt x="152" y="1409" on="1"/>
        <pt x="1370" y="1409" on="1"/>
      </contour>
    </TTGlyph>
    <TTGlyph name="Eth" xMin="2" yMin="0" xMax="1501" yMax="1409">
      <contour>
        <pt x="2" y="823" on="1"/>
        <pt x="152" y="823" on="1"/>
        <pt x="152" y="1409" on="1"/>
        <pt x="762" y="1409" on="1"/>
        <pt x="942" y="1409" on="0"/>
        <pt x="1218" y="1324" on="0"/>
        <pt x="1405" y="1150" on="0"/>
        <pt x="1501" y="885" on="0"/>
        <pt x="1501" y="705" on="1"/>
        <pt x="1501" y="524" on="0"/>
        <pt x="1405" y="259" on="0"/>
        <pt x="1218" y="85" on="0"/>
        <pt x="942" y="0" on="0"/>
        <pt x="762" y="0" on="1"/>
        <pt x="152" y="0" on="1"/>
        <pt x="152" y="623" on="1"/>
        <pt x="2" y="623" on="1"/>
      </contour>
      <contour>
        <pt x="604" y="623" on="1"/>
        <pt x="604" y="338" on="1"/>
        <pt x="754" y="338" on="1"/>
        <pt x="828" y="338" on="0"/>
        <pt x="936" y="379" on="0"/>
        <pt x="1005" y="458" on="0"/>
        <pt x="1038" y="571" on="0"/>
        <pt x="1038" y="643" on="1"/>
        <pt x="1038" y="766" on="1"/>
        <pt x="1038" y="838" on="0"/>
        <pt x="1005" y="951" on="0"/>
        <pt x="936" y="1030" on="0"/>
        <pt x="828" y="1071" on="0"/>
        <pt x="754" y="1071" on="1"/>
        <pt x="604" y="1071" on="1"/>
        <pt x="604" y="823" on="1"/>
        <pt x="803" y="823" on="1"/>
        <pt x="803" y="623" on="1"/>
      </contour>
    </TTGlyph>
    <TTGlyph name="Euro" xMin="47" yMin="-25" xMax="1286" yMax="1434">
      <contour>
        <pt x="971" y="1434" on="1"/>
        <pt x="1071" y="1434" on="0"/>
        <pt x="1232" y="1410" on="0"/>
        <pt x="1286" y="1395" on="1"/>
        <pt x="1286" y="1098" on="1"/>
        <pt x="1254" y="1112" on="0"/>
        <pt x="1215" y="1123" on="1"/>
        <pt x="1181" y="1133" on="0"/>
        <pt x="1090" y="1149" on="0"/>
        <pt x="1034" y="1149" on="1"/>
        <pt x="900" y="1149" on="0"/>
        <pt x="723" y="1040" on="0"/>
        <pt x="678" y="944" on="1"/>
        <pt x="1106" y="944" on="1"/>
        <pt x="1106" y="754" on="1"/>
        <pt x="633" y="754" on="1"/>
        <pt x="633" y="709" on="1"/>
        <pt x="633" y="695" on="0"/>
        <pt x="633" y="668" on="0"/>
        <pt x="635" y="655" on="1"/>
        <pt x="1106" y="655" on="1"/>
        <pt x="1106" y="465" on="1"/>
        <pt x="680" y="465" on="1"/>
        <pt x="726" y="369" on="0"/>
        <pt x="901" y="260" on="0"/>
        <pt x="1034" y="260" on="1"/>
        <pt x="1090" y="260" on="0"/>
        <pt x="1181" y="276" on="0"/>
        <pt x="1215" y="287" on="1"/>
        <pt x="1254" y="299" on="0"/>
        <pt x="1286" y="315" on="1"/>
        <pt x="1286" y="27" on="1"/>
        <pt x="1221" y="7" on="0"/>
        <pt x="1059" y="-25" on="0"/>
        <pt x="965" y="-25" on="1"/>
        <pt x="901" y="-25" on="0"/>
        <pt x="760" y="-5" on="0"/>
        <pt x="620" y="41" on="0"/>
        <pt x="487" y="115" on="0"/>
        <pt x="373" y="224" on="0"/>
        <pt x="284" y="370" on="0"/>
        <pt x="258" y="465" on="1"/>
        <pt x="47" y="465" on="1"/>
        <pt x="47" y="655" on="1"/>
        <pt x="231" y="655" on="1"/>
        <pt x="231" y="754" on="1"/>
        <pt x="47" y="754" on="1"/>
        <pt x="47" y="944" on="1"/>
        <pt x="258" y="944" on="1"/>
        <pt x="284" y="1038" on="0"/>
        <pt x="371" y="1184" on="0"/>
        <pt x="484" y="1293" on="0"/>
        <pt x="616" y="1368" on="0"/>
        <pt x="757" y="1414" on="0"/>
        <pt x="902" y="1434" on="0"/>
      </contour>
    </TTGlyph>
    <TTGlyph name="F" xMin="152" yMin="0" xMax="1290" yMax="1409">
      <contour>
        <pt x="152" y="0" on="1"/>
        <pt x="152" y="1409" on="1"/>
        <pt x="1290" y="1409" on="1"/>
        <pt x="1290" y="1071" on="1"/>
        <pt x="604" y="1071" on="1"/>
        <pt x="604" y="829" on="1"/>
        <pt x="1194" y="829" on="1"/>
        <pt x="1194" y="506" on="1"/>
        <pt x="604" y="506" on="1"/>
        <pt x="604" y="0" on="1"/>
      </contour>
    </TTGlyph>
    <TTGlyph name="G" xMin="92" yMin="-25" xMax="1577" yMax="1434">
      <contour>
        <pt x="860" y="1434" on="1"/>
        <pt x="1008" y="1434" on="0"/>
        <pt x="1269" y="1366" on="0"/>
        <pt x="1464" y="1232" on="0"/>
        <pt x="1577" y="1032" on="0"/>
        <pt x="1577" y="899" on="1"/>
        <pt x="1145" y="899" on="1"/>
        <pt x="1145" y="944" on="0"/>
        <pt x="1102" y="1017" on="0"/>
        <pt x="1029" y="1068" on="0"/>
        <pt x="933" y="1096" on="0"/>
        <pt x="879" y="1096" on="1"/>
        <pt x="718" y="1096" on="0"/>
        <pt x="555" y="924" on="0"/>
        <pt x="555" y="770" on="1"/>
        <pt x="555" y="639" on="1"/>
        <pt x="555" y="485" on="0"/>
        <pt x="718" y="313" on="0"/>
        <pt x="879" y="313" on="1"/>
        <pt x="933" y="313" on="0"/>
        <pt x="1029" y="340" on="0"/>
        <pt x="1102" y="389" on="0"/>
        <pt x="1145" y="458" on="0"/>
        <pt x="1145" y="500" on="1"/>
        <pt x="825" y="500" on="1"/>
        <pt x="825" y="786" on="1"/>
        <pt x="1577" y="786" on="1"/>
        <pt x="1577" y="0" on="1"/>
        <pt x="1343" y="0" on="1"/>
        <pt x="1298" y="139" on="1"/>
        <pt x="1202" y="58" on="0"/>
        <pt x="957" y="-25" on="0"/>
        <pt x="795" y="-25" on="1"/>
        <pt x="443" y="-25" on="0"/>
        <pt x="92" y="343" on="0"/>
        <pt x="92" y="705" on="1"/>
        <pt x="92" y="885" on="0"/>
        <pt x="195" y="1158" on="0"/>
        <pt x="392" y="1341" on="0"/>
        <pt x="677" y="1434" on="0"/>
      </contour>
    </TTGlyph>
    <TTGlyph name="Gbreve" xMin="92" yMin="-25" xMax="1577" yMax="1813">
      <contour>
        <pt x="860" y="1434" on="1"/>
        <pt x="1008" y="1434" on="0"/>
        <pt x="1269" y="1366" on="0"/>
        <pt x="1464" y="1232" on="0"/>
        <pt x="1577" y="1032" on="0"/>
        <pt x="1577" y="899" on="1"/>
        <pt x="1145" y="899" on="1"/>
        <pt x="1145" y="944" on="0"/>
        <pt x="1102" y="1017" on="0"/>
        <pt x="1029" y="1068" on="0"/>
        <pt x="933" y="1096" on="0"/>
        <pt x="879" y="1096" on="1"/>
        <pt x="718" y="1096" on="0"/>
        <pt x="555" y="924" on="0"/>
        <pt x="555" y="770" on="1"/>
        <pt x="555" y="639" on="1"/>
        <pt x="555" y="485" on="0"/>
        <pt x="718" y="313" on="0"/>
        <pt x="879" y="313" on="1"/>
        <pt x="933" y="313" on="0"/>
        <pt x="1029" y="340" on="0"/>
        <pt x="1102" y="389" on="0"/>
        <pt x="1145" y="458" on="0"/>
        <pt x="1145" y="500" on="1"/>
        <pt x="825" y="500" on="1"/>
        <pt x="825" y="786" on="1"/>
        <pt x="1577" y="786" on="1"/>
        <pt x="1577" y="0" on="1"/>
        <pt x="1343" y="0" on="1"/>
        <pt x="1298" y="139" on="1"/>
        <pt x="1202" y="58" on="0"/>
        <pt x="957" y="-25" on="0"/>
        <pt x="795" y="-25" on="1"/>
        <pt x="443" y="-25" on="0"/>
        <pt x="92" y="343" on="0"/>
        <pt x="92" y="705" on="1"/>
        <pt x="92" y="885" on="0"/>
        <pt x="195" y="1158" on="0"/>
        <pt x="392" y="1341" on="0"/>
        <pt x="677" y="1434" on="0"/>
      </contour>
      <contour>
        <pt x="1231" y="1813" on="1"/>
        <pt x="1231" y="1762" on="0"/>
        <pt x="1178" y="1657" on="0"/>
        <pt x="1080" y="1572" on="0"/>
        <pt x="939" y="1518" on="0"/>
        <pt x="852" y="1518" on="1"/>
        <pt x="763" y="1518" on="0"/>
        <pt x="624" y="1572" on="0"/>
        <pt x="526" y="1657" on="0"/>
        <pt x="475" y="1762" on="0"/>
        <pt x="475" y="1813" on="1"/>
        <pt x="672" y="1813" on="1"/>
        <pt x="675" y="1797" on="0"/>
        <pt x="704" y="1761" on="0"/>
        <pt x="751" y="1730" on="0"/>
        <pt x="814" y="1710" on="0"/>
        <pt x="852" y="1710" on="1"/>
        <pt x="890" y="1710" on="0"/>
        <pt x="955" y="1730" on="0"/>
        <pt x="1003" y="1761" on="0"/>
        <pt x="1033" y="1797" on="0"/>
        <pt x="1036" y="1813" on="1"/>
      </contour>
    </TTGlyph>
    <TTGlyph name="Gcircumflex" xMin="92" yMin="-25" xMax="1577" yMax="1813">
      <contour>
        <pt x="860" y="1434" on="1"/>
        <pt x="1008" y="1434" on="0"/>
        <pt x="1269" y="1366" on="0"/>
        <pt x="1464" y="1232" on="0"/>
        <pt x="1577" y="1032" on="0"/>
        <pt x="1577" y="899" on="1"/>
        <pt x="1145" y="899" on="1"/>
        <pt x="1145" y="944" on="0"/>
        <pt x="1102" y="1017" on="0"/>
        <pt x="1029" y="1068" on="0"/>
        <pt x="933" y="1096" on="0"/>
        <pt x="879" y="1096" on="1"/>
        <pt x="718" y="1096" on="0"/>
        <pt x="555" y="924" on="0"/>
        <pt x="555" y="770" on="1"/>
        <pt x="555" y="639" on="1"/>
        <pt x="555" y="485" on="0"/>
        <pt x="718" y="313" on="0"/>
        <pt x="879" y="313" on="1"/>
        <pt x="933" y="313" on="0"/>
        <pt x="1029" y="340" on="0"/>
        <pt x="1102" y="389" on="0"/>
        <pt x="1145" y="458" on="0"/>
        <pt x="1145" y="500" on="1"/>
        <pt x="825" y="500" on="1"/>
        <pt x="825" y="786" on="1"/>
        <pt x="1577" y="786" on="1"/>
        <pt x="1577" y="0" on="1"/>
        <pt x="1343" y="0" on="1"/>
        <pt x="1298" y="139" on="1"/>
        <pt x="1202" y="58" on="0"/>
        <pt x="957" y="-25" on="0"/>
        <pt x="795" y="-25" on="1"/>
        <pt x="443" y="-25" on="0"/>
        <pt x="92" y="343" on="0"/>
        <pt x="92" y="705" on="1"/>
        <pt x="92" y="885" on="0"/>
        <pt x="195" y="1158" on="0"/>
        <pt x="392" y="1341" on="0"/>
        <pt x="677" y="1434" on="0"/>
      </contour>
      <contour>
        <pt x="1269" y="1516" on="1"/>
        <pt x="1003" y="1516" on="1"/>
        <pt x="851" y="1674" on="1"/>
        <pt x="699" y="1516" on="1"/>
        <pt x="437" y="1516" on="1"/>
        <pt x="722" y="1813" on="1"/>
        <pt x="984" y="1813" on="1"/>
      </contour>
    </TTGlyph>
    <TTGlyph name="Gcommaaccent" xMin="92" yMin="-546" xMax="1577" yMax="1434">
      <contour>
        <pt x="860" y="1434" on="1"/>
        <pt x="1008" y="1434" on="0"/>
        <pt x="1269" y="1366" on="0"/>
        <pt x="1464" y="1232" on="0"/>
        <pt x="1577" y="1032" on="0"/>
        <pt x="1577" y="899" on="1"/>
        <pt x="1145" y="899" on="1"/>
        <pt x="1145" y="944" on="0"/>
        <pt x="1102" y="1017" on="0"/>
        <pt x="1029" y="1068" on="0"/>
        <pt x="933" y="1096" on="0"/>
        <pt x="879" y="1096" on="1"/>
        <pt x="718" y="1096" on="0"/>
        <pt x="555" y="924" on="0"/>
        <pt x="555" y="770" on="1"/>
        <pt x="555" y="639" on="1"/>
        <pt x="555" y="485" on="0"/>
        <pt x="718" y="313" on="0"/>
        <pt x="879" y="313" on="1"/>
        <pt x="933" y="313" on="0"/>
        <pt x="1029" y="340" on="0"/>
        <pt x="1102" y="389" on="0"/>
        <pt x="1145" y="458" on="0"/>
        <pt x="1145" y="500" on="1"/>
        <pt x="825" y="500" on="1"/>
        <pt x="825" y="786" on="1"/>
        <pt x="1577" y="786" on="1"/>
        <pt x="1577" y="0" on="1"/>
        <pt x="1343" y="0" on="1"/>
        <pt x="1298" y="139" on="1"/>
        <pt x="1202" y="58" on="0"/>
        <pt x="957" y="-25" on="0"/>
        <pt x="795" y="-25" on="1"/>
        <pt x="443" y="-25" on="0"/>
        <pt x="92" y="343" on="0"/>
        <pt x="92" y="705" on="1"/>
        <pt x="92" y="885" on="0"/>
        <pt x="195" y="1158" on="0"/>
        <pt x="392" y="1341" on="0"/>
        <pt x="677" y="1434" on="0"/>
      </contour>
      <contour>
        <pt x="986" y="-344" on="1"/>
        <pt x="875" y="-546" on="1"/>
        <pt x="738" y="-546" on="1"/>
        <pt x="822" y="-358" on="1"/>
        <pt x="720" y="-358" on="1"/>
        <pt x="720" y="-121" on="1"/>
        <pt x="986" y="-121" on="1"/>
      </contour>
    </TTGlyph>
    <TTGlyph name="Gdotaccent" xMin="92" yMin="-25" xMax="1577" yMax="1813">
      <contour>
        <pt x="860" y="1434" on="1"/>
        <pt x="1008" y="1434" on="0"/>
        <pt x="1269" y="1366" on="0"/>
        <pt x="1464" y="1232" on="0"/>
        <pt x="1577" y="1032" on="0"/>
        <pt x="1577" y="899" on="1"/>
        <pt x="1145" y="899" on="1"/>
        <pt x="1145" y="944" on="0"/>
        <pt x="1102" y="1017" on="0"/>
        <pt x="1029" y="1068" on="0"/>
        <pt x="933" y="1096" on="0"/>
        <pt x="879" y="1096" on="1"/>
        <pt x="718" y="1096" on="0"/>
        <pt x="555" y="924" on="0"/>
        <pt x="555" y="770" on="1"/>
        <pt x="555" y="639" on="1"/>
        <pt x="555" y="485" on="0"/>
        <pt x="718" y="313" on="0"/>
        <pt x="879" y="313" on="1"/>
        <pt x="933" y="313" on="0"/>
        <pt x="1029" y="340" on="0"/>
        <pt x="1102" y="389" on="0"/>
        <pt x="1145" y="458" on="0"/>
        <pt x="1145" y="500" on="1"/>
        <pt x="825" y="500" on="1"/>
        <pt x="825" y="786" on="1"/>
        <pt x="1577" y="786" on="1"/>
        <pt x="1577" y="0" on="1"/>
        <pt x="1343" y="0" on="1"/>
        <pt x="1298" y="139" on="1"/>
        <pt x="1202" y="58" on="0"/>
        <pt x="957" y="-25" on="0"/>
        <pt x="795" y="-25" on="1"/>
        <pt x="443" y="-25" on="0"/>
        <pt x="92" y="343" on="0"/>
        <pt x="92" y="705" on="1"/>
        <pt x="92" y="885" on="0"/>
        <pt x="195" y="1158" on="0"/>
        <pt x="392" y="1341" on="0"/>
        <pt x="677" y="1434" on="0"/>
      </contour>
      <contour>
        <pt x="1009" y="1528" on="1"/>
        <pt x="697" y="1528" on="1"/>
        <pt x="697" y="1813" on="1"/>
        <pt x="1009" y="1813" on="1"/>
      </contour>
    </TTGlyph>
    <TTGlyph name="H" xMin="152" yMin="0" xMax="1554" yMax="1409">
      <contour>
        <pt x="1554" y="0" on="1"/>
        <pt x="1102" y="0" on="1"/>
        <pt x="1102" y="535" on="1"/>
        <pt x="604" y="535" on="1"/>
        <pt x="604" y="0" on="1"/>
        <pt x="152" y="0" on="1"/>
        <pt x="152" y="1409" on="1"/>
        <pt x="604" y="1409" on="1"/>
        <pt x="604" y="895" on="1"/>
        <pt x="1102" y="895" on="1"/>
        <pt x="1102" y="1409" on="1"/>
        <pt x="1554" y="1409" on="1"/>
      </contour>
    </TTGlyph>
    <TTGlyph name="Hbar" xMin="2" yMin="0" xMax="1702" yMax="1409">
      <contour>
        <pt x="1554" y="1029" on="1"/>
        <pt x="1554" y="0" on="1"/>
        <pt x="1102" y="0" on="1"/>
        <pt x="1102" y="515" on="1"/>
        <pt x="604" y="515" on="1"/>
        <pt x="604" y="0" on="1"/>
        <pt x="152" y="0" on="1"/>
        <pt x="152" y="1029" on="1"/>
        <pt x="2" y="1029" on="1"/>
        <pt x="2" y="1229" on="1"/>
        <pt x="152" y="1229" on="1"/>
        <pt x="152" y="1409" on="1"/>
        <pt x="604" y="1409" on="1"/>
        <pt x="604" y="1229" on="1"/>
        <pt x="1102" y="1229" on="1"/>
        <pt x="1102" y="1409" on="1"/>
        <pt x="1554" y="1409" on="1"/>
        <pt x="1554" y="1229" on="1"/>
        <pt x="1702" y="1229" on="1"/>
        <pt x="1702" y="1029" on="1"/>
      </contour>
      <contour>
        <pt x="1102" y="875" on="1"/>
        <pt x="1102" y="1029" on="1"/>
        <pt x="604" y="1029" on="1"/>
        <pt x="604" y="875" on="1"/>
      </contour>
    </TTGlyph>
    <TTGlyph name="Hcircumflex" xMin="152" yMin="0" xMax="1554" yMax="1813">
      <contour>
        <pt x="1554" y="0" on="1"/>
        <pt x="1102" y="0" on="1"/>
        <pt x="1102" y="535" on="1"/>
        <pt x="604" y="535" on="1"/>
        <pt x="604" y="0" on="1"/>
        <pt x="152" y="0" on="1"/>
        <pt x="152" y="1409" on="1"/>
        <pt x="604" y="1409" on="1"/>
        <pt x="604" y="895" on="1"/>
        <pt x="1102" y="895" on="1"/>
        <pt x="1102" y="1409" on="1"/>
        <pt x="1554" y="1409" on="1"/>
      </contour>
      <contour>
        <pt x="1269" y="1516" on="1"/>
        <pt x="1003" y="1516" on="1"/>
        <pt x="851" y="1674" on="1"/>
        <pt x="699" y="1516" on="1"/>
        <pt x="437" y="1516" on="1"/>
        <pt x="722" y="1813" on="1"/>
        <pt x="984" y="1813" on="1"/>
      </contour>
    </TTGlyph>
    <TTGlyph name="I" xMin="172" yMin="0" xMax="625" yMax="1409">
      <contour>
        <pt x="625" y="0" on="1"/>
        <pt x="172" y="0" on="1"/>
        <pt x="172" y="1409" on="1"/>
        <pt x="625" y="1409" on="1"/>
      </contour>
    </TTGlyph>
    <TTGlyph name="IJ" xMin="172" yMin="-25" xMax="1954" yMax="1409">
      <contour>
        <pt x="1954" y="489" on="1"/>
        <pt x="1954" y="354" on="0"/>
        <pt x="1874" y="160" on="0"/>
        <pt x="1724" y="34" on="0"/>
        <pt x="1507" y="-25" on="0"/>
        <pt x="1370" y="-25" on="1"/>
        <pt x="1233" y="-25" on="0"/>
        <pt x="1017" y="34" on="0"/>
        <pt x="866" y="160" on="0"/>
        <pt x="786" y="354" on="0"/>
        <pt x="786" y="489" on="1"/>
        <pt x="786" y="508" on="1"/>
        <pt x="1210" y="508" on="1"/>
        <pt x="1210" y="492" on="1"/>
        <pt x="1210" y="393" on="0"/>
        <pt x="1284" y="313" on="0"/>
        <pt x="1356" y="313" on="1"/>
        <pt x="1428" y="313" on="0"/>
        <pt x="1501" y="393" on="0"/>
        <pt x="1501" y="492" on="1"/>
        <pt x="1501" y="1409" on="1"/>
        <pt x="1954" y="1409" on="1"/>
      </contour>
      <contour>
        <pt x="625" y="0" on="1"/>
        <pt x="172" y="0" on="1"/>
        <pt x="172" y="1409" on="1"/>
        <pt x="625" y="1409" on="1"/>
      </contour>
    </TTGlyph>
    <TTGlyph name="Iacute" xMin="172" yMin="0" xMax="790" yMax="1813">
      <contour>
        <pt x="172" y="0" on="1"/>
        <pt x="172" y="1409" on="1"/>
        <pt x="625" y="1409" on="1"/>
        <pt x="625" y="0" on="1"/>
      </contour>
      <contour>
        <pt x="463" y="1540" on="1"/>
        <pt x="202" y="1540" on="1"/>
        <pt x="391" y="1813" on="1"/>
        <pt x="786" y="1813" on="1"/>
        <pt x="790" y="1805" on="1"/>
      </contour>
    </TTGlyph>
    <TTGlyph name="Ibreve" xMin="21" yMin="0" xMax="777" yMax="1813">
      <contour>
        <pt x="625" y="0" on="1"/>
        <pt x="172" y="0" on="1"/>
        <pt x="172" y="1409" on="1"/>
        <pt x="625" y="1409" on="1"/>
      </contour>
      <contour>
        <pt x="777" y="1813" on="1"/>
        <pt x="777" y="1762" on="0"/>
        <pt x="724" y="1657" on="0"/>
        <pt x="626" y="1572" on="0"/>
        <pt x="485" y="1518" on="0"/>
        <pt x="398" y="1518" on="1"/>
        <pt x="309" y="1518" on="0"/>
        <pt x="170" y="1572" on="0"/>
        <pt x="72" y="1657" on="0"/>
        <pt x="21" y="1762" on="0"/>
        <pt x="21" y="1813" on="1"/>
        <pt x="218" y="1813" on="1"/>
        <pt x="221" y="1797" on="0"/>
        <pt x="250" y="1761" on="0"/>
        <pt x="297" y="1730" on="0"/>
        <pt x="360" y="1710" on="0"/>
        <pt x="398" y="1710" on="1"/>
        <pt x="436" y="1710" on="0"/>
        <pt x="501" y="1730" on="0"/>
        <pt x="549" y="1761" on="0"/>
        <pt x="579" y="1797" on="0"/>
        <pt x="582" y="1813" on="1"/>
      </contour>
    </TTGlyph>
    <TTGlyph name="Icircumflex" xMin="-17" yMin="0" xMax="815" yMax="1813">
      <contour>
        <pt x="625" y="0" on="1"/>
        <pt x="172" y="0" on="1"/>
        <pt x="172" y="1409" on="1"/>
        <pt x="625" y="1409" on="1"/>
      </contour>
      <contour>
        <pt x="815" y="1516" on="1"/>
        <pt x="549" y="1516" on="1"/>
        <pt x="397" y="1674" on="1"/>
        <pt x="245" y="1516" on="1"/>
        <pt x="-17" y="1516" on="1"/>
        <pt x="268" y="1813" on="1"/>
        <pt x="530" y="1813" on="1"/>
      </contour>
    </TTGlyph>
    <TTGlyph name="Idieresis" xMin="18" yMin="0" xMax="780" yMax="1813">
      <contour>
        <pt x="625" y="0" on="1"/>
        <pt x="172" y="0" on="1"/>
        <pt x="172" y="1409" on="1"/>
        <pt x="625" y="1409" on="1"/>
      </contour>
      <contour>
        <pt x="780" y="1528" on="1"/>
        <pt x="469" y="1528" on="1"/>
        <pt x="469" y="1813" on="1"/>
        <pt x="780" y="1813" on="1"/>
      </contour>
      <contour>
        <pt x="329" y="1528" on="1"/>
        <pt x="18" y="1528" on="1"/>
        <pt x="18" y="1813" on="1"/>
        <pt x="329" y="1813" on="1"/>
      </contour>
    </TTGlyph>
    <TTGlyph name="Idotaccent" xMin="172" yMin="0" xMax="625" yMax="1813">
      <contour>
        <pt x="625" y="0" on="1"/>
        <pt x="172" y="0" on="1"/>
        <pt x="172" y="1409" on="1"/>
        <pt x="625" y="1409" on="1"/>
      </contour>
      <contour>
        <pt x="555" y="1528" on="1"/>
        <pt x="243" y="1528" on="1"/>
        <pt x="243" y="1813" on="1"/>
        <pt x="555" y="1813" on="1"/>
      </contour>
    </TTGlyph>
    <TTGlyph name="Igrave" xMin="8" yMin="0" xMax="625" yMax="1813">
      <contour>
        <pt x="172" y="0" on="1"/>
        <pt x="172" y="1409" on="1"/>
        <pt x="625" y="1409" on="1"/>
        <pt x="625" y="0" on="1"/>
      </contour>
      <contour>
        <pt x="336" y="1540" on="1"/>
        <pt x="8" y="1805" on="1"/>
        <pt x="12" y="1813" on="1"/>
        <pt x="407" y="1813" on="1"/>
        <pt x="596" y="1540" on="1"/>
      </contour>
    </TTGlyph>
    <TTGlyph name="Imacron" xMin="75" yMin="0" xMax="723" yMax="1772">
      <contour>
        <pt x="625" y="0" on="1"/>
        <pt x="172" y="0" on="1"/>
        <pt x="172" y="1409" on="1"/>
        <pt x="625" y="1409" on="1"/>
      </contour>
      <contour>
        <pt x="723" y="1567" on="1"/>
        <pt x="75" y="1567" on="1"/>
        <pt x="75" y="1772" on="1"/>
        <pt x="723" y="1772" on="1"/>
      </contour>
    </TTGlyph>
    <TTGlyph name="Iogonek" xMin="172" yMin="-432" xMax="788" yMax="1409">
      <contour>
        <pt x="625" y="0" on="1"/>
        <pt x="612" y="0" on="1"/>
        <pt x="601" y="-25" on="0"/>
        <pt x="579" y="-102" on="0"/>
        <pt x="579" y="-141" on="1"/>
        <pt x="579" y="-161" on="0"/>
        <pt x="592" y="-199" on="0"/>
        <pt x="620" y="-228" on="0"/>
        <pt x="667" y="-246" on="0"/>
        <pt x="702" y="-246" on="1"/>
        <pt x="788" y="-246" on="1"/>
        <pt x="788" y="-401" on="1"/>
        <pt x="695" y="-432" on="0"/>
        <pt x="592" y="-432" on="1"/>
        <pt x="542" y="-432" on="0"/>
        <pt x="449" y="-406" on="0"/>
        <pt x="377" y="-351" on="0"/>
        <pt x="333" y="-262" on="0"/>
        <pt x="333" y="-199" on="1"/>
        <pt x="333" y="-134" on="0"/>
        <pt x="384" y="-39" on="0"/>
        <pt x="415" y="0" on="1"/>
        <pt x="172" y="0" on="1"/>
        <pt x="172" y="1409" on="1"/>
        <pt x="625" y="1409" on="1"/>
      </contour>
    </TTGlyph>
    <TTGlyph name="Itilde" xMin="-56" yMin="0" xMax="854" yMax="1813">
      <contour>
        <pt x="625" y="0" on="1"/>
        <pt x="172" y="0" on="1"/>
        <pt x="172" y="1409" on="1"/>
        <pt x="625" y="1409" on="1"/>
      </contour>
      <contour>
        <pt x="854" y="1813" on="1"/>
        <pt x="854" y="1757" on="0"/>
        <pt x="813" y="1652" on="0"/>
        <pt x="737" y="1570" on="0"/>
        <pt x="631" y="1520" on="0"/>
        <pt x="567" y="1520" on="1"/>
        <pt x="518" y="1520" on="0"/>
        <pt x="426" y="1546" on="0"/>
        <pt x="338" y="1576" on="0"/>
        <pt x="254" y="1602" on="0"/>
        <pt x="213" y="1602" on="1"/>
        <pt x="174" y="1602" on="0"/>
        <pt x="121" y="1555" on="0"/>
        <pt x="110" y="1520" on="1"/>
        <pt x="-56" y="1520" on="1"/>
        <pt x="-56" y="1575" on="0"/>
        <pt x="-15" y="1680" on="0"/>
        <pt x="61" y="1763" on="0"/>
        <pt x="166" y="1813" on="0"/>
        <pt x="231" y="1813" on="1"/>
        <pt x="280" y="1813" on="0"/>
        <pt x="372" y="1787" on="0"/>
        <pt x="460" y="1757" on="0"/>
        <pt x="544" y="1731" on="0"/>
        <pt x="585" y="1731" on="1"/>
        <pt x="624" y="1731" on="0"/>
        <pt x="677" y="1778" on="0"/>
        <pt x="688" y="1813" on="1"/>
      </contour>
    </TTGlyph>
    <TTGlyph name="J" xMin="47" yMin="-25" xMax="1214" yMax="1409">
      <contour>
        <pt x="1214" y="489" on="1"/>
        <pt x="1214" y="354" on="0"/>
        <pt x="1134" y="160" on="0"/>
        <pt x="984" y="34" on="0"/>
        <pt x="767" y="-25" on="0"/>
        <pt x="631" y="-25" on="1"/>
        <pt x="494" y="-25" on="0"/>
        <pt x="277" y="34" on="0"/>
        <pt x="127" y="160" on="0"/>
        <pt x="47" y="354" on="0"/>
        <pt x="47" y="489" on="1"/>
        <pt x="47" y="508" on="1"/>
        <pt x="471" y="508" on="1"/>
        <pt x="471" y="492" on="1"/>
        <pt x="471" y="393" on="0"/>
        <pt x="544" y="313" on="0"/>
        <pt x="616" y="313" on="1"/>
        <pt x="689" y="313" on="0"/>
        <pt x="762" y="393" on="0"/>
        <pt x="762" y="492" on="1"/>
        <pt x="762" y="1409" on="1"/>
        <pt x="1214" y="1409" on="1"/>
      </contour>
    </TTGlyph>
    <TTGlyph name="Jcircumflex" xMin="47" yMin="-25" xMax="1382" yMax="1813">
      <contour>
        <pt x="1214" y="489" on="1"/>
        <pt x="1214" y="354" on="0"/>
        <pt x="1134" y="160" on="0"/>
        <pt x="984" y="34" on="0"/>
        <pt x="767" y="-25" on="0"/>
        <pt x="631" y="-25" on="1"/>
        <pt x="494" y="-25" on="0"/>
        <pt x="277" y="34" on="0"/>
        <pt x="127" y="160" on="0"/>
        <pt x="47" y="354" on="0"/>
        <pt x="47" y="489" on="1"/>
        <pt x="47" y="508" on="1"/>
        <pt x="471" y="508" on="1"/>
        <pt x="471" y="492" on="1"/>
        <pt x="471" y="393" on="0"/>
        <pt x="544" y="313" on="0"/>
        <pt x="616" y="313" on="1"/>
        <pt x="689" y="313" on="0"/>
        <pt x="762" y="393" on="0"/>
        <pt x="762" y="492" on="1"/>
        <pt x="762" y="1409" on="1"/>
        <pt x="1214" y="1409" on="1"/>
      </contour>
      <contour>
        <pt x="1382" y="1516" on="1"/>
        <pt x="1116" y="1516" on="1"/>
        <pt x="964" y="1674" on="1"/>
        <pt x="812" y="1516" on="1"/>
        <pt x="550" y="1516" on="1"/>
        <pt x="835" y="1813" on="1"/>
        <pt x="1097" y="1813" on="1"/>
      </contour>
    </TTGlyph>
    <TTGlyph name="K" xMin="152" yMin="0" xMax="1677" yMax="1409">
      <contour>
        <pt x="604" y="807" on="1"/>
        <pt x="1106" y="1409" on="1"/>
        <pt x="1667" y="1409" on="1"/>
        <pt x="1161" y="829" on="1"/>
        <pt x="1677" y="0" on="1"/>
        <pt x="1143" y="0" on="1"/>
        <pt x="850" y="516" on="1"/>
        <pt x="604" y="315" on="1"/>
        <pt x="604" y="0" on="1"/>
        <pt x="152" y="0" on="1"/>
        <pt x="152" y="1409" on="1"/>
        <pt x="604" y="1409" on="1"/>
      </contour>
    </TTGlyph>
    <TTGlyph name="Kcommaaccent" xMin="152" yMin="-547" xMax="1677" yMax="1409">
      <contour>
        <pt x="985" y="-344" on="1"/>
        <pt x="874" y="-547" on="1"/>
        <pt x="737" y="-547" on="1"/>
        <pt x="821" y="-358" on="1"/>
        <pt x="721" y="-358" on="1"/>
        <pt x="721" y="-121" on="1"/>
        <pt x="985" y="-121" on="1"/>
      </contour>
      <contour>
        <pt x="604" y="807" on="1"/>
        <pt x="1106" y="1409" on="1"/>
        <pt x="1667" y="1409" on="1"/>
        <pt x="1161" y="829" on="1"/>
        <pt x="1677" y="0" on="1"/>
        <pt x="1143" y="0" on="1"/>
        <pt x="850" y="516" on="1"/>
        <pt x="604" y="315" on="1"/>
        <pt x="604" y="0" on="1"/>
        <pt x="152" y="0" on="1"/>
        <pt x="152" y="1409" on="1"/>
        <pt x="604" y="1409" on="1"/>
      </contour>
    </TTGlyph>
    <TTGlyph name="L" xMin="152" yMin="0" xMax="1327" yMax="1409">
      <contour>
        <pt x="152" y="0" on="1"/>
        <pt x="152" y="1409" on="1"/>
        <pt x="604" y="1409" on="1"/>
        <pt x="604" y="360" on="1"/>
        <pt x="1327" y="360" on="1"/>
        <pt x="1327" y="0" on="1"/>
      </contour>
    </TTGlyph>
    <TTGlyph name="Lacute" xMin="152" yMin="0" xMax="1327" yMax="1812">
      <contour>
        <pt x="440" y="1540" on="1"/>
        <pt x="180" y="1540" on="1"/>
        <pt x="369" y="1812" on="1"/>
        <pt x="764" y="1812" on="1"/>
        <pt x="768" y="1804" on="1"/>
      </contour>
      <contour>
        <pt x="152" y="0" on="1"/>
        <pt x="152" y="1409" on="1"/>
        <pt x="604" y="1409" on="1"/>
        <pt x="604" y="360" on="1"/>
        <pt x="1327" y="360" on="1"/>
        <pt x="1327" y="0" on="1"/>
      </contour>
    </TTGlyph>
    <TTGlyph name="Lcaron" xMin="152" yMin="0" xMax="1327" yMax="1409">
      <contour>
        <pt x="1280" y="1186" on="1"/>
        <pt x="1169" y="983" on="1"/>
        <pt x="1032" y="983" on="1"/>
        <pt x="1116" y="1171" on="1"/>
        <pt x="1016" y="1171" on="1"/>
        <pt x="1016" y="1409" on="1"/>
        <pt x="1280" y="1409" on="1"/>
      </contour>
      <contour>
        <pt x="152" y="0" on="1"/>
        <pt x="152" y="1409" on="1"/>
        <pt x="604" y="1409" on="1"/>
        <pt x="604" y="360" on="1"/>
        <pt x="1327" y="360" on="1"/>
        <pt x="1327" y="0" on="1"/>
      </contour>
    </TTGlyph>
    <TTGlyph name="Lcommaaccent" xMin="152" yMin="-547" xMax="1327" yMax="1409">
      <contour>
        <pt x="815" y="-344" on="1"/>
        <pt x="705" y="-547" on="1"/>
        <pt x="567" y="-547" on="1"/>
        <pt x="651" y="-358" on="1"/>
        <pt x="551" y="-358" on="1"/>
        <pt x="551" y="-121" on="1"/>
        <pt x="815" y="-121" on="1"/>
      </contour>
      <contour>
        <pt x="152" y="0" on="1"/>
        <pt x="152" y="1409" on="1"/>
        <pt x="604" y="1409" on="1"/>
        <pt x="604" y="360" on="1"/>
        <pt x="1327" y="360" on="1"/>
        <pt x="1327" y="0" on="1"/>
      </contour>
    </TTGlyph>
    <TTGlyph name="Ldot" xMin="152" yMin="0" xMax="1327" yMax="1409">
      <contour>
        <pt x="1188" y="702" on="1"/>
        <pt x="795" y="702" on="1"/>
        <pt x="795" y="1077" on="1"/>
        <pt x="1188" y="1077" on="1"/>
      </contour>
      <contour>
        <pt x="152" y="0" on="1"/>
        <pt x="152" y="1409" on="1"/>
        <pt x="604" y="1409" on="1"/>
        <pt x="604" y="360" on="1"/>
        <pt x="1327" y="360" on="1"/>
        <pt x="1327" y="0" on="1"/>
      </contour>
    </TTGlyph>
    <TTGlyph name="Lslash" xMin="0" yMin="0" xMax="1327" yMax="1409">
      <contour>
        <pt x="604" y="948" on="1"/>
        <pt x="909" y="1139" on="1"/>
        <pt x="909" y="934" on="1"/>
        <pt x="604" y="745" on="1"/>
        <pt x="604" y="360" on="1"/>
        <pt x="1327" y="360" on="1"/>
        <pt x="1327" y="0" on="1"/>
        <pt x="152" y="0" on="1"/>
        <pt x="152" y="469" on="1"/>
        <pt x="0" y="377" on="1"/>
        <pt x="0" y="578" on="1"/>
        <pt x="152" y="672" on="1"/>
        <pt x="152" y="1409" on="1"/>
        <pt x="604" y="1409" on="1"/>
      </contour>
    </TTGlyph>
    <TTGlyph name="M" xMin="123" yMin="0" xMax="1810" yMax="1409">
      <contour>
        <pt x="1810" y="0" on="1"/>
        <pt x="1362" y="0" on="1"/>
        <pt x="1362" y="508" on="1"/>
        <pt x="1362" y="588" on="0"/>
        <pt x="1372" y="747" on="0"/>
        <pt x="1378" y="811" on="1"/>
        <pt x="1385" y="886" on="0"/>
        <pt x="1395" y="954" on="1"/>
        <pt x="1386" y="954" on="1"/>
        <pt x="1126" y="0" on="1"/>
        <pt x="772" y="0" on="1"/>
        <pt x="510" y="952" on="1"/>
        <pt x="502" y="952" on="1"/>
        <pt x="512" y="884" on="0"/>
        <pt x="520" y="810" on="1"/>
        <pt x="527" y="747" on="0"/>
        <pt x="539" y="588" on="0"/>
        <pt x="539" y="508" on="1"/>
        <pt x="539" y="0" on="1"/>
        <pt x="123" y="0" on="1"/>
        <pt x="123" y="1409" on="1"/>
        <pt x="762" y="1409" on="1"/>
        <pt x="975" y="596" on="1"/>
        <pt x="983" y="596" on="1"/>
        <pt x="1194" y="1409" on="1"/>
        <pt x="1810" y="1409" on="1"/>
      </contour>
    </TTGlyph>
    <TTGlyph name="N" xMin="152" yMin="0" xMax="1554" yMax="1409">
      <contour>
        <pt x="1554" y="0" on="1"/>
        <pt x="1159" y="0" on="1"/>
        <pt x="567" y="684" on="1"/>
        <pt x="567" y="0" on="1"/>
        <pt x="152" y="0" on="1"/>
        <pt x="152" y="1409" on="1"/>
        <pt x="547" y="1409" on="1"/>
        <pt x="1139" y="715" on="1"/>
        <pt x="1139" y="1409" on="1"/>
        <pt x="1554" y="1409" on="1"/>
      </contour>
    </TTGlyph>
    <TTGlyph name="Nacute" xMin="152" yMin="0" xMax="1554" yMax="1813">
      <contour>
        <pt x="1159" y="0" on="1"/>
        <pt x="567" y="684" on="1"/>
        <pt x="567" y="0" on="1"/>
        <pt x="152" y="0" on="1"/>
        <pt x="152" y="1409" on="1"/>
        <pt x="547" y="1409" on="1"/>
        <pt x="1139" y="715" on="1"/>
        <pt x="1139" y="1409" on="1"/>
        <pt x="1554" y="1409" on="1"/>
        <pt x="1554" y="0" on="1"/>
      </contour>
      <contour>
        <pt x="917" y="1540" on="1"/>
        <pt x="656" y="1540" on="1"/>
        <pt x="845" y="1813" on="1"/>
        <pt x="1240" y="1813" on="1"/>
        <pt x="1244" y="1805" on="1"/>
      </contour>
    </TTGlyph>
    <TTGlyph name="Ncaron" xMin="152" yMin="0" xMax="1554" yMax="1813">
      <contour>
        <pt x="1554" y="0" on="1"/>
        <pt x="1159" y="0" on="1"/>
        <pt x="567" y="684" on="1"/>
        <pt x="567" y="0" on="1"/>
        <pt x="152" y="0" on="1"/>
        <pt x="152" y="1409" on="1"/>
        <pt x="547" y="1409" on="1"/>
        <pt x="1139" y="715" on="1"/>
        <pt x="1139" y="1409" on="1"/>
        <pt x="1554" y="1409" on="1"/>
      </contour>
      <contour>
        <pt x="984" y="1516" on="1"/>
        <pt x="722" y="1516" on="1"/>
        <pt x="437" y="1813" on="1"/>
        <pt x="699" y="1813" on="1"/>
        <pt x="851" y="1655" on="1"/>
        <pt x="1003" y="1813" on="1"/>
        <pt x="1269" y="1813" on="1"/>
      </contour>
    </TTGlyph>
    <TTGlyph name="Ncommaaccent" xMin="152" yMin="-546" xMax="1554" yMax="1409">
      <contour>
        <pt x="1554" y="0" on="1"/>
        <pt x="1159" y="0" on="1"/>
        <pt x="567" y="684" on="1"/>
        <pt x="567" y="0" on="1"/>
        <pt x="152" y="0" on="1"/>
        <pt x="152" y="1409" on="1"/>
        <pt x="547" y="1409" on="1"/>
        <pt x="1139" y="715" on="1"/>
        <pt x="1139" y="1409" on="1"/>
        <pt x="1554" y="1409" on="1"/>
      </contour>
      <contour>
        <pt x="986" y="-344" on="1"/>
        <pt x="875" y="-546" on="1"/>
        <pt x="738" y="-546" on="1"/>
        <pt x="822" y="-358" on="1"/>
        <pt x="720" y="-358" on="1"/>
        <pt x="720" y="-121" on="1"/>
        <pt x="986" y="-121" on="1"/>
      </contour>
    </TTGlyph>
    <TTGlyph name="Ntilde" xMin="152" yMin="0" xMax="1554" yMax="1813">
      <contour>
        <pt x="1554" y="0" on="1"/>
        <pt x="1159" y="0" on="1"/>
        <pt x="567" y="684" on="1"/>
        <pt x="567" y="0" on="1"/>
        <pt x="152" y="0" on="1"/>
        <pt x="152" y="1409" on="1"/>
        <pt x="547" y="1409" on="1"/>
        <pt x="1139" y="715" on="1"/>
        <pt x="1139" y="1409" on="1"/>
        <pt x="1554" y="1409" on="1"/>
      </contour>
      <contour>
        <pt x="1308" y="1813" on="1"/>
        <pt x="1308" y="1757" on="0"/>
        <pt x="1267" y="1652" on="0"/>
        <pt x="1191" y="1570" on="0"/>
        <pt x="1085" y="1520" on="0"/>
        <pt x="1021" y="1520" on="1"/>
        <pt x="972" y="1520" on="0"/>
        <pt x="880" y="1546" on="0"/>
        <pt x="792" y="1576" on="0"/>
        <pt x="708" y="1602" on="0"/>
        <pt x="667" y="1602" on="1"/>
        <pt x="628" y="1602" on="0"/>
        <pt x="575" y="1555" on="0"/>
        <pt x="564" y="1520" on="1"/>
        <pt x="398" y="1520" on="1"/>
        <pt x="398" y="1575" on="0"/>
        <pt x="439" y="1680" on="0"/>
        <pt x="515" y="1763" on="0"/>
        <pt x="620" y="1813" on="0"/>
        <pt x="685" y="1813" on="1"/>
        <pt x="734" y="1813" on="0"/>
        <pt x="826" y="1787" on="0"/>
        <pt x="914" y="1757" on="0"/>
        <pt x="998" y="1731" on="0"/>
        <pt x="1039" y="1731" on="1"/>
        <pt x="1078" y="1731" on="0"/>
        <pt x="1131" y="1778" on="0"/>
        <pt x="1142" y="1813" on="1"/>
      </contour>
    </TTGlyph>
    <TTGlyph name="O" xMin="92" yMin="-25" xMax="1614" yMax="1434">
      <contour>
        <pt x="852" y="1434" on="1"/>
        <pt x="1032" y="1434" on="0"/>
        <pt x="1316" y="1341" on="0"/>
        <pt x="1511" y="1158" on="0"/>
        <pt x="1614" y="885" on="0"/>
        <pt x="1614" y="705" on="1"/>
        <pt x="1614" y="524" on="0"/>
        <pt x="1511" y="251" on="0"/>
        <pt x="1316" y="68" on="0"/>
        <pt x="1032" y="-25" on="0"/>
        <pt x="852" y="-25" on="1"/>
        <pt x="672" y="-25" on="0"/>
        <pt x="389" y="68" on="0"/>
        <pt x="194" y="251" on="0"/>
        <pt x="92" y="524" on="0"/>
        <pt x="92" y="705" on="1"/>
        <pt x="92" y="885" on="0"/>
        <pt x="194" y="1158" on="0"/>
        <pt x="389" y="1341" on="0"/>
        <pt x="672" y="1434" on="0"/>
      </contour>
      <contour>
        <pt x="852" y="1096" on="1"/>
        <pt x="777" y="1096" on="0"/>
        <pt x="666" y="1048" on="0"/>
        <pt x="592" y="962" on="0"/>
        <pt x="555" y="842" on="0"/>
        <pt x="555" y="770" on="1"/>
        <pt x="555" y="639" on="1"/>
        <pt x="555" y="567" on="0"/>
        <pt x="592" y="447" on="0"/>
        <pt x="666" y="361" on="0"/>
        <pt x="777" y="313" on="0"/>
        <pt x="852" y="313" on="1"/>
        <pt x="927" y="313" on="0"/>
        <pt x="1039" y="361" on="0"/>
        <pt x="1114" y="447" on="0"/>
        <pt x="1151" y="567" on="0"/>
        <pt x="1151" y="639" on="1"/>
        <pt x="1151" y="770" on="1"/>
        <pt x="1151" y="842" on="0"/>
        <pt x="1114" y="962" on="0"/>
        <pt x="1039" y="1048" on="0"/>
        <pt x="927" y="1096" on="0"/>
      </contour>
    </TTGlyph>
    <TTGlyph name="OE" xMin="72" yMin="-25" xMax="1993" yMax="1434">
      <contour>
        <pt x="1014" y="0" on="1"/>
        <pt x="1014" y="127" on="1"/>
        <pt x="943" y="53" on="0"/>
        <pt x="752" y="-25" on="0"/>
        <pt x="633" y="-25" on="1"/>
        <pt x="498" y="-25" on="0"/>
        <pt x="289" y="73" on="0"/>
        <pt x="146" y="261" on="0"/>
        <pt x="72" y="532" on="0"/>
        <pt x="72" y="705" on="1"/>
        <pt x="72" y="877" on="0"/>
        <pt x="146" y="1148" on="0"/>
        <pt x="289" y="1336" on="0"/>
        <pt x="498" y="1434" on="0"/>
        <pt x="633" y="1434" on="1"/>
        <pt x="752" y="1434" on="0"/>
        <pt x="943" y="1355" on="0"/>
        <pt x="1014" y="1280" on="1"/>
        <pt x="1014" y="1409" on="1"/>
        <pt x="1978" y="1409" on="1"/>
        <pt x="1978" y="1071" on="1"/>
        <pt x="1411" y="1071" on="1"/>
        <pt x="1411" y="877" on="1"/>
        <pt x="1868" y="877" on="1"/>
        <pt x="1868" y="553" on="1"/>
        <pt x="1411" y="553" on="1"/>
        <pt x="1411" y="338" on="1"/>
        <pt x="1993" y="338" on="1"/>
        <pt x="1993" y="0" on="1"/>
      </contour>
      <contour>
        <pt x="1016" y="770" on="1"/>
        <pt x="1016" y="842" on="0"/>
        <pt x="984" y="962" on="0"/>
        <pt x="920" y="1048" on="0"/>
        <pt x="823" y="1096" on="0"/>
        <pt x="758" y="1096" on="1"/>
        <pt x="693" y="1096" on="0"/>
        <pt x="596" y="1048" on="0"/>
        <pt x="532" y="962" on="0"/>
        <pt x="500" y="842" on="0"/>
        <pt x="500" y="770" on="1"/>
        <pt x="500" y="639" on="1"/>
        <pt x="500" y="567" on="0"/>
        <pt x="532" y="447" on="0"/>
        <pt x="596" y="361" on="0"/>
        <pt x="693" y="313" on="0"/>
        <pt x="758" y="313" on="1"/>
        <pt x="823" y="313" on="0"/>
        <pt x="920" y="361" on="0"/>
        <pt x="984" y="447" on="0"/>
        <pt x="1016" y="567" on="0"/>
        <pt x="1016" y="639" on="1"/>
      </contour>
    </TTGlyph>
    <TTGlyph name="Oacute" xMin="92" yMin="-25" xMax="1614" yMax="1813">
      <contour>
        <pt x="852" y="1434" on="1"/>
        <pt x="1032" y="1434" on="0"/>
        <pt x="1316" y="1341" on="0"/>
        <pt x="1511" y="1158" on="0"/>
        <pt x="1614" y="885" on="0"/>
        <pt x="1614" y="705" on="1"/>
        <pt x="1614" y="524" on="0"/>
        <pt x="1511" y="251" on="0"/>
        <pt x="1316" y="68" on="0"/>
        <pt x="1032" y="-25" on="0"/>
        <pt x="852" y="-25" on="1"/>
        <pt x="672" y="-25" on="0"/>
        <pt x="389" y="68" on="0"/>
        <pt x="194" y="251" on="0"/>
        <pt x="92" y="524" on="0"/>
        <pt x="92" y="705" on="1"/>
        <pt x="92" y="885" on="0"/>
        <pt x="194" y="1158" on="0"/>
        <pt x="389" y="1341" on="0"/>
        <pt x="672" y="1434" on="0"/>
      </contour>
      <contour>
        <pt x="852" y="1096" on="1"/>
        <pt x="777" y="1096" on="0"/>
        <pt x="666" y="1048" on="0"/>
        <pt x="592" y="962" on="0"/>
        <pt x="555" y="842" on="0"/>
        <pt x="555" y="770" on="1"/>
        <pt x="555" y="639" on="1"/>
        <pt x="555" y="567" on="0"/>
        <pt x="592" y="447" on="0"/>
        <pt x="666" y="361" on="0"/>
        <pt x="777" y="313" on="0"/>
        <pt x="852" y="313" on="1"/>
        <pt x="927" y="313" on="0"/>
        <pt x="1039" y="361" on="0"/>
        <pt x="1114" y="447" on="0"/>
        <pt x="1151" y="567" on="0"/>
        <pt x="1151" y="639" on="1"/>
        <pt x="1151" y="770" on="1"/>
        <pt x="1151" y="842" on="0"/>
        <pt x="1114" y="962" on="0"/>
        <pt x="1039" y="1048" on="0"/>
        <pt x="927" y="1096" on="0"/>
      </contour>
      <contour>
        <pt x="917" y="1540" on="1"/>
        <pt x="656" y="1540" on="1"/>
        <pt x="845" y="1813" on="1"/>
        <pt x="1240" y="1813" on="1"/>
        <pt x="1244" y="1805" on="1"/>
      </contour>
    </TTGlyph>
    <TTGlyph name="Obreve" xMin="92" yMin="-25" xMax="1614" yMax="1813">
      <contour>
        <pt x="852" y="1434" on="1"/>
        <pt x="1032" y="1434" on="0"/>
        <pt x="1316" y="1341" on="0"/>
        <pt x="1511" y="1158" on="0"/>
        <pt x="1614" y="885" on="0"/>
        <pt x="1614" y="705" on="1"/>
        <pt x="1614" y="524" on="0"/>
        <pt x="1511" y="251" on="0"/>
        <pt x="1316" y="68" on="0"/>
        <pt x="1032" y="-25" on="0"/>
        <pt x="852" y="-25" on="1"/>
        <pt x="672" y="-25" on="0"/>
        <pt x="389" y="68" on="0"/>
        <pt x="194" y="251" on="0"/>
        <pt x="92" y="524" on="0"/>
        <pt x="92" y="705" on="1"/>
        <pt x="92" y="885" on="0"/>
        <pt x="194" y="1158" on="0"/>
        <pt x="389" y="1341" on="0"/>
        <pt x="672" y="1434" on="0"/>
      </contour>
      <contour>
        <pt x="852" y="1096" on="1"/>
        <pt x="777" y="1096" on="0"/>
        <pt x="666" y="1048" on="0"/>
        <pt x="592" y="962" on="0"/>
        <pt x="555" y="842" on="0"/>
        <pt x="555" y="770" on="1"/>
        <pt x="555" y="639" on="1"/>
        <pt x="555" y="567" on="0"/>
        <pt x="592" y="447" on="0"/>
        <pt x="666" y="361" on="0"/>
        <pt x="777" y="313" on="0"/>
        <pt x="852" y="313" on="1"/>
        <pt x="927" y="313" on="0"/>
        <pt x="1039" y="361" on="0"/>
        <pt x="1114" y="447" on="0"/>
        <pt x="1151" y="567" on="0"/>
        <pt x="1151" y="639" on="1"/>
        <pt x="1151" y="770" on="1"/>
        <pt x="1151" y="842" on="0"/>
        <pt x="1114" y="962" on="0"/>
        <pt x="1039" y="1048" on="0"/>
        <pt x="927" y="1096" on="0"/>
      </contour>
      <contour>
        <pt x="1231" y="1813" on="1"/>
        <pt x="1231" y="1762" on="0"/>
        <pt x="1178" y="1657" on="0"/>
        <pt x="1080" y="1572" on="0"/>
        <pt x="939" y="1518" on="0"/>
        <pt x="852" y="1518" on="1"/>
        <pt x="763" y="1518" on="0"/>
        <pt x="624" y="1572" on="0"/>
        <pt x="526" y="1657" on="0"/>
        <pt x="475" y="1762" on="0"/>
        <pt x="475" y="1813" on="1"/>
        <pt x="672" y="1813" on="1"/>
        <pt x="675" y="1797" on="0"/>
        <pt x="704" y="1761" on="0"/>
        <pt x="751" y="1730" on="0"/>
        <pt x="814" y="1710" on="0"/>
        <pt x="852" y="1710" on="1"/>
        <pt x="890" y="1710" on="0"/>
        <pt x="955" y="1730" on="0"/>
        <pt x="1003" y="1761" on="0"/>
        <pt x="1033" y="1797" on="0"/>
        <pt x="1036" y="1813" on="1"/>
      </contour>
    </TTGlyph>
    <TTGlyph name="Ocircumflex" xMin="92" yMin="-25" xMax="1614" yMax="1813">
      <contour>
        <pt x="852" y="1434" on="1"/>
        <pt x="1032" y="1434" on="0"/>
        <pt x="1316" y="1341" on="0"/>
        <pt x="1511" y="1158" on="0"/>
        <pt x="1614" y="885" on="0"/>
        <pt x="1614" y="705" on="1"/>
        <pt x="1614" y="524" on="0"/>
        <pt x="1511" y="251" on="0"/>
        <pt x="1316" y="68" on="0"/>
        <pt x="1032" y="-25" on="0"/>
        <pt x="852" y="-25" on="1"/>
        <pt x="672" y="-25" on="0"/>
        <pt x="389" y="68" on="0"/>
        <pt x="194" y="251" on="0"/>
        <pt x="92" y="524" on="0"/>
        <pt x="92" y="705" on="1"/>
        <pt x="92" y="885" on="0"/>
        <pt x="194" y="1158" on="0"/>
        <pt x="389" y="1341" on="0"/>
        <pt x="672" y="1434" on="0"/>
      </contour>
      <contour>
        <pt x="852" y="1096" on="1"/>
        <pt x="777" y="1096" on="0"/>
        <pt x="666" y="1048" on="0"/>
        <pt x="592" y="962" on="0"/>
        <pt x="555" y="842" on="0"/>
        <pt x="555" y="770" on="1"/>
        <pt x="555" y="639" on="1"/>
        <pt x="555" y="567" on="0"/>
        <pt x="592" y="447" on="0"/>
        <pt x="666" y="361" on="0"/>
        <pt x="777" y="313" on="0"/>
        <pt x="852" y="313" on="1"/>
        <pt x="927" y="313" on="0"/>
        <pt x="1039" y="361" on="0"/>
        <pt x="1114" y="447" on="0"/>
        <pt x="1151" y="567" on="0"/>
        <pt x="1151" y="639" on="1"/>
        <pt x="1151" y="770" on="1"/>
        <pt x="1151" y="842" on="0"/>
        <pt x="1114" y="962" on="0"/>
        <pt x="1039" y="1048" on="0"/>
        <pt x="927" y="1096" on="0"/>
      </contour>
      <contour>
        <pt x="1269" y="1516" on="1"/>
        <pt x="1003" y="1516" on="1"/>
        <pt x="851" y="1674" on="1"/>
        <pt x="699" y="1516" on="1"/>
        <pt x="437" y="1516" on="1"/>
        <pt x="722" y="1813" on="1"/>
        <pt x="984" y="1813" on="1"/>
      </contour>
    </TTGlyph>
    <TTGlyph name="Odieresis" xMin="92" yMin="-25" xMax="1614" yMax="1813">
      <contour>
        <pt x="852" y="1434" on="1"/>
        <pt x="1032" y="1434" on="0"/>
        <pt x="1316" y="1341" on="0"/>
        <pt x="1511" y="1158" on="0"/>
        <pt x="1614" y="885" on="0"/>
        <pt x="1614" y="705" on="1"/>
        <pt x="1614" y="524" on="0"/>
        <pt x="1511" y="251" on="0"/>
        <pt x="1316" y="68" on="0"/>
        <pt x="1032" y="-25" on="0"/>
        <pt x="852" y="-25" on="1"/>
        <pt x="672" y="-25" on="0"/>
        <pt x="389" y="68" on="0"/>
        <pt x="194" y="251" on="0"/>
        <pt x="92" y="524" on="0"/>
        <pt x="92" y="705" on="1"/>
        <pt x="92" y="885" on="0"/>
        <pt x="194" y="1158" on="0"/>
        <pt x="389" y="1341" on="0"/>
        <pt x="672" y="1434" on="0"/>
      </contour>
      <contour>
        <pt x="852" y="1096" on="1"/>
        <pt x="777" y="1096" on="0"/>
        <pt x="666" y="1048" on="0"/>
        <pt x="592" y="962" on="0"/>
        <pt x="555" y="842" on="0"/>
        <pt x="555" y="770" on="1"/>
        <pt x="555" y="639" on="1"/>
        <pt x="555" y="567" on="0"/>
        <pt x="592" y="447" on="0"/>
        <pt x="666" y="361" on="0"/>
        <pt x="777" y="313" on="0"/>
        <pt x="852" y="313" on="1"/>
        <pt x="927" y="313" on="0"/>
        <pt x="1039" y="361" on="0"/>
        <pt x="1114" y="447" on="0"/>
        <pt x="1151" y="567" on="0"/>
        <pt x="1151" y="639" on="1"/>
        <pt x="1151" y="770" on="1"/>
        <pt x="1151" y="842" on="0"/>
        <pt x="1114" y="962" on="0"/>
        <pt x="1039" y="1048" on="0"/>
        <pt x="927" y="1096" on="0"/>
      </contour>
      <contour>
        <pt x="1234" y="1528" on="1"/>
        <pt x="923" y="1528" on="1"/>
        <pt x="923" y="1813" on="1"/>
        <pt x="1234" y="1813" on="1"/>
      </contour>
      <contour>
        <pt x="783" y="1528" on="1"/>
        <pt x="472" y="1528" on="1"/>
        <pt x="472" y="1813" on="1"/>
        <pt x="783" y="1813" on="1"/>
      </contour>
    </TTGlyph>
    <TTGlyph name="Ograve" xMin="92" yMin="-25" xMax="1614" yMax="1813">
      <contour>
        <pt x="852" y="1434" on="1"/>
        <pt x="1032" y="1434" on="0"/>
        <pt x="1316" y="1341" on="0"/>
        <pt x="1511" y="1158" on="0"/>
        <pt x="1614" y="885" on="0"/>
        <pt x="1614" y="705" on="1"/>
        <pt x="1614" y="524" on="0"/>
        <pt x="1511" y="251" on="0"/>
        <pt x="1316" y="68" on="0"/>
        <pt x="1032" y="-25" on="0"/>
        <pt x="852" y="-25" on="1"/>
        <pt x="672" y="-25" on="0"/>
        <pt x="389" y="68" on="0"/>
        <pt x="194" y="251" on="0"/>
        <pt x="92" y="524" on="0"/>
        <pt x="92" y="705" on="1"/>
        <pt x="92" y="885" on="0"/>
        <pt x="194" y="1158" on="0"/>
        <pt x="389" y="1341" on="0"/>
        <pt x="672" y="1434" on="0"/>
      </contour>
      <contour>
        <pt x="852" y="1096" on="1"/>
        <pt x="777" y="1096" on="0"/>
        <pt x="666" y="1048" on="0"/>
        <pt x="592" y="962" on="0"/>
        <pt x="555" y="842" on="0"/>
        <pt x="555" y="770" on="1"/>
        <pt x="555" y="639" on="1"/>
        <pt x="555" y="567" on="0"/>
        <pt x="592" y="447" on="0"/>
        <pt x="666" y="361" on="0"/>
        <pt x="777" y="313" on="0"/>
        <pt x="852" y="313" on="1"/>
        <pt x="927" y="313" on="0"/>
        <pt x="1039" y="361" on="0"/>
        <pt x="1114" y="447" on="0"/>
        <pt x="1151" y="567" on="0"/>
        <pt x="1151" y="639" on="1"/>
        <pt x="1151" y="770" on="1"/>
        <pt x="1151" y="842" on="0"/>
        <pt x="1114" y="962" on="0"/>
        <pt x="1039" y="1048" on="0"/>
        <pt x="927" y="1096" on="0"/>
      </contour>
      <contour>
        <pt x="790" y="1540" on="1"/>
        <pt x="462" y="1805" on="1"/>
        <pt x="466" y="1813" on="1"/>
        <pt x="861" y="1813" on="1"/>
        <pt x="1050" y="1540" on="1"/>
      </contour>
    </TTGlyph>
    <TTGlyph name="Ohungarumlaut" xMin="92" yMin="-25" xMax="1614" yMax="1815">
      <contour>
        <pt x="852" y="1434" on="1"/>
        <pt x="1032" y="1434" on="0"/>
        <pt x="1316" y="1341" on="0"/>
        <pt x="1511" y="1158" on="0"/>
        <pt x="1614" y="885" on="0"/>
        <pt x="1614" y="705" on="1"/>
        <pt x="1614" y="524" on="0"/>
        <pt x="1511" y="251" on="0"/>
        <pt x="1316" y="68" on="0"/>
        <pt x="1032" y="-25" on="0"/>
        <pt x="852" y="-25" on="1"/>
        <pt x="672" y="-25" on="0"/>
        <pt x="389" y="68" on="0"/>
        <pt x="194" y="251" on="0"/>
        <pt x="92" y="524" on="0"/>
        <pt x="92" y="705" on="1"/>
        <pt x="92" y="885" on="0"/>
        <pt x="194" y="1158" on="0"/>
        <pt x="389" y="1341" on="0"/>
        <pt x="672" y="1434" on="0"/>
      </contour>
      <contour>
        <pt x="852" y="1096" on="1"/>
        <pt x="777" y="1096" on="0"/>
        <pt x="666" y="1048" on="0"/>
        <pt x="592" y="962" on="0"/>
        <pt x="555" y="842" on="0"/>
        <pt x="555" y="770" on="1"/>
        <pt x="555" y="639" on="1"/>
        <pt x="555" y="567" on="0"/>
        <pt x="592" y="447" on="0"/>
        <pt x="666" y="361" on="0"/>
        <pt x="777" y="313" on="0"/>
        <pt x="852" y="313" on="1"/>
        <pt x="927" y="313" on="0"/>
        <pt x="1039" y="361" on="0"/>
        <pt x="1114" y="447" on="0"/>
        <pt x="1151" y="567" on="0"/>
        <pt x="1151" y="639" on="1"/>
        <pt x="1151" y="770" on="1"/>
        <pt x="1151" y="842" on="0"/>
        <pt x="1114" y="962" on="0"/>
        <pt x="1039" y="1048" on="0"/>
        <pt x="927" y="1096" on="0"/>
      </contour>
      <contour>
        <pt x="1028" y="1807" on="1"/>
        <pt x="743" y="1540" on="1"/>
        <pt x="503" y="1540" on="1"/>
        <pt x="659" y="1815" on="1"/>
        <pt x="1024" y="1815" on="1"/>
      </contour>
      <contour>
        <pt x="1460" y="1807" on="1"/>
        <pt x="1175" y="1540" on="1"/>
        <pt x="936" y="1540" on="1"/>
        <pt x="1091" y="1815" on="1"/>
        <pt x="1456" y="1815" on="1"/>
      </contour>
    </TTGlyph>
    <TTGlyph name="Omacron" xMin="92" yMin="-25" xMax="1614" yMax="1772">
      <contour>
        <pt x="852" y="1434" on="1"/>
        <pt x="1032" y="1434" on="0"/>
        <pt x="1316" y="1341" on="0"/>
        <pt x="1511" y="1158" on="0"/>
        <pt x="1614" y="885" on="0"/>
        <pt x="1614" y="705" on="1"/>
        <pt x="1614" y="524" on="0"/>
        <pt x="1511" y="251" on="0"/>
        <pt x="1316" y="68" on="0"/>
        <pt x="1032" y="-25" on="0"/>
        <pt x="852" y="-25" on="1"/>
        <pt x="672" y="-25" on="0"/>
        <pt x="389" y="68" on="0"/>
        <pt x="194" y="251" on="0"/>
        <pt x="92" y="524" on="0"/>
        <pt x="92" y="705" on="1"/>
        <pt x="92" y="885" on="0"/>
        <pt x="194" y="1158" on="0"/>
        <pt x="389" y="1341" on="0"/>
        <pt x="672" y="1434" on="0"/>
      </contour>
      <contour>
        <pt x="852" y="1096" on="1"/>
        <pt x="777" y="1096" on="0"/>
        <pt x="666" y="1048" on="0"/>
        <pt x="592" y="962" on="0"/>
        <pt x="555" y="842" on="0"/>
        <pt x="555" y="770" on="1"/>
        <pt x="555" y="639" on="1"/>
        <pt x="555" y="567" on="0"/>
        <pt x="592" y="447" on="0"/>
        <pt x="666" y="361" on="0"/>
        <pt x="777" y="313" on="0"/>
        <pt x="852" y="313" on="1"/>
        <pt x="927" y="313" on="0"/>
        <pt x="1039" y="361" on="0"/>
        <pt x="1114" y="447" on="0"/>
        <pt x="1151" y="567" on="0"/>
        <pt x="1151" y="639" on="1"/>
        <pt x="1151" y="770" on="1"/>
        <pt x="1151" y="842" on="0"/>
        <pt x="1114" y="962" on="0"/>
        <pt x="1039" y="1048" on="0"/>
        <pt x="927" y="1096" on="0"/>
      </contour>
      <contour>
        <pt x="1177" y="1567" on="1"/>
        <pt x="529" y="1567" on="1"/>
        <pt x="529" y="1772" on="1"/>
        <pt x="1177" y="1772" on="1"/>
      </contour>
    </TTGlyph>
    <TTGlyph name="Omega" xMin="64" yMin="0" xMax="1687" yMax="1434">
      <contour>
        <pt x="875" y="1434" on="1"/>
        <pt x="1052" y="1434" on="0"/>
        <pt x="1334" y="1344" on="0"/>
        <pt x="1532" y="1177" on="0"/>
        <pt x="1637" y="939" on="0"/>
        <pt x="1637" y="791" on="1"/>
        <pt x="1637" y="713" on="0"/>
        <pt x="1604" y="574" on="0"/>
        <pt x="1546" y="450" on="0"/>
        <pt x="1466" y="344" on="0"/>
        <pt x="1418" y="299" on="1"/>
        <pt x="1664" y="340" on="1"/>
        <pt x="1687" y="340" on="1"/>
        <pt x="1687" y="0" on="1"/>
        <pt x="1000" y="0" on="1"/>
        <pt x="1000" y="301" on="1"/>
        <pt x="1088" y="335" on="0"/>
        <pt x="1175" y="495" on="0"/>
        <pt x="1175" y="606" on="1"/>
        <pt x="1175" y="770" on="1"/>
        <pt x="1175" y="842" on="0"/>
        <pt x="1137" y="962" on="0"/>
        <pt x="1062" y="1048" on="0"/>
        <pt x="950" y="1096" on="0"/>
        <pt x="875" y="1096" on="1"/>
        <pt x="801" y="1096" on="0"/>
        <pt x="690" y="1048" on="0"/>
        <pt x="616" y="962" on="0"/>
        <pt x="579" y="842" on="0"/>
        <pt x="579" y="770" on="1"/>
        <pt x="579" y="606" on="1"/>
        <pt x="579" y="495" on="0"/>
        <pt x="663" y="336" on="0"/>
        <pt x="751" y="301" on="1"/>
        <pt x="751" y="0" on="1"/>
        <pt x="64" y="0" on="1"/>
        <pt x="64" y="340" on="1"/>
        <pt x="87" y="340" on="1"/>
        <pt x="331" y="299" on="1"/>
        <pt x="284" y="344" on="0"/>
        <pt x="205" y="450" on="0"/>
        <pt x="148" y="574" on="0"/>
        <pt x="116" y="713" on="0"/>
        <pt x="116" y="791" on="1"/>
        <pt x="116" y="939" on="0"/>
        <pt x="221" y="1177" on="0"/>
        <pt x="417" y="1344" on="0"/>
        <pt x="698" y="1434" on="0"/>
      </contour>
    </TTGlyph>
    <TTGlyph name="Oslash" xMin="92" yMin="-74" xMax="1614" yMax="1485">
      <contour>
        <pt x="1407" y="1253" on="1"/>
        <pt x="1509" y="1162" on="0"/>
        <pt x="1614" y="888" on="0"/>
        <pt x="1614" y="705" on="1"/>
        <pt x="1614" y="524" on="0"/>
        <pt x="1511" y="251" on="0"/>
        <pt x="1316" y="68" on="0"/>
        <pt x="1032" y="-25" on="0"/>
        <pt x="852" y="-25" on="1"/>
        <pt x="730" y="-25" on="0"/>
        <pt x="523" y="15" on="0"/>
        <pt x="438" y="57" on="1"/>
        <pt x="332" y="-74" on="1"/>
        <pt x="111" y="-74" on="1"/>
        <pt x="295" y="156" on="1"/>
        <pt x="196" y="247" on="0"/>
        <pt x="92" y="521" on="0"/>
        <pt x="92" y="705" on="1"/>
        <pt x="92" y="885" on="0"/>
        <pt x="194" y="1158" on="0"/>
        <pt x="389" y="1341" on="0"/>
        <pt x="672" y="1434" on="0"/>
        <pt x="852" y="1434" on="1"/>
        <pt x="974" y="1434" on="0"/>
        <pt x="1179" y="1392" on="0"/>
        <pt x="1266" y="1350" on="1"/>
        <pt x="1374" y="1485" on="1"/>
        <pt x="1595" y="1485" on="1"/>
      </contour>
      <contour>
        <pt x="682" y="358" on="1"/>
        <pt x="716" y="337" on="0"/>
        <pt x="799" y="313" on="0"/>
        <pt x="852" y="313" on="1"/>
        <pt x="927" y="313" on="0"/>
        <pt x="1039" y="361" on="0"/>
        <pt x="1114" y="447" on="0"/>
        <pt x="1151" y="567" on="0"/>
        <pt x="1151" y="639" on="1"/>
        <pt x="1151" y="770" on="1"/>
        <pt x="1151" y="846" on="0"/>
        <pt x="1128" y="909" on="1"/>
      </contour>
      <contour>
        <pt x="852" y="1096" on="1"/>
        <pt x="777" y="1096" on="0"/>
        <pt x="666" y="1048" on="0"/>
        <pt x="592" y="962" on="0"/>
        <pt x="555" y="842" on="0"/>
        <pt x="555" y="770" on="1"/>
        <pt x="555" y="639" on="1"/>
        <pt x="555" y="601" on="0"/>
        <pt x="564" y="531" on="0"/>
        <pt x="575" y="500" on="1"/>
        <pt x="1022" y="1051" on="1"/>
        <pt x="988" y="1072" on="0"/>
        <pt x="903" y="1096" on="0"/>
      </contour>
    </TTGlyph>
    <TTGlyph name="Oslashacute" xMin="92" yMin="-74" xMax="1614" yMax="1813">
      <contour>
        <pt x="1407" y="1253" on="1"/>
        <pt x="1509" y="1162" on="0"/>
        <pt x="1614" y="888" on="0"/>
        <pt x="1614" y="705" on="1"/>
        <pt x="1614" y="524" on="0"/>
        <pt x="1511" y="251" on="0"/>
        <pt x="1316" y="68" on="0"/>
        <pt x="1032" y="-25" on="0"/>
        <pt x="852" y="-25" on="1"/>
        <pt x="730" y="-25" on="0"/>
        <pt x="523" y="15" on="0"/>
        <pt x="438" y="57" on="1"/>
        <pt x="332" y="-74" on="1"/>
        <pt x="111" y="-74" on="1"/>
        <pt x="295" y="156" on="1"/>
        <pt x="196" y="247" on="0"/>
        <pt x="92" y="521" on="0"/>
        <pt x="92" y="705" on="1"/>
        <pt x="92" y="885" on="0"/>
        <pt x="194" y="1158" on="0"/>
        <pt x="389" y="1341" on="0"/>
        <pt x="672" y="1434" on="0"/>
        <pt x="852" y="1434" on="1"/>
        <pt x="974" y="1434" on="0"/>
        <pt x="1179" y="1392" on="0"/>
        <pt x="1266" y="1350" on="1"/>
        <pt x="1374" y="1485" on="1"/>
        <pt x="1595" y="1485" on="1"/>
      </contour>
      <contour>
        <pt x="682" y="358" on="1"/>
        <pt x="716" y="337" on="0"/>
        <pt x="799" y="313" on="0"/>
        <pt x="852" y="313" on="1"/>
        <pt x="927" y="313" on="0"/>
        <pt x="1039" y="361" on="0"/>
        <pt x="1114" y="447" on="0"/>
        <pt x="1151" y="567" on="0"/>
        <pt x="1151" y="639" on="1"/>
        <pt x="1151" y="770" on="1"/>
        <pt x="1151" y="846" on="0"/>
        <pt x="1128" y="909" on="1"/>
      </contour>
      <contour>
        <pt x="852" y="1096" on="1"/>
        <pt x="777" y="1096" on="0"/>
        <pt x="666" y="1048" on="0"/>
        <pt x="592" y="962" on="0"/>
        <pt x="555" y="842" on="0"/>
        <pt x="555" y="770" on="1"/>
        <pt x="555" y="639" on="1"/>
        <pt x="555" y="601" on="0"/>
        <pt x="564" y="531" on="0"/>
        <pt x="575" y="500" on="1"/>
        <pt x="1022" y="1051" on="1"/>
        <pt x="988" y="1072" on="0"/>
        <pt x="903" y="1096" on="0"/>
      </contour>
      <contour>
        <pt x="917" y="1540" on="1"/>
        <pt x="656" y="1540" on="1"/>
        <pt x="845" y="1813" on="1"/>
        <pt x="1240" y="1813" on="1"/>
        <pt x="1244" y="1805" on="1"/>
      </contour>
    </TTGlyph>
    <TTGlyph name="Otilde" xMin="92" yMin="-25" xMax="1614" yMax="1813">
      <contour>
        <pt x="852" y="1434" on="1"/>
        <pt x="1032" y="1434" on="0"/>
        <pt x="1316" y="1341" on="0"/>
        <pt x="1511" y="1158" on="0"/>
        <pt x="1614" y="885" on="0"/>
        <pt x="1614" y="705" on="1"/>
        <pt x="1614" y="524" on="0"/>
        <pt x="1511" y="251" on="0"/>
        <pt x="1316" y="68" on="0"/>
        <pt x="1032" y="-25" on="0"/>
        <pt x="852" y="-25" on="1"/>
        <pt x="672" y="-25" on="0"/>
        <pt x="389" y="68" on="0"/>
        <pt x="194" y="251" on="0"/>
        <pt x="92" y="524" on="0"/>
        <pt x="92" y="705" on="1"/>
        <pt x="92" y="885" on="0"/>
        <pt x="194" y="1158" on="0"/>
        <pt x="389" y="1341" on="0"/>
        <pt x="672" y="1434" on="0"/>
      </contour>
      <contour>
        <pt x="852" y="1096" on="1"/>
        <pt x="777" y="1096" on="0"/>
        <pt x="666" y="1048" on="0"/>
        <pt x="592" y="962" on="0"/>
        <pt x="555" y="842" on="0"/>
        <pt x="555" y="770" on="1"/>
        <pt x="555" y="639" on="1"/>
        <pt x="555" y="567" on="0"/>
        <pt x="592" y="447" on="0"/>
        <pt x="666" y="361" on="0"/>
        <pt x="777" y="313" on="0"/>
        <pt x="852" y="313" on="1"/>
        <pt x="927" y="313" on="0"/>
        <pt x="1039" y="361" on="0"/>
        <pt x="1114" y="447" on="0"/>
        <pt x="1151" y="567" on="0"/>
        <pt x="1151" y="639" on="1"/>
        <pt x="1151" y="770" on="1"/>
        <pt x="1151" y="842" on="0"/>
        <pt x="1114" y="962" on="0"/>
        <pt x="1039" y="1048" on="0"/>
        <pt x="927" y="1096" on="0"/>
      </contour>
      <contour>
        <pt x="1308" y="1813" on="1"/>
        <pt x="1308" y="1757" on="0"/>
        <pt x="1267" y="1652" on="0"/>
        <pt x="1191" y="1570" on="0"/>
        <pt x="1085" y="1520" on="0"/>
        <pt x="1021" y="1520" on="1"/>
        <pt x="972" y="1520" on="0"/>
        <pt x="880" y="1546" on="0"/>
        <pt x="792" y="1576" on="0"/>
        <pt x="708" y="1602" on="0"/>
        <pt x="667" y="1602" on="1"/>
        <pt x="628" y="1602" on="0"/>
        <pt x="575" y="1555" on="0"/>
        <pt x="564" y="1520" on="1"/>
        <pt x="398" y="1520" on="1"/>
        <pt x="398" y="1575" on="0"/>
        <pt x="439" y="1680" on="0"/>
        <pt x="515" y="1763" on="0"/>
        <pt x="620" y="1813" on="0"/>
        <pt x="685" y="1813" on="1"/>
        <pt x="734" y="1813" on="0"/>
        <pt x="826" y="1787" on="0"/>
        <pt x="914" y="1757" on="0"/>
        <pt x="998" y="1731" on="0"/>
        <pt x="1039" y="1731" on="1"/>
        <pt x="1078" y="1731" on="0"/>
        <pt x="1131" y="1778" on="0"/>
        <pt x="1142" y="1813" on="1"/>
      </contour>
    </TTGlyph>
    <TTGlyph name="P" xMin="152" yMin="0" xMax="1393" yMax="1409">
      <contour>
        <pt x="942" y="1409" on="1"/>
        <pt x="1042" y="1409" on="0"/>
        <pt x="1208" y="1339" on="0"/>
        <pt x="1327" y="1215" on="0"/>
        <pt x="1393" y="1046" on="0"/>
        <pt x="1393" y="946" on="1"/>
        <pt x="1393" y="920" on="1"/>
        <pt x="1393" y="820" on="0"/>
        <pt x="1327" y="650" on="0"/>
        <pt x="1208" y="525" on="0"/>
        <pt x="1042" y="455" on="0"/>
        <pt x="942" y="455" on="1"/>
        <pt x="604" y="455" on="1"/>
        <pt x="604" y="0" on="1"/>
        <pt x="152" y="0" on="1"/>
        <pt x="152" y="1409" on="1"/>
      </contour>
      <contour>
        <pt x="604" y="1075" on="1"/>
        <pt x="604" y="784" on="1"/>
        <pt x="791" y="784" on="1"/>
        <pt x="863" y="784" on="0"/>
        <pt x="934" y="859" on="0"/>
        <pt x="934" y="922" on="1"/>
        <pt x="934" y="938" on="1"/>
        <pt x="934" y="1001" on="0"/>
        <pt x="865" y="1075" on="0"/>
        <pt x="791" y="1075" on="1"/>
      </contour>
    </TTGlyph>
    <TTGlyph name="Q" xMin="92" yMin="-268" xMax="1614" yMax="1434">
      <contour>
        <pt x="92" y="705" on="1"/>
        <pt x="92" y="885" on="0"/>
        <pt x="194" y="1158" on="0"/>
        <pt x="389" y="1341" on="0"/>
        <pt x="672" y="1434" on="0"/>
        <pt x="852" y="1434" on="1"/>
        <pt x="1032" y="1434" on="0"/>
        <pt x="1316" y="1341" on="0"/>
        <pt x="1511" y="1158" on="0"/>
        <pt x="1614" y="885" on="0"/>
        <pt x="1614" y="705" on="1"/>
        <pt x="1614" y="464" on="0"/>
        <pt x="1434" y="141" on="0"/>
        <pt x="1266" y="57" on="1"/>
        <pt x="1587" y="-268" on="1"/>
        <pt x="1049" y="-268" on="1"/>
        <pt x="831" y="-25" on="1"/>
        <pt x="655" y="-22" on="0"/>
        <pt x="380" y="73" on="0"/>
        <pt x="191" y="256" on="0"/>
        <pt x="92" y="526" on="0"/>
      </contour>
      <contour>
        <pt x="1151" y="770" on="1"/>
        <pt x="1151" y="842" on="0"/>
        <pt x="1114" y="962" on="0"/>
        <pt x="1039" y="1048" on="0"/>
        <pt x="927" y="1096" on="0"/>
        <pt x="852" y="1096" on="1"/>
        <pt x="777" y="1096" on="0"/>
        <pt x="666" y="1048" on="0"/>
        <pt x="592" y="962" on="0"/>
        <pt x="555" y="842" on="0"/>
        <pt x="555" y="770" on="1"/>
        <pt x="555" y="639" on="1"/>
        <pt x="555" y="567" on="0"/>
        <pt x="592" y="447" on="0"/>
        <pt x="666" y="361" on="0"/>
        <pt x="777" y="313" on="0"/>
        <pt x="852" y="313" on="1"/>
        <pt x="927" y="313" on="0"/>
        <pt x="1039" y="361" on="0"/>
        <pt x="1114" y="447" on="0"/>
        <pt x="1151" y="567" on="0"/>
        <pt x="1151" y="639" on="1"/>
      </contour>
    </TTGlyph>
    <TTGlyph name="R" xMin="152" yMin="0" xMax="1530" yMax="1409">
      <contour>
        <pt x="1489" y="977" on="1"/>
        <pt x="1489" y="915" on="0"/>
        <pt x="1455" y="798" on="0"/>
        <pt x="1387" y="696" on="0"/>
        <pt x="1285" y="615" on="0"/>
        <pt x="1217" y="590" on="1"/>
        <pt x="1530" y="0" on="1"/>
        <pt x="1022" y="0" on="1"/>
        <pt x="772" y="514" on="1"/>
        <pt x="604" y="514" on="1"/>
        <pt x="604" y="0" on="1"/>
        <pt x="152" y="0" on="1"/>
        <pt x="152" y="1409" on="1"/>
        <pt x="1014" y="1409" on="1"/>
        <pt x="1131" y="1409" on="0"/>
        <pt x="1309" y="1338" on="0"/>
        <pt x="1429" y="1219" on="0"/>
        <pt x="1489" y="1063" on="0"/>
      </contour>
      <contour>
        <pt x="1028" y="958" on="1"/>
        <pt x="1028" y="986" on="0"/>
        <pt x="1008" y="1034" on="0"/>
        <pt x="973" y="1068" on="0"/>
        <pt x="927" y="1087" on="0"/>
        <pt x="901" y="1087" on="1"/>
        <pt x="604" y="1087" on="1"/>
        <pt x="604" y="827" on="1"/>
        <pt x="901" y="827" on="1"/>
        <pt x="927" y="827" on="0"/>
        <pt x="973" y="847" on="0"/>
        <pt x="1008" y="882" on="0"/>
        <pt x="1028" y="930" on="0"/>
      </contour>
    </TTGlyph>
    <TTGlyph name="Racute" xMin="152" yMin="0" xMax="1530" yMax="1812">
      <contour>
        <pt x="838" y="1540" on="1"/>
        <pt x="578" y="1540" on="1"/>
        <pt x="766" y="1812" on="1"/>
        <pt x="1161" y="1812" on="1"/>
        <pt x="1165" y="1804" on="1"/>
      </contour>
      <contour>
        <pt x="1489" y="977" on="1"/>
        <pt x="1489" y="915" on="0"/>
        <pt x="1455" y="798" on="0"/>
        <pt x="1387" y="696" on="0"/>
        <pt x="1285" y="615" on="0"/>
        <pt x="1217" y="590" on="1"/>
        <pt x="1530" y="0" on="1"/>
        <pt x="1022" y="0" on="1"/>
        <pt x="772" y="514" on="1"/>
        <pt x="604" y="514" on="1"/>
        <pt x="604" y="0" on="1"/>
        <pt x="152" y="0" on="1"/>
        <pt x="152" y="1409" on="1"/>
        <pt x="1014" y="1409" on="1"/>
        <pt x="1131" y="1409" on="0"/>
        <pt x="1309" y="1338" on="0"/>
        <pt x="1429" y="1219" on="0"/>
        <pt x="1489" y="1063" on="0"/>
      </contour>
      <contour>
        <pt x="1028" y="958" on="1"/>
        <pt x="1028" y="986" on="0"/>
        <pt x="1008" y="1034" on="0"/>
        <pt x="973" y="1068" on="0"/>
        <pt x="927" y="1087" on="0"/>
        <pt x="901" y="1087" on="1"/>
        <pt x="604" y="1087" on="1"/>
        <pt x="604" y="827" on="1"/>
        <pt x="901" y="827" on="1"/>
        <pt x="927" y="827" on="0"/>
        <pt x="973" y="847" on="0"/>
        <pt x="1008" y="882" on="0"/>
        <pt x="1028" y="930" on="0"/>
      </contour>
    </TTGlyph>
    <TTGlyph name="Rcaron" xMin="152" yMin="0" xMax="1530" yMax="1812">
      <contour>
        <pt x="928" y="1516" on="1"/>
        <pt x="666" y="1516" on="1"/>
        <pt x="381" y="1812" on="1"/>
        <pt x="643" y="1812" on="1"/>
        <pt x="795" y="1655" on="1"/>
        <pt x="946" y="1812" on="1"/>
        <pt x="1212" y="1812" on="1"/>
      </contour>
      <contour>
        <pt x="1489" y="977" on="1"/>
        <pt x="1489" y="915" on="0"/>
        <pt x="1455" y="798" on="0"/>
        <pt x="1387" y="696" on="0"/>
        <pt x="1285" y="615" on="0"/>
        <pt x="1217" y="590" on="1"/>
        <pt x="1530" y="0" on="1"/>
        <pt x="1022" y="0" on="1"/>
        <pt x="772" y="514" on="1"/>
        <pt x="604" y="514" on="1"/>
        <pt x="604" y="0" on="1"/>
        <pt x="152" y="0" on="1"/>
        <pt x="152" y="1409" on="1"/>
        <pt x="1014" y="1409" on="1"/>
        <pt x="1131" y="1409" on="0"/>
        <pt x="1309" y="1338" on="0"/>
        <pt x="1429" y="1219" on="0"/>
        <pt x="1489" y="1063" on="0"/>
      </contour>
      <contour>
        <pt x="1028" y="958" on="1"/>
        <pt x="1028" y="986" on="0"/>
        <pt x="1008" y="1034" on="0"/>
        <pt x="973" y="1068" on="0"/>
        <pt x="927" y="1087" on="0"/>
        <pt x="901" y="1087" on="1"/>
        <pt x="604" y="1087" on="1"/>
        <pt x="604" y="827" on="1"/>
        <pt x="901" y="827" on="1"/>
        <pt x="927" y="827" on="0"/>
        <pt x="973" y="847" on="0"/>
        <pt x="1008" y="882" on="0"/>
        <pt x="1028" y="930" on="0"/>
      </contour>
    </TTGlyph>
    <TTGlyph name="Rcommaaccent" xMin="152" yMin="-547" xMax="1530" yMax="1409">
      <contour>
        <pt x="930" y="-344" on="1"/>
        <pt x="819" y="-547" on="1"/>
        <pt x="682" y="-547" on="1"/>
        <pt x="766" y="-358" on="1"/>
        <pt x="664" y="-358" on="1"/>
        <pt x="664" y="-121" on="1"/>
        <pt x="930" y="-121" on="1"/>
      </contour>
      <contour>
        <pt x="1489" y="977" on="1"/>
        <pt x="1489" y="915" on="0"/>
        <pt x="1455" y="798" on="0"/>
        <pt x="1387" y="696" on="0"/>
        <pt x="1285" y="615" on="0"/>
        <pt x="1217" y="590" on="1"/>
        <pt x="1530" y="0" on="1"/>
        <pt x="1022" y="0" on="1"/>
        <pt x="772" y="514" on="1"/>
        <pt x="604" y="514" on="1"/>
        <pt x="604" y="0" on="1"/>
        <pt x="152" y="0" on="1"/>
        <pt x="152" y="1409" on="1"/>
        <pt x="1014" y="1409" on="1"/>
        <pt x="1131" y="1409" on="0"/>
        <pt x="1309" y="1338" on="0"/>
        <pt x="1429" y="1219" on="0"/>
        <pt x="1489" y="1063" on="0"/>
      </contour>
      <contour>
        <pt x="1028" y="958" on="1"/>
        <pt x="1028" y="986" on="0"/>
        <pt x="1008" y="1034" on="0"/>
        <pt x="973" y="1068" on="0"/>
        <pt x="927" y="1087" on="0"/>
        <pt x="901" y="1087" on="1"/>
        <pt x="604" y="1087" on="1"/>
        <pt x="604" y="827" on="1"/>
        <pt x="901" y="827" on="1"/>
        <pt x="927" y="827" on="0"/>
        <pt x="973" y="847" on="0"/>
        <pt x="1008" y="882" on="0"/>
        <pt x="1028" y="930" on="0"/>
      </contour>
    </TTGlyph>
    <TTGlyph name="S" xMin="88" yMin="-25" xMax="1405" yMax="1434">
      <contour>
        <pt x="743" y="1434" on="1"/>
        <pt x="870" y="1434" on="0"/>
        <pt x="1095" y="1383" on="0"/>
        <pt x="1264" y="1276" on="0"/>
        <pt x="1364" y="1112" on="0"/>
        <pt x="1366" y="999" on="1"/>
        <pt x="1366" y="975" on="1"/>
        <pt x="942" y="975" on="1"/>
        <pt x="942" y="983" on="1"/>
        <pt x="942" y="1011" on="0"/>
        <pt x="922" y="1062" on="0"/>
        <pt x="878" y="1102" on="0"/>
        <pt x="809" y="1126" on="0"/>
        <pt x="760" y="1126" on="1"/>
        <pt x="666" y="1126" on="0"/>
        <pt x="573" y="1071" on="0"/>
        <pt x="573" y="1034" on="1"/>
        <pt x="573" y="994" on="0"/>
        <pt x="644" y="946" on="0"/>
        <pt x="760" y="913" on="0"/>
        <pt x="908" y="886" on="0"/>
        <pt x="1063" y="848" on="0"/>
        <pt x="1212" y="792" on="0"/>
        <pt x="1330" y="700" on="0"/>
        <pt x="1403" y="565" on="0"/>
        <pt x="1405" y="467" on="1"/>
        <pt x="1405" y="336" on="0"/>
        <pt x="1311" y="149" on="0"/>
        <pt x="1144" y="30" on="0"/>
        <pt x="917" y="-25" on="0"/>
        <pt x="784" y="-25" on="1"/>
        <pt x="636" y="-25" on="0"/>
        <pt x="381" y="19" on="0"/>
        <pt x="194" y="132" on="0"/>
        <pt x="88" y="327" on="0"/>
        <pt x="88" y="477" on="1"/>
        <pt x="516" y="477" on="1"/>
        <pt x="516" y="420" on="0"/>
        <pt x="548" y="351" on="0"/>
        <pt x="607" y="312" on="0"/>
        <pt x="691" y="299" on="0"/>
        <pt x="743" y="299" on="1"/>
        <pt x="774" y="299" on="0"/>
        <pt x="844" y="304" on="0"/>
        <pt x="903" y="322" on="0"/>
        <pt x="942" y="360" on="0"/>
        <pt x="942" y="393" on="1"/>
        <pt x="942" y="431" on="0"/>
        <pt x="871" y="477" on="0"/>
        <pt x="754" y="510" on="0"/>
        <pt x="604" y="538" on="0"/>
        <pt x="449" y="578" on="0"/>
        <pt x="299" y="639" on="0"/>
        <pt x="182" y="737" on="0"/>
        <pt x="111" y="880" on="0"/>
        <pt x="111" y="983" on="1"/>
        <pt x="111" y="1106" on="0"/>
        <pt x="215" y="1278" on="0"/>
        <pt x="389" y="1385" on="0"/>
        <pt x="618" y="1434" on="0"/>
      </contour>
    </TTGlyph>
    <TTGlyph name="Sacute" xMin="88" yMin="-25" xMax="1405" yMax="1813">
      <contour>
        <pt x="743" y="1434" on="1"/>
        <pt x="870" y="1434" on="0"/>
        <pt x="1095" y="1383" on="0"/>
        <pt x="1264" y="1276" on="0"/>
        <pt x="1364" y="1112" on="0"/>
        <pt x="1366" y="999" on="1"/>
        <pt x="1366" y="975" on="1"/>
        <pt x="942" y="975" on="1"/>
        <pt x="942" y="983" on="1"/>
        <pt x="942" y="1011" on="0"/>
        <pt x="922" y="1062" on="0"/>
        <pt x="878" y="1102" on="0"/>
        <pt x="809" y="1126" on="0"/>
        <pt x="760" y="1126" on="1"/>
        <pt x="666" y="1126" on="0"/>
        <pt x="573" y="1071" on="0"/>
        <pt x="573" y="1034" on="1"/>
        <pt x="573" y="994" on="0"/>
        <pt x="644" y="946" on="0"/>
        <pt x="760" y="913" on="0"/>
        <pt x="908" y="886" on="0"/>
        <pt x="1063" y="848" on="0"/>
        <pt x="1212" y="792" on="0"/>
        <pt x="1330" y="700" on="0"/>
        <pt x="1403" y="565" on="0"/>
        <pt x="1405" y="467" on="1"/>
        <pt x="1405" y="336" on="0"/>
        <pt x="1311" y="149" on="0"/>
        <pt x="1144" y="30" on="0"/>
        <pt x="917" y="-25" on="0"/>
        <pt x="784" y="-25" on="1"/>
        <pt x="636" y="-25" on="0"/>
        <pt x="381" y="19" on="0"/>
        <pt x="194" y="132" on="0"/>
        <pt x="88" y="327" on="0"/>
        <pt x="88" y="477" on="1"/>
        <pt x="516" y="477" on="1"/>
        <pt x="516" y="420" on="0"/>
        <pt x="548" y="351" on="0"/>
        <pt x="607" y="312" on="0"/>
        <pt x="691" y="299" on="0"/>
        <pt x="743" y="299" on="1"/>
        <pt x="774" y="299" on="0"/>
        <pt x="844" y="304" on="0"/>
        <pt x="903" y="322" on="0"/>
        <pt x="942" y="360" on="0"/>
        <pt x="942" y="393" on="1"/>
        <pt x="942" y="431" on="0"/>
        <pt x="871" y="477" on="0"/>
        <pt x="754" y="510" on="0"/>
        <pt x="604" y="538" on="0"/>
        <pt x="449" y="578" on="0"/>
        <pt x="299" y="639" on="0"/>
        <pt x="182" y="737" on="0"/>
        <pt x="111" y="880" on="0"/>
        <pt x="111" y="983" on="1"/>
        <pt x="111" y="1106" on="0"/>
        <pt x="215" y="1278" on="0"/>
        <pt x="389" y="1385" on="0"/>
        <pt x="618" y="1434" on="0"/>
      </contour>
      <contour>
        <pt x="804" y="1540" on="1"/>
        <pt x="543" y="1540" on="1"/>
        <pt x="732" y="1813" on="1"/>
        <pt x="1127" y="1813" on="1"/>
        <pt x="1131" y="1805" on="1"/>
      </contour>
    </TTGlyph>
    <TTGlyph name="Scaron" xMin="88" yMin="-25" xMax="1405" yMax="1813">
      <contour>
        <pt x="743" y="1434" on="1"/>
        <pt x="870" y="1434" on="0"/>
        <pt x="1095" y="1383" on="0"/>
        <pt x="1264" y="1276" on="0"/>
        <pt x="1364" y="1112" on="0"/>
        <pt x="1366" y="999" on="1"/>
        <pt x="1366" y="975" on="1"/>
        <pt x="942" y="975" on="1"/>
        <pt x="942" y="983" on="1"/>
        <pt x="942" y="1011" on="0"/>
        <pt x="922" y="1062" on="0"/>
        <pt x="878" y="1102" on="0"/>
        <pt x="809" y="1126" on="0"/>
        <pt x="760" y="1126" on="1"/>
        <pt x="666" y="1126" on="0"/>
        <pt x="573" y="1071" on="0"/>
        <pt x="573" y="1034" on="1"/>
        <pt x="573" y="994" on="0"/>
        <pt x="644" y="946" on="0"/>
        <pt x="760" y="913" on="0"/>
        <pt x="908" y="886" on="0"/>
        <pt x="1063" y="848" on="0"/>
        <pt x="1212" y="792" on="0"/>
        <pt x="1330" y="700" on="0"/>
        <pt x="1403" y="565" on="0"/>
        <pt x="1405" y="467" on="1"/>
        <pt x="1405" y="336" on="0"/>
        <pt x="1311" y="149" on="0"/>
        <pt x="1144" y="30" on="0"/>
        <pt x="917" y="-25" on="0"/>
        <pt x="784" y="-25" on="1"/>
        <pt x="636" y="-25" on="0"/>
        <pt x="381" y="19" on="0"/>
        <pt x="194" y="132" on="0"/>
        <pt x="88" y="327" on="0"/>
        <pt x="88" y="477" on="1"/>
        <pt x="516" y="477" on="1"/>
        <pt x="516" y="420" on="0"/>
        <pt x="548" y="351" on="0"/>
        <pt x="607" y="312" on="0"/>
        <pt x="691" y="299" on="0"/>
        <pt x="743" y="299" on="1"/>
        <pt x="774" y="299" on="0"/>
        <pt x="844" y="304" on="0"/>
        <pt x="903" y="322" on="0"/>
        <pt x="942" y="360" on="0"/>
        <pt x="942" y="393" on="1"/>
        <pt x="942" y="431" on="0"/>
        <pt x="871" y="477" on="0"/>
        <pt x="754" y="510" on="0"/>
        <pt x="604" y="538" on="0"/>
        <pt x="449" y="578" on="0"/>
        <pt x="299" y="639" on="0"/>
        <pt x="182" y="737" on="0"/>
        <pt x="111" y="880" on="0"/>
        <pt x="111" y="983" on="1"/>
        <pt x="111" y="1106" on="0"/>
        <pt x="215" y="1278" on="0"/>
        <pt x="389" y="1385" on="0"/>
        <pt x="618" y="1434" on="0"/>
      </contour>
      <contour>
        <pt x="871" y="1516" on="1"/>
        <pt x="609" y="1516" on="1"/>
        <pt x="324" y="1813" on="1"/>
        <pt x="586" y="1813" on="1"/>
        <pt x="738" y="1655" on="1"/>
        <pt x="890" y="1813" on="1"/>
        <pt x="1156" y="1813" on="1"/>
      </contour>
    </TTGlyph>
    <TTGlyph name="Scedilla" xMin="88" yMin="-432" xMax="1405" yMax="1434">
      <contour>
        <pt x="743" y="1434" on="1"/>
        <pt x="870" y="1434" on="0"/>
        <pt x="1095" y="1383" on="0"/>
        <pt x="1264" y="1276" on="0"/>
        <pt x="1364" y="1112" on="0"/>
        <pt x="1366" y="999" on="1"/>
        <pt x="1366" y="975" on="1"/>
        <pt x="942" y="975" on="1"/>
        <pt x="942" y="983" on="1"/>
        <pt x="942" y="1011" on="0"/>
        <pt x="922" y="1062" on="0"/>
        <pt x="878" y="1102" on="0"/>
        <pt x="809" y="1126" on="0"/>
        <pt x="760" y="1126" on="1"/>
        <pt x="666" y="1126" on="0"/>
        <pt x="573" y="1071" on="0"/>
        <pt x="573" y="1034" on="1"/>
        <pt x="573" y="994" on="0"/>
        <pt x="644" y="946" on="0"/>
        <pt x="760" y="913" on="0"/>
        <pt x="908" y="886" on="0"/>
        <pt x="1063" y="848" on="0"/>
        <pt x="1212" y="792" on="0"/>
        <pt x="1330" y="700" on="0"/>
        <pt x="1403" y="565" on="0"/>
        <pt x="1405" y="467" on="1"/>
        <pt x="1405" y="338" on="0"/>
        <pt x="1314" y="154" on="0"/>
        <pt x="1154" y="35" on="0"/>
        <pt x="934" y="-22" on="0"/>
        <pt x="805" y="-24" on="1"/>
        <pt x="800" y="-59" on="1"/>
        <pt x="837" y="-63" on="0"/>
        <pt x="906" y="-86" on="0"/>
        <pt x="959" y="-128" on="0"/>
        <pt x="990" y="-194" on="0"/>
        <pt x="990" y="-242" on="1"/>
        <pt x="990" y="-300" on="0"/>
        <pt x="941" y="-374" on="0"/>
        <pt x="868" y="-416" on="0"/>
        <pt x="784" y="-432" on="0"/>
        <pt x="748" y="-432" on="1"/>
        <pt x="713" y="-432" on="0"/>
        <pt x="640" y="-428" on="0"/>
        <pt x="572" y="-419" on="0"/>
        <pt x="512" y="-407" on="0"/>
        <pt x="490" y="-399" on="1"/>
        <pt x="490" y="-289" on="1"/>
        <pt x="529" y="-293" on="0"/>
        <pt x="570" y="-297" on="1"/>
        <pt x="605" y="-300" on="0"/>
        <pt x="689" y="-305" on="0"/>
        <pt x="730" y="-305" on="1"/>
        <pt x="767" y="-305" on="0"/>
        <pt x="812" y="-277" on="0"/>
        <pt x="812" y="-242" on="1"/>
        <pt x="812" y="-211" on="0"/>
        <pt x="779" y="-176" on="0"/>
        <pt x="734" y="-176" on="1"/>
        <pt x="656" y="-176" on="1"/>
        <pt x="679" y="-22" on="1"/>
        <pt x="551" y="-15" on="0"/>
        <pt x="334" y="40" on="0"/>
        <pt x="176" y="155" on="0"/>
        <pt x="88" y="340" on="0"/>
        <pt x="88" y="477" on="1"/>
        <pt x="516" y="477" on="1"/>
        <pt x="516" y="420" on="0"/>
        <pt x="548" y="351" on="0"/>
        <pt x="607" y="312" on="0"/>
        <pt x="691" y="299" on="0"/>
        <pt x="743" y="299" on="1"/>
        <pt x="774" y="299" on="0"/>
        <pt x="844" y="304" on="0"/>
        <pt x="903" y="322" on="0"/>
        <pt x="942" y="360" on="0"/>
        <pt x="942" y="393" on="1"/>
        <pt x="942" y="431" on="0"/>
        <pt x="871" y="477" on="0"/>
        <pt x="754" y="510" on="0"/>
        <pt x="604" y="538" on="0"/>
        <pt x="449" y="578" on="0"/>
        <pt x="299" y="639" on="0"/>
        <pt x="182" y="737" on="0"/>
        <pt x="111" y="880" on="0"/>
        <pt x="111" y="983" on="1"/>
        <pt x="111" y="1106" on="0"/>
        <pt x="215" y="1278" on="0"/>
        <pt x="389" y="1385" on="0"/>
        <pt x="618" y="1434" on="0"/>
      </contour>
    </TTGlyph>
    <TTGlyph name="Scircumflex" xMin="88" yMin="-25" xMax="1405" yMax="1813">
      <contour>
        <pt x="743" y="1434" on="1"/>
        <pt x="870" y="1434" on="0"/>
        <pt x="1095" y="1383" on="0"/>
        <pt x="1264" y="1276" on="0"/>
        <pt x="1364" y="1112" on="0"/>
        <pt x="1366" y="999" on="1"/>
        <pt x="1366" y="975" on="1"/>
        <pt x="942" y="975" on="1"/>
        <pt x="942" y="983" on="1"/>
        <pt x="942" y="1011" on="0"/>
        <pt x="922" y="1062" on="0"/>
        <pt x="878" y="1102" on="0"/>
        <pt x="809" y="1126" on="0"/>
        <pt x="760" y="1126" on="1"/>
        <pt x="666" y="1126" on="0"/>
        <pt x="573" y="1071" on="0"/>
        <pt x="573" y="1034" on="1"/>
        <pt x="573" y="994" on="0"/>
        <pt x="644" y="946" on="0"/>
        <pt x="760" y="913" on="0"/>
        <pt x="908" y="886" on="0"/>
        <pt x="1063" y="848" on="0"/>
        <pt x="1212" y="792" on="0"/>
        <pt x="1330" y="700" on="0"/>
        <pt x="1403" y="565" on="0"/>
        <pt x="1405" y="467" on="1"/>
        <pt x="1405" y="336" on="0"/>
        <pt x="1311" y="149" on="0"/>
        <pt x="1144" y="30" on="0"/>
        <pt x="917" y="-25" on="0"/>
        <pt x="784" y="-25" on="1"/>
        <pt x="636" y="-25" on="0"/>
        <pt x="381" y="19" on="0"/>
        <pt x="194" y="132" on="0"/>
        <pt x="88" y="327" on="0"/>
        <pt x="88" y="477" on="1"/>
        <pt x="516" y="477" on="1"/>
        <pt x="516" y="420" on="0"/>
        <pt x="548" y="351" on="0"/>
        <pt x="607" y="312" on="0"/>
        <pt x="691" y="299" on="0"/>
        <pt x="743" y="299" on="1"/>
        <pt x="774" y="299" on="0"/>
        <pt x="844" y="304" on="0"/>
        <pt x="903" y="322" on="0"/>
        <pt x="942" y="360" on="0"/>
        <pt x="942" y="393" on="1"/>
        <pt x="942" y="431" on="0"/>
        <pt x="871" y="477" on="0"/>
        <pt x="754" y="510" on="0"/>
        <pt x="604" y="538" on="0"/>
        <pt x="449" y="578" on="0"/>
        <pt x="299" y="639" on="0"/>
        <pt x="182" y="737" on="0"/>
        <pt x="111" y="880" on="0"/>
        <pt x="111" y="983" on="1"/>
        <pt x="111" y="1106" on="0"/>
        <pt x="215" y="1278" on="0"/>
        <pt x="389" y="1385" on="0"/>
        <pt x="618" y="1434" on="0"/>
      </contour>
      <contour>
        <pt x="1156" y="1516" on="1"/>
        <pt x="890" y="1516" on="1"/>
        <pt x="738" y="1674" on="1"/>
        <pt x="586" y="1516" on="1"/>
        <pt x="324" y="1516" on="1"/>
        <pt x="609" y="1813" on="1"/>
        <pt x="871" y="1813" on="1"/>
      </contour>
    </TTGlyph>
    <TTGlyph name="T" xMin="47" yMin="0" xMax="1423" yMax="1409">
      <contour>
        <pt x="1423" y="1049" on="1"/>
        <pt x="963" y="1049" on="1"/>
        <pt x="963" y="0" on="1"/>
        <pt x="510" y="0" on="1"/>
        <pt x="510" y="1049" on="1"/>
        <pt x="47" y="1049" on="1"/>
        <pt x="47" y="1409" on="1"/>
        <pt x="1423" y="1409" on="1"/>
      </contour>
    </TTGlyph>
    <TTGlyph name="Tbar" xMin="47" yMin="0" xMax="1423" yMax="1409">
      <contour>
        <pt x="1294" y="550" on="1"/>
        <pt x="963" y="550" on="1"/>
        <pt x="963" y="0" on="1"/>
        <pt x="510" y="0" on="1"/>
        <pt x="510" y="550" on="1"/>
        <pt x="176" y="550" on="1"/>
        <pt x="176" y="755" on="1"/>
        <pt x="510" y="755" on="1"/>
        <pt x="510" y="1049" on="1"/>
        <pt x="47" y="1049" on="1"/>
        <pt x="47" y="1409" on="1"/>
        <pt x="1423" y="1409" on="1"/>
        <pt x="1423" y="1049" on="1"/>
        <pt x="963" y="1049" on="1"/>
        <pt x="963" y="755" on="1"/>
        <pt x="1294" y="755" on="1"/>
      </contour>
    </TTGlyph>
    <TTGlyph name="Tcaron" xMin="47" yMin="0" xMax="1423" yMax="1813">
      <contour>
        <pt x="1423" y="1049" on="1"/>
        <pt x="963" y="1049" on="1"/>
        <pt x="963" y="0" on="1"/>
        <pt x="510" y="0" on="1"/>
        <pt x="510" y="1049" on="1"/>
        <pt x="47" y="1049" on="1"/>
        <pt x="47" y="1409" on="1"/>
        <pt x="1423" y="1409" on="1"/>
      </contour>
      <contour>
        <pt x="871" y="1516" on="1"/>
        <pt x="609" y="1516" on="1"/>
        <pt x="324" y="1813" on="1"/>
        <pt x="586" y="1813" on="1"/>
        <pt x="738" y="1655" on="1"/>
        <pt x="890" y="1813" on="1"/>
        <pt x="1156" y="1813" on="1"/>
      </contour>
    </TTGlyph>
    <TTGlyph name="Tcommaaccent" xMin="47" yMin="-546" xMax="1423" yMax="1409">
      <contour>
        <pt x="1423" y="1049" on="1"/>
        <pt x="963" y="1049" on="1"/>
        <pt x="963" y="0" on="1"/>
        <pt x="510" y="0" on="1"/>
        <pt x="510" y="1049" on="1"/>
        <pt x="47" y="1049" on="1"/>
        <pt x="47" y="1409" on="1"/>
        <pt x="1423" y="1409" on="1"/>
      </contour>
      <contour>
        <pt x="873" y="-344" on="1"/>
        <pt x="762" y="-546" on="1"/>
        <pt x="625" y="-546" on="1"/>
        <pt x="709" y="-358" on="1"/>
        <pt x="607" y="-358" on="1"/>
        <pt x="607" y="-121" on="1"/>
        <pt x="873" y="-121" on="1"/>
      </contour>
    </TTGlyph>
    <TTGlyph name="Thorn" xMin="152" yMin="0" xMax="1393" yMax="1409">
      <contour>
        <pt x="604" y="1204" on="1"/>
        <pt x="942" y="1204" on="1"/>
        <pt x="1042" y="1204" on="0"/>
        <pt x="1208" y="1134" on="0"/>
        <pt x="1327" y="1011" on="0"/>
        <pt x="1393" y="841" on="0"/>
        <pt x="1393" y="741" on="1"/>
        <pt x="1393" y="715" on="1"/>
        <pt x="1393" y="615" on="0"/>
        <pt x="1327" y="445" on="0"/>
        <pt x="1208" y="320" on="0"/>
        <pt x="1042" y="250" on="0"/>
        <pt x="942" y="250" on="1"/>
        <pt x="604" y="250" on="1"/>
        <pt x="604" y="0" on="1"/>
        <pt x="152" y="0" on="1"/>
        <pt x="152" y="1409" on="1"/>
        <pt x="604" y="1409" on="1"/>
      </contour>
      <contour>
        <pt x="604" y="870" on="1"/>
        <pt x="604" y="580" on="1"/>
        <pt x="791" y="580" on="1"/>
        <pt x="863" y="580" on="0"/>
        <pt x="934" y="654" on="0"/>
        <pt x="934" y="717" on="1"/>
        <pt x="934" y="733" on="1"/>
        <pt x="934" y="796" on="0"/>
        <pt x="865" y="870" on="0"/>
        <pt x="791" y="870" on="1"/>
      </contour>
    </TTGlyph>
    <TTGlyph name="U" xMin="152" yMin="-25" xMax="1554" yMax="1409">
      <contour>
        <pt x="1554" y="567" on="1"/>
        <pt x="1554" y="421" on="0"/>
        <pt x="1460" y="200" on="0"/>
        <pt x="1280" y="51" on="0"/>
        <pt x="1020" y="-25" on="0"/>
        <pt x="854" y="-25" on="1"/>
        <pt x="688" y="-25" on="0"/>
        <pt x="427" y="51" on="0"/>
        <pt x="247" y="200" on="0"/>
        <pt x="152" y="421" on="0"/>
        <pt x="152" y="567" on="1"/>
        <pt x="152" y="1409" on="1"/>
        <pt x="604" y="1409" on="1"/>
        <pt x="604" y="573" on="1"/>
        <pt x="604" y="516" on="0"/>
        <pt x="635" y="421" on="0"/>
        <pt x="697" y="352" on="0"/>
        <pt x="790" y="313" on="0"/>
        <pt x="852" y="313" on="1"/>
        <pt x="914" y="313" on="0"/>
        <pt x="1008" y="352" on="0"/>
        <pt x="1071" y="421" on="0"/>
        <pt x="1102" y="516" on="0"/>
        <pt x="1102" y="573" on="1"/>
        <pt x="1102" y="1409" on="1"/>
        <pt x="1554" y="1409" on="1"/>
      </contour>
    </TTGlyph>
    <TTGlyph name="Uacute" xMin="152" yMin="-25" xMax="1554" yMax="1813">
      <contour>
        <pt x="1554" y="567" on="1"/>
        <pt x="1554" y="421" on="0"/>
        <pt x="1460" y="200" on="0"/>
        <pt x="1280" y="51" on="0"/>
        <pt x="1020" y="-25" on="0"/>
        <pt x="854" y="-25" on="1"/>
        <pt x="688" y="-25" on="0"/>
        <pt x="427" y="51" on="0"/>
        <pt x="247" y="200" on="0"/>
        <pt x="152" y="421" on="0"/>
        <pt x="152" y="567" on="1"/>
        <pt x="152" y="1409" on="1"/>
        <pt x="604" y="1409" on="1"/>
        <pt x="604" y="573" on="1"/>
        <pt x="604" y="516" on="0"/>
        <pt x="635" y="421" on="0"/>
        <pt x="697" y="352" on="0"/>
        <pt x="790" y="313" on="0"/>
        <pt x="852" y="313" on="1"/>
        <pt x="914" y="313" on="0"/>
        <pt x="1008" y="352" on="0"/>
        <pt x="1071" y="421" on="0"/>
        <pt x="1102" y="516" on="0"/>
        <pt x="1102" y="573" on="1"/>
        <pt x="1102" y="1409" on="1"/>
        <pt x="1554" y="1409" on="1"/>
      </contour>
      <contour>
        <pt x="917" y="1540" on="1"/>
        <pt x="656" y="1540" on="1"/>
        <pt x="845" y="1813" on="1"/>
        <pt x="1240" y="1813" on="1"/>
        <pt x="1244" y="1805" on="1"/>
      </contour>
    </TTGlyph>
    <TTGlyph name="Ubreve" xMin="152" yMin="-25" xMax="1554" yMax="1813">
      <contour>
        <pt x="1554" y="567" on="1"/>
        <pt x="1554" y="421" on="0"/>
        <pt x="1460" y="200" on="0"/>
        <pt x="1280" y="51" on="0"/>
        <pt x="1020" y="-25" on="0"/>
        <pt x="854" y="-25" on="1"/>
        <pt x="688" y="-25" on="0"/>
        <pt x="427" y="51" on="0"/>
        <pt x="247" y="200" on="0"/>
        <pt x="152" y="421" on="0"/>
        <pt x="152" y="567" on="1"/>
        <pt x="152" y="1409" on="1"/>
        <pt x="604" y="1409" on="1"/>
        <pt x="604" y="573" on="1"/>
        <pt x="604" y="516" on="0"/>
        <pt x="635" y="421" on="0"/>
        <pt x="697" y="352" on="0"/>
        <pt x="790" y="313" on="0"/>
        <pt x="852" y="313" on="1"/>
        <pt x="914" y="313" on="0"/>
        <pt x="1008" y="352" on="0"/>
        <pt x="1071" y="421" on="0"/>
        <pt x="1102" y="516" on="0"/>
        <pt x="1102" y="573" on="1"/>
        <pt x="1102" y="1409" on="1"/>
        <pt x="1554" y="1409" on="1"/>
      </contour>
      <contour>
        <pt x="1231" y="1813" on="1"/>
        <pt x="1231" y="1762" on="0"/>
        <pt x="1178" y="1657" on="0"/>
        <pt x="1080" y="1572" on="0"/>
        <pt x="939" y="1518" on="0"/>
        <pt x="852" y="1518" on="1"/>
        <pt x="763" y="1518" on="0"/>
        <pt x="624" y="1572" on="0"/>
        <pt x="526" y="1657" on="0"/>
        <pt x="475" y="1762" on="0"/>
        <pt x="475" y="1813" on="1"/>
        <pt x="672" y="1813" on="1"/>
        <pt x="675" y="1797" on="0"/>
        <pt x="704" y="1761" on="0"/>
        <pt x="751" y="1730" on="0"/>
        <pt x="814" y="1710" on="0"/>
        <pt x="852" y="1710" on="1"/>
        <pt x="890" y="1710" on="0"/>
        <pt x="955" y="1730" on="0"/>
        <pt x="1003" y="1761" on="0"/>
        <pt x="1033" y="1797" on="0"/>
        <pt x="1036" y="1813" on="1"/>
      </contour>
    </TTGlyph>
    <TTGlyph name="Ucircumflex" xMin="152" yMin="-25" xMax="1554" yMax="1813">
      <contour>
        <pt x="1554" y="567" on="1"/>
        <pt x="1554" y="421" on="0"/>
        <pt x="1460" y="200" on="0"/>
        <pt x="1280" y="51" on="0"/>
        <pt x="1020" y="-25" on="0"/>
        <pt x="854" y="-25" on="1"/>
        <pt x="688" y="-25" on="0"/>
        <pt x="427" y="51" on="0"/>
        <pt x="247" y="200" on="0"/>
        <pt x="152" y="421" on="0"/>
        <pt x="152" y="567" on="1"/>
        <pt x="152" y="1409" on="1"/>
        <pt x="604" y="1409" on="1"/>
        <pt x="604" y="573" on="1"/>
        <pt x="604" y="516" on="0"/>
        <pt x="635" y="421" on="0"/>
        <pt x="697" y="352" on="0"/>
        <pt x="790" y="313" on="0"/>
        <pt x="852" y="313" on="1"/>
        <pt x="914" y="313" on="0"/>
        <pt x="1008" y="352" on="0"/>
        <pt x="1071" y="421" on="0"/>
        <pt x="1102" y="516" on="0"/>
        <pt x="1102" y="573" on="1"/>
        <pt x="1102" y="1409" on="1"/>
        <pt x="1554" y="1409" on="1"/>
      </contour>
      <contour>
        <pt x="1269" y="1516" on="1"/>
        <pt x="1003" y="1516" on="1"/>
        <pt x="851" y="1674" on="1"/>
        <pt x="699" y="1516" on="1"/>
        <pt x="437" y="1516" on="1"/>
        <pt x="722" y="1813" on="1"/>
        <pt x="984" y="1813" on="1"/>
      </contour>
    </TTGlyph>
    <TTGlyph name="Udieresis" xMin="152" yMin="-25" xMax="1554" yMax="1813">
      <contour>
        <pt x="1554" y="567" on="1"/>
        <pt x="1554" y="421" on="0"/>
        <pt x="1460" y="200" on="0"/>
        <pt x="1280" y="51" on="0"/>
        <pt x="1020" y="-25" on="0"/>
        <pt x="854" y="-25" on="1"/>
        <pt x="688" y="-25" on="0"/>
        <pt x="427" y="51" on="0"/>
        <pt x="247" y="200" on="0"/>
        <pt x="152" y="421" on="0"/>
        <pt x="152" y="567" on="1"/>
        <pt x="152" y="1409" on="1"/>
        <pt x="604" y="1409" on="1"/>
        <pt x="604" y="573" on="1"/>
        <pt x="604" y="516" on="0"/>
        <pt x="635" y="421" on="0"/>
        <pt x="697" y="352" on="0"/>
        <pt x="790" y="313" on="0"/>
        <pt x="852" y="313" on="1"/>
        <pt x="914" y="313" on="0"/>
        <pt x="1008" y="352" on="0"/>
        <pt x="1071" y="421" on="0"/>
        <pt x="1102" y="516" on="0"/>
        <pt x="1102" y="573" on="1"/>
        <pt x="1102" y="1409" on="1"/>
        <pt x="1554" y="1409" on="1"/>
      </contour>
      <contour>
        <pt x="1234" y="1528" on="1"/>
        <pt x="923" y="1528" on="1"/>
        <pt x="923" y="1813" on="1"/>
        <pt x="1234" y="1813" on="1"/>
      </contour>
      <contour>
        <pt x="783" y="1528" on="1"/>
        <pt x="472" y="1528" on="1"/>
        <pt x="472" y="1813" on="1"/>
        <pt x="783" y="1813" on="1"/>
      </contour>
    </TTGlyph>
    <TTGlyph name="Ugrave" xMin="152" yMin="-25" xMax="1554" yMax="1813">
      <contour>
        <pt x="1554" y="567" on="1"/>
        <pt x="1554" y="421" on="0"/>
        <pt x="1460" y="200" on="0"/>
        <pt x="1280" y="51" on="0"/>
        <pt x="1020" y="-25" on="0"/>
        <pt x="854" y="-25" on="1"/>
        <pt x="688" y="-25" on="0"/>
        <pt x="427" y="51" on="0"/>
        <pt x="247" y="200" on="0"/>
        <pt x="152" y="421" on="0"/>
        <pt x="152" y="567" on="1"/>
        <pt x="152" y="1409" on="1"/>
        <pt x="604" y="1409" on="1"/>
        <pt x="604" y="573" on="1"/>
        <pt x="604" y="516" on="0"/>
        <pt x="635" y="421" on="0"/>
        <pt x="697" y="352" on="0"/>
        <pt x="790" y="313" on="0"/>
        <pt x="852" y="313" on="1"/>
        <pt x="914" y="313" on="0"/>
        <pt x="1008" y="352" on="0"/>
        <pt x="1071" y="421" on="0"/>
        <pt x="1102" y="516" on="0"/>
        <pt x="1102" y="573" on="1"/>
        <pt x="1102" y="1409" on="1"/>
        <pt x="1554" y="1409" on="1"/>
      </contour>
      <contour>
        <pt x="790" y="1540" on="1"/>
        <pt x="462" y="1805" on="1"/>
        <pt x="466" y="1813" on="1"/>
        <pt x="861" y="1813" on="1"/>
        <pt x="1050" y="1540" on="1"/>
      </contour>
    </TTGlyph>
    <TTGlyph name="Uhungarumlaut" xMin="152" yMin="-25" xMax="1554" yMax="1815">
      <contour>
        <pt x="1554" y="567" on="1"/>
        <pt x="1554" y="421" on="0"/>
        <pt x="1460" y="200" on="0"/>
        <pt x="1280" y="51" on="0"/>
        <pt x="1020" y="-25" on="0"/>
        <pt x="854" y="-25" on="1"/>
        <pt x="688" y="-25" on="0"/>
        <pt x="427" y="51" on="0"/>
        <pt x="247" y="200" on="0"/>
        <pt x="152" y="421" on="0"/>
        <pt x="152" y="567" on="1"/>
        <pt x="152" y="1409" on="1"/>
        <pt x="604" y="1409" on="1"/>
        <pt x="604" y="573" on="1"/>
        <pt x="604" y="516" on="0"/>
        <pt x="635" y="421" on="0"/>
        <pt x="697" y="352" on="0"/>
        <pt x="790" y="313" on="0"/>
        <pt x="852" y="313" on="1"/>
        <pt x="914" y="313" on="0"/>
        <pt x="1008" y="352" on="0"/>
        <pt x="1071" y="421" on="0"/>
        <pt x="1102" y="516" on="0"/>
        <pt x="1102" y="573" on="1"/>
        <pt x="1102" y="1409" on="1"/>
        <pt x="1554" y="1409" on="1"/>
      </contour>
      <contour>
        <pt x="1028" y="1807" on="1"/>
        <pt x="743" y="1540" on="1"/>
        <pt x="503" y="1540" on="1"/>
        <pt x="659" y="1815" on="1"/>
        <pt x="1024" y="1815" on="1"/>
      </contour>
      <contour>
        <pt x="1460" y="1807" on="1"/>
        <pt x="1175" y="1540" on="1"/>
        <pt x="936" y="1540" on="1"/>
        <pt x="1091" y="1815" on="1"/>
        <pt x="1456" y="1815" on="1"/>
      </contour>
    </TTGlyph>
    <TTGlyph name="Umacron" xMin="152" yMin="-25" xMax="1554" yMax="1772">
      <contour>
        <pt x="1554" y="567" on="1"/>
        <pt x="1554" y="421" on="0"/>
        <pt x="1460" y="200" on="0"/>
        <pt x="1280" y="51" on="0"/>
        <pt x="1020" y="-25" on="0"/>
        <pt x="854" y="-25" on="1"/>
        <pt x="688" y="-25" on="0"/>
        <pt x="427" y="51" on="0"/>
        <pt x="247" y="200" on="0"/>
        <pt x="152" y="421" on="0"/>
        <pt x="152" y="567" on="1"/>
        <pt x="152" y="1409" on="1"/>
        <pt x="604" y="1409" on="1"/>
        <pt x="604" y="573" on="1"/>
        <pt x="604" y="516" on="0"/>
        <pt x="635" y="421" on="0"/>
        <pt x="697" y="352" on="0"/>
        <pt x="790" y="313" on="0"/>
        <pt x="852" y="313" on="1"/>
        <pt x="914" y="313" on="0"/>
        <pt x="1008" y="352" on="0"/>
        <pt x="1071" y="421" on="0"/>
        <pt x="1102" y="516" on="0"/>
        <pt x="1102" y="573" on="1"/>
        <pt x="1102" y="1409" on="1"/>
        <pt x="1554" y="1409" on="1"/>
      </contour>
      <contour>
        <pt x="1177" y="1567" on="1"/>
        <pt x="529" y="1567" on="1"/>
        <pt x="529" y="1772" on="1"/>
        <pt x="1177" y="1772" on="1"/>
      </contour>
    </TTGlyph>
    <TTGlyph name="Uogonek" xMin="152" yMin="-432" xMax="1554" yMax="1409">
      <contour>
        <pt x="1554" y="567" on="1"/>
        <pt x="1554" y="349" on="0"/>
        <pt x="1346" y="71" on="0"/>
        <pt x="1154" y="14" on="1"/>
        <pt x="1148" y="3" on="0"/>
        <pt x="1134" y="-31" on="0"/>
        <pt x="1122" y="-73" on="0"/>
        <pt x="1114" y="-119" on="0"/>
        <pt x="1114" y="-141" on="1"/>
        <pt x="1114" y="-161" on="0"/>
        <pt x="1127" y="-199" on="0"/>
        <pt x="1155" y="-228" on="0"/>
        <pt x="1202" y="-246" on="0"/>
        <pt x="1237" y="-246" on="1"/>
        <pt x="1323" y="-246" on="1"/>
        <pt x="1323" y="-401" on="1"/>
        <pt x="1230" y="-432" on="0"/>
        <pt x="1127" y="-432" on="1"/>
        <pt x="1077" y="-432" on="0"/>
        <pt x="984" y="-406" on="0"/>
        <pt x="912" y="-351" on="0"/>
        <pt x="868" y="-262" on="0"/>
        <pt x="868" y="-199" on="1"/>
        <pt x="868" y="-142" on="0"/>
        <pt x="907" y="-57" on="0"/>
        <pt x="933" y="-22" on="1"/>
        <pt x="894" y="-25" on="0"/>
        <pt x="854" y="-25" on="1"/>
        <pt x="688" y="-25" on="0"/>
        <pt x="427" y="51" on="0"/>
        <pt x="247" y="200" on="0"/>
        <pt x="152" y="421" on="0"/>
        <pt x="152" y="567" on="1"/>
        <pt x="152" y="1409" on="1"/>
        <pt x="604" y="1409" on="1"/>
        <pt x="604" y="573" on="1"/>
        <pt x="604" y="516" on="0"/>
        <pt x="635" y="421" on="0"/>
        <pt x="697" y="352" on="0"/>
        <pt x="790" y="313" on="0"/>
        <pt x="852" y="313" on="1"/>
        <pt x="914" y="313" on="0"/>
        <pt x="1008" y="352" on="0"/>
        <pt x="1071" y="421" on="0"/>
        <pt x="1102" y="516" on="0"/>
        <pt x="1102" y="573" on="1"/>
        <pt x="1102" y="1409" on="1"/>
        <pt x="1554" y="1409" on="1"/>
      </contour>
    </TTGlyph>
    <TTGlyph name="Uring" xMin="152" yMin="-25" xMax="1554" yMax="1954">
      <contour>
        <pt x="1554" y="567" on="1"/>
        <pt x="1554" y="421" on="0"/>
        <pt x="1460" y="200" on="0"/>
        <pt x="1280" y="51" on="0"/>
        <pt x="1020" y="-25" on="0"/>
        <pt x="854" y="-25" on="1"/>
        <pt x="688" y="-25" on="0"/>
        <pt x="427" y="51" on="0"/>
        <pt x="247" y="200" on="0"/>
        <pt x="152" y="421" on="0"/>
        <pt x="152" y="567" on="1"/>
        <pt x="152" y="1409" on="1"/>
        <pt x="604" y="1409" on="1"/>
        <pt x="604" y="573" on="1"/>
        <pt x="604" y="516" on="0"/>
        <pt x="635" y="421" on="0"/>
        <pt x="697" y="352" on="0"/>
        <pt x="790" y="313" on="0"/>
        <pt x="852" y="313" on="1"/>
        <pt x="914" y="313" on="0"/>
        <pt x="1008" y="352" on="0"/>
        <pt x="1071" y="421" on="0"/>
        <pt x="1102" y="516" on="0"/>
        <pt x="1102" y="573" on="1"/>
        <pt x="1102" y="1409" on="1"/>
        <pt x="1554" y="1409" on="1"/>
      </contour>
      <contour>
        <pt x="853" y="1954" on="1"/>
        <pt x="898" y="1954" on="0"/>
        <pt x="979" y="1919" on="0"/>
        <pt x="1040" y="1859" on="0"/>
        <pt x="1076" y="1778" on="0"/>
        <pt x="1076" y="1731" on="1"/>
        <pt x="1076" y="1686" on="0"/>
        <pt x="1041" y="1605" on="0"/>
        <pt x="980" y="1545" on="0"/>
        <pt x="899" y="1510" on="0"/>
        <pt x="853" y="1510" on="1"/>
        <pt x="808" y="1510" on="0"/>
        <pt x="727" y="1544" on="0"/>
        <pt x="666" y="1604" on="0"/>
        <pt x="630" y="1685" on="0"/>
        <pt x="630" y="1731" on="1"/>
        <pt x="630" y="1777" on="0"/>
        <pt x="665" y="1858" on="0"/>
        <pt x="726" y="1919" on="0"/>
        <pt x="807" y="1954" on="0"/>
      </contour>
      <contour>
        <pt x="853" y="1813" on="1"/>
        <pt x="816" y="1813" on="0"/>
        <pt x="771" y="1766" on="0"/>
        <pt x="771" y="1729" on="1"/>
        <pt x="771" y="1694" on="0"/>
        <pt x="818" y="1649" on="0"/>
        <pt x="853" y="1649" on="1"/>
        <pt x="890" y="1649" on="0"/>
        <pt x="935" y="1696" on="0"/>
        <pt x="935" y="1733" on="1"/>
        <pt x="935" y="1768" on="0"/>
        <pt x="888" y="1813" on="0"/>
      </contour>
    </TTGlyph>
    <TTGlyph name="Utilde" xMin="152" yMin="-25" xMax="1554" yMax="1813">
      <contour>
        <pt x="1554" y="567" on="1"/>
        <pt x="1554" y="421" on="0"/>
        <pt x="1460" y="200" on="0"/>
        <pt x="1280" y="51" on="0"/>
        <pt x="1020" y="-25" on="0"/>
        <pt x="854" y="-25" on="1"/>
        <pt x="688" y="-25" on="0"/>
        <pt x="427" y="51" on="0"/>
        <pt x="247" y="200" on="0"/>
        <pt x="152" y="421" on="0"/>
        <pt x="152" y="567" on="1"/>
        <pt x="152" y="1409" on="1"/>
        <pt x="604" y="1409" on="1"/>
        <pt x="604" y="573" on="1"/>
        <pt x="604" y="516" on="0"/>
        <pt x="635" y="421" on="0"/>
        <pt x="697" y="352" on="0"/>
        <pt x="790" y="313" on="0"/>
        <pt x="852" y="313" on="1"/>
        <pt x="914" y="313" on="0"/>
        <pt x="1008" y="352" on="0"/>
        <pt x="1071" y="421" on="0"/>
        <pt x="1102" y="516" on="0"/>
        <pt x="1102" y="573" on="1"/>
        <pt x="1102" y="1409" on="1"/>
        <pt x="1554" y="1409" on="1"/>
      </contour>
      <contour>
        <pt x="1308" y="1813" on="1"/>
        <pt x="1308" y="1757" on="0"/>
        <pt x="1267" y="1652" on="0"/>
        <pt x="1191" y="1570" on="0"/>
        <pt x="1085" y="1520" on="0"/>
        <pt x="1021" y="1520" on="1"/>
        <pt x="972" y="1520" on="0"/>
        <pt x="880" y="1546" on="0"/>
        <pt x="792" y="1576" on="0"/>
        <pt x="708" y="1602" on="0"/>
        <pt x="667" y="1602" on="1"/>
        <pt x="628" y="1602" on="0"/>
        <pt x="575" y="1555" on="0"/>
        <pt x="564" y="1520" on="1"/>
        <pt x="398" y="1520" on="1"/>
        <pt x="398" y="1575" on="0"/>
        <pt x="439" y="1680" on="0"/>
        <pt x="515" y="1763" on="0"/>
        <pt x="620" y="1813" on="0"/>
        <pt x="685" y="1813" on="1"/>
        <pt x="734" y="1813" on="0"/>
        <pt x="826" y="1787" on="0"/>
        <pt x="914" y="1757" on="0"/>
        <pt x="998" y="1731" on="0"/>
        <pt x="1039" y="1731" on="1"/>
        <pt x="1078" y="1731" on="0"/>
        <pt x="1131" y="1778" on="0"/>
        <pt x="1142" y="1813" on="1"/>
      </contour>
    </TTGlyph>
    <TTGlyph name="V" xMin="35" yMin="0" xMax="1556" yMax="1409">
      <contour>
        <pt x="1059" y="0" on="1"/>
        <pt x="535" y="0" on="1"/>
        <pt x="35" y="1409" on="1"/>
        <pt x="518" y="1409" on="1"/>
        <pt x="801" y="467" on="1"/>
        <pt x="809" y="467" on="1"/>
        <pt x="1094" y="1409" on="1"/>
        <pt x="1556" y="1409" on="1"/>
      </contour>
    </TTGlyph>
    <TTGlyph name="W" xMin="10" yMin="0" xMax="2038" yMax="1409">
      <contour>
        <pt x="1708" y="0" on="1"/>
        <pt x="1210" y="0" on="1"/>
        <pt x="1028" y="858" on="1"/>
        <pt x="1020" y="858" on="1"/>
        <pt x="838" y="0" on="1"/>
        <pt x="340" y="0" on="1"/>
        <pt x="10" y="1409" on="1"/>
        <pt x="481" y="1409" on="1"/>
        <pt x="643" y="610" on="1"/>
        <pt x="651" y="610" on="1"/>
        <pt x="811" y="1409" on="1"/>
        <pt x="1257" y="1409" on="1"/>
        <pt x="1427" y="610" on="1"/>
        <pt x="1436" y="610" on="1"/>
        <pt x="1587" y="1409" on="1"/>
        <pt x="2038" y="1409" on="1"/>
      </contour>
    </TTGlyph>
    <TTGlyph name="Wacute" xMin="10" yMin="0" xMax="2038" yMax="1813">
      <contour>
        <pt x="1210" y="0" on="1"/>
        <pt x="1028" y="858" on="1"/>
        <pt x="1020" y="858" on="1"/>
        <pt x="838" y="0" on="1"/>
        <pt x="340" y="0" on="1"/>
        <pt x="10" y="1409" on="1"/>
        <pt x="481" y="1409" on="1"/>
        <pt x="643" y="610" on="1"/>
        <pt x="651" y="610" on="1"/>
        <pt x="811" y="1409" on="1"/>
        <pt x="1257" y="1409" on="1"/>
        <pt x="1427" y="610" on="1"/>
        <pt x="1436" y="610" on="1"/>
        <pt x="1587" y="1409" on="1"/>
        <pt x="2038" y="1409" on="1"/>
        <pt x="1708" y="0" on="1"/>
      </contour>
      <contour>
        <pt x="1088" y="1540" on="1"/>
        <pt x="827" y="1540" on="1"/>
        <pt x="1016" y="1813" on="1"/>
        <pt x="1411" y="1813" on="1"/>
        <pt x="1415" y="1805" on="1"/>
      </contour>
    </TTGlyph>
    <TTGlyph name="Wcircumflex" xMin="10" yMin="0" xMax="2038" yMax="1813">
      <contour>
        <pt x="1708" y="0" on="1"/>
        <pt x="1210" y="0" on="1"/>
        <pt x="1028" y="858" on="1"/>
        <pt x="1020" y="858" on="1"/>
        <pt x="838" y="0" on="1"/>
        <pt x="340" y="0" on="1"/>
        <pt x="10" y="1409" on="1"/>
        <pt x="481" y="1409" on="1"/>
        <pt x="643" y="610" on="1"/>
        <pt x="651" y="610" on="1"/>
        <pt x="811" y="1409" on="1"/>
        <pt x="1257" y="1409" on="1"/>
        <pt x="1427" y="610" on="1"/>
        <pt x="1436" y="610" on="1"/>
        <pt x="1587" y="1409" on="1"/>
        <pt x="2038" y="1409" on="1"/>
      </contour>
      <contour>
        <pt x="1440" y="1516" on="1"/>
        <pt x="1174" y="1516" on="1"/>
        <pt x="1022" y="1674" on="1"/>
        <pt x="870" y="1516" on="1"/>
        <pt x="608" y="1516" on="1"/>
        <pt x="893" y="1813" on="1"/>
        <pt x="1155" y="1813" on="1"/>
      </contour>
    </TTGlyph>
    <TTGlyph name="Wdieresis" xMin="10" yMin="0" xMax="2038" yMax="1813">
      <contour>
        <pt x="1708" y="0" on="1"/>
        <pt x="1210" y="0" on="1"/>
        <pt x="1028" y="858" on="1"/>
        <pt x="1020" y="858" on="1"/>
        <pt x="838" y="0" on="1"/>
        <pt x="340" y="0" on="1"/>
        <pt x="10" y="1409" on="1"/>
        <pt x="481" y="1409" on="1"/>
        <pt x="643" y="610" on="1"/>
        <pt x="651" y="610" on="1"/>
        <pt x="811" y="1409" on="1"/>
        <pt x="1257" y="1409" on="1"/>
        <pt x="1427" y="610" on="1"/>
        <pt x="1436" y="610" on="1"/>
        <pt x="1587" y="1409" on="1"/>
        <pt x="2038" y="1409" on="1"/>
      </contour>
      <contour>
        <pt x="1405" y="1528" on="1"/>
        <pt x="1094" y="1528" on="1"/>
        <pt x="1094" y="1813" on="1"/>
        <pt x="1405" y="1813" on="1"/>
      </contour>
      <contour>
        <pt x="954" y="1528" on="1"/>
        <pt x="643" y="1528" on="1"/>
        <pt x="643" y="1813" on="1"/>
        <pt x="954" y="1813" on="1"/>
      </contour>
    </TTGlyph>
    <TTGlyph name="Wgrave" xMin="10" yMin="0" xMax="2038" yMax="1813">
      <contour>
        <pt x="1210" y="0" on="1"/>
        <pt x="1028" y="858" on="1"/>
        <pt x="1020" y="858" on="1"/>
        <pt x="838" y="0" on="1"/>
        <pt x="340" y="0" on="1"/>
        <pt x="10" y="1409" on="1"/>
        <pt x="481" y="1409" on="1"/>
        <pt x="643" y="610" on="1"/>
        <pt x="651" y="610" on="1"/>
        <pt x="811" y="1409" on="1"/>
        <pt x="1257" y="1409" on="1"/>
        <pt x="1427" y="610" on="1"/>
        <pt x="1436" y="610" on="1"/>
        <pt x="1587" y="1409" on="1"/>
        <pt x="2038" y="1409" on="1"/>
        <pt x="1708" y="0" on="1"/>
      </contour>
      <contour>
        <pt x="961" y="1540" on="1"/>
        <pt x="633" y="1805" on="1"/>
        <pt x="637" y="1813" on="1"/>
        <pt x="1032" y="1813" on="1"/>
        <pt x="1221" y="1540" on="1"/>
      </contour>
    </TTGlyph>
    <TTGlyph name="X" xMin="8" yMin="0" xMax="1593" yMax="1409">
      <contour>
        <pt x="1090" y="743" on="1"/>
        <pt x="1593" y="0" on="1"/>
        <pt x="1044" y="0" on="1"/>
        <pt x="784" y="438" on="1"/>
        <pt x="776" y="438" on="1"/>
        <pt x="516" y="0" on="1"/>
        <pt x="8" y="0" on="1"/>
        <pt x="512" y="745" on="1"/>
        <pt x="57" y="1409" on="1"/>
        <pt x="604" y="1409" on="1"/>
        <pt x="817" y="1049" on="1"/>
        <pt x="825" y="1049" on="1"/>
        <pt x="1040" y="1409" on="1"/>
        <pt x="1546" y="1409" on="1"/>
      </contour>
    </TTGlyph>
    <TTGlyph name="Y" xMin="14" yMin="0" xMax="1577" yMax="1409">
      <contour>
        <pt x="1026" y="547" on="1"/>
        <pt x="1026" y="0" on="1"/>
        <pt x="573" y="0" on="1"/>
        <pt x="573" y="547" on="1"/>
        <pt x="14" y="1409" on="1"/>
        <pt x="535" y="1409" on="1"/>
        <pt x="805" y="940" on="1"/>
        <pt x="813" y="940" on="1"/>
        <pt x="1083" y="1409" on="1"/>
        <pt x="1577" y="1409" on="1"/>
      </contour>
    </TTGlyph>
    <TTGlyph name="Yacute" xMin="14" yMin="0" xMax="1577" yMax="1813">
      <contour>
        <pt x="1026" y="0" on="1"/>
        <pt x="573" y="0" on="1"/>
        <pt x="573" y="547" on="1"/>
        <pt x="14" y="1409" on="1"/>
        <pt x="535" y="1409" on="1"/>
        <pt x="805" y="940" on="1"/>
        <pt x="813" y="940" on="1"/>
        <pt x="1083" y="1409" on="1"/>
        <pt x="1577" y="1409" on="1"/>
        <pt x="1026" y="547" on="1"/>
      </contour>
      <contour>
        <pt x="861" y="1540" on="1"/>
        <pt x="600" y="1540" on="1"/>
        <pt x="789" y="1813" on="1"/>
        <pt x="1184" y="1813" on="1"/>
        <pt x="1188" y="1805" on="1"/>
      </contour>
    </TTGlyph>
    <TTGlyph name="Ycircumflex" xMin="14" yMin="0" xMax="1577" yMax="1813">
      <contour>
        <pt x="1026" y="547" on="1"/>
        <pt x="1026" y="0" on="1"/>
        <pt x="573" y="0" on="1"/>
        <pt x="573" y="547" on="1"/>
        <pt x="14" y="1409" on="1"/>
        <pt x="535" y="1409" on="1"/>
        <pt x="805" y="940" on="1"/>
        <pt x="813" y="940" on="1"/>
        <pt x="1083" y="1409" on="1"/>
        <pt x="1577" y="1409" on="1"/>
      </contour>
      <contour>
        <pt x="1213" y="1516" on="1"/>
        <pt x="947" y="1516" on="1"/>
        <pt x="795" y="1674" on="1"/>
        <pt x="643" y="1516" on="1"/>
        <pt x="381" y="1516" on="1"/>
        <pt x="666" y="1813" on="1"/>
        <pt x="928" y="1813" on="1"/>
      </contour>
    </TTGlyph>
    <TTGlyph name="Ydieresis" xMin="14" yMin="0" xMax="1577" yMax="1813">
      <contour>
        <pt x="1026" y="547" on="1"/>
        <pt x="1026" y="0" on="1"/>
        <pt x="573" y="0" on="1"/>
        <pt x="573" y="547" on="1"/>
        <pt x="14" y="1409" on="1"/>
        <pt x="535" y="1409" on="1"/>
        <pt x="805" y="940" on="1"/>
        <pt x="813" y="940" on="1"/>
        <pt x="1083" y="1409" on="1"/>
        <pt x="1577" y="1409" on="1"/>
      </contour>
      <contour>
        <pt x="1178" y="1528" on="1"/>
        <pt x="867" y="1528" on="1"/>
        <pt x="867" y="1813" on="1"/>
        <pt x="1178" y="1813" on="1"/>
      </contour>
      <contour>
        <pt x="727" y="1528" on="1"/>
        <pt x="416" y="1528" on="1"/>
        <pt x="416" y="1813" on="1"/>
        <pt x="727" y="1813" on="1"/>
      </contour>
    </TTGlyph>
    <TTGlyph name="Ygrave" xMin="14" yMin="0" xMax="1577" yMax="1813">
      <contour>
        <pt x="1026" y="0" on="1"/>
        <pt x="573" y="0" on="1"/>
        <pt x="573" y="547" on="1"/>
        <pt x="14" y="1409" on="1"/>
        <pt x="535" y="1409" on="1"/>
        <pt x="805" y="940" on="1"/>
        <pt x="813" y="940" on="1"/>
        <pt x="1083" y="1409" on="1"/>
        <pt x="1577" y="1409" on="1"/>
        <pt x="1026" y="547" on="1"/>
      </contour>
      <contour>
        <pt x="734" y="1540" on="1"/>
        <pt x="406" y="1805" on="1"/>
        <pt x="410" y="1813" on="1"/>
        <pt x="805" y="1813" on="1"/>
        <pt x="994" y="1540" on="1"/>
      </contour>
    </TTGlyph>
    <TTGlyph name="Z" xMin="49" yMin="0" xMax="1415" yMax="1409">
      <contour>
        <pt x="1399" y="1264" on="1"/>
        <pt x="745" y="338" on="1"/>
        <pt x="1415" y="338" on="1"/>
        <pt x="1415" y="0" on="1"/>
        <pt x="49" y="0" on="1"/>
        <pt x="49" y="145" on="1"/>
        <pt x="702" y="1071" on="1"/>
        <pt x="98" y="1071" on="1"/>
        <pt x="98" y="1409" on="1"/>
        <pt x="1399" y="1409" on="1"/>
      </contour>
    </TTGlyph>
    <TTGlyph name="Zacute" xMin="49" yMin="0" xMax="1415" yMax="1813">
      <contour>
        <pt x="745" y="338" on="1"/>
        <pt x="1415" y="338" on="1"/>
        <pt x="1415" y="0" on="1"/>
        <pt x="49" y="0" on="1"/>
        <pt x="49" y="145" on="1"/>
        <pt x="702" y="1071" on="1"/>
        <pt x="98" y="1071" on="1"/>
        <pt x="98" y="1409" on="1"/>
        <pt x="1399" y="1409" on="1"/>
        <pt x="1399" y="1264" on="1"/>
      </contour>
      <contour>
        <pt x="804" y="1540" on="1"/>
        <pt x="543" y="1540" on="1"/>
        <pt x="732" y="1813" on="1"/>
        <pt x="1127" y="1813" on="1"/>
        <pt x="1131" y="1805" on="1"/>
      </contour>
    </TTGlyph>
    <TTGlyph name="Zcaron" xMin="49" yMin="0" xMax="1415" yMax="1813">
      <contour>
        <pt x="1399" y="1264" on="1"/>
        <pt x="745" y="338" on="1"/>
        <pt x="1415" y="338" on="1"/>
        <pt x="1415" y="0" on="1"/>
        <pt x="49" y="0" on="1"/>
        <pt x="49" y="145" on="1"/>
        <pt x="702" y="1071" on="1"/>
        <pt x="98" y="1071" on="1"/>
        <pt x="98" y="1409" on="1"/>
        <pt x="1399" y="1409" on="1"/>
      </contour>
      <contour>
        <pt x="871" y="1516" on="1"/>
        <pt x="609" y="1516" on="1"/>
        <pt x="324" y="1813" on="1"/>
        <pt x="586" y="1813" on="1"/>
        <pt x="738" y="1655" on="1"/>
        <pt x="890" y="1813" on="1"/>
        <pt x="1156" y="1813" on="1"/>
      </contour>
    </TTGlyph>
    <TTGlyph name="Zdotaccent" xMin="49" yMin="0" xMax="1415" yMax="1813">
      <contour>
        <pt x="1399" y="1264" on="1"/>
        <pt x="745" y="338" on="1"/>
        <pt x="1415" y="338" on="1"/>
        <pt x="1415" y="0" on="1"/>
        <pt x="49" y="0" on="1"/>
        <pt x="49" y="145" on="1"/>
        <pt x="702" y="1071" on="1"/>
        <pt x="98" y="1071" on="1"/>
        <pt x="98" y="1409" on="1"/>
        <pt x="1399" y="1409" on="1"/>
      </contour>
      <contour>
        <pt x="896" y="1528" on="1"/>
        <pt x="584" y="1528" on="1"/>
        <pt x="584" y="1813" on="1"/>
        <pt x="896" y="1813" on="1"/>
      </contour>
    </TTGlyph>
    <TTGlyph name="a" xMin="61" yMin="-25" xMax="1356" yMax="1106">
      <contour>
        <pt x="657" y="1106" on="1"/>
        <pt x="768" y="1106" on="0"/>
        <pt x="971" y="1071" on="0"/>
        <pt x="1126" y="989" on="0"/>
        <pt x="1217" y="854" on="0"/>
        <pt x="1217" y="754" on="1"/>
        <pt x="1217" y="332" on="1"/>
        <pt x="1217" y="298" on="0"/>
        <pt x="1248" y="252" on="0"/>
        <pt x="1282" y="252" on="1"/>
        <pt x="1356" y="252" on="1"/>
        <pt x="1356" y="16" on="1"/>
        <pt x="1333" y="4" on="0"/>
        <pt x="1301" y="-5" on="1"/>
        <pt x="1274" y="-13" on="0"/>
        <pt x="1194" y="-25" on="0"/>
        <pt x="1143" y="-25" on="1"/>
        <pt x="1019" y="-25" on="0"/>
        <pt x="870" y="49" on="0"/>
        <pt x="842" y="111" on="1"/>
        <pt x="808" y="84" on="0"/>
        <pt x="728" y="35" on="0"/>
        <pt x="630" y="-3" on="0"/>
        <pt x="513" y="-25" on="0"/>
        <pt x="442" y="-25" on="1"/>
        <pt x="358" y="-25" on="0"/>
        <pt x="217" y="6" on="0"/>
        <pt x="117" y="78" on="0"/>
        <pt x="61" y="194" on="0"/>
        <pt x="61" y="279" on="1"/>
        <pt x="61" y="400" on="0"/>
        <pt x="162" y="551" on="0"/>
        <pt x="354" y="635" on="0"/>
        <pt x="632" y="664" on="0"/>
        <pt x="809" y="664" on="1"/>
        <pt x="809" y="717" on="1"/>
        <pt x="809" y="750" on="0"/>
        <pt x="784" y="799" on="0"/>
        <pt x="742" y="830" on="0"/>
        <pt x="684" y="846" on="0"/>
        <pt x="651" y="846" on="1"/>
        <pt x="624" y="846" on="0"/>
        <pt x="569" y="837" on="0"/>
        <pt x="524" y="815" on="0"/>
        <pt x="496" y="779" on="0"/>
        <pt x="496" y="752" on="1"/>
        <pt x="496" y="743" on="1"/>
        <pt x="94" y="743" on="1"/>
        <pt x="92" y="751" on="0"/>
        <pt x="92" y="764" on="0"/>
        <pt x="92" y="772" on="1"/>
        <pt x="92" y="847" on="0"/>
        <pt x="164" y="970" on="0"/>
        <pt x="307" y="1058" on="0"/>
        <pt x="518" y="1106" on="0"/>
      </contour>
      <contour>
        <pt x="809" y="471" on="1"/>
        <pt x="718" y="471" on="0"/>
        <pt x="589" y="450" on="0"/>
        <pt x="507" y="413" on="0"/>
        <pt x="469" y="362" on="0"/>
        <pt x="469" y="332" on="1"/>
        <pt x="469" y="300" on="0"/>
        <pt x="493" y="260" on="0"/>
        <pt x="532" y="238" on="0"/>
        <pt x="582" y="229" on="0"/>
        <pt x="608" y="229" on="1"/>
        <pt x="647" y="229" on="0"/>
        <pt x="720" y="251" on="0"/>
        <pt x="776" y="291" on="0"/>
        <pt x="809" y="346" on="0"/>
        <pt x="809" y="379" on="1"/>
      </contour>
    </TTGlyph>
    <TTGlyph name="aacute" xMin="61" yMin="-25" xMax="1356" yMax="1485">
      <contour>
        <pt x="657" y="1106" on="1"/>
        <pt x="768" y="1106" on="0"/>
        <pt x="971" y="1071" on="0"/>
        <pt x="1126" y="989" on="0"/>
        <pt x="1217" y="854" on="0"/>
        <pt x="1217" y="754" on="1"/>
        <pt x="1217" y="332" on="1"/>
        <pt x="1217" y="298" on="0"/>
        <pt x="1248" y="252" on="0"/>
        <pt x="1282" y="252" on="1"/>
        <pt x="1356" y="252" on="1"/>
        <pt x="1356" y="16" on="1"/>
        <pt x="1333" y="4" on="0"/>
        <pt x="1301" y="-5" on="1"/>
        <pt x="1274" y="-13" on="0"/>
        <pt x="1194" y="-25" on="0"/>
        <pt x="1143" y="-25" on="1"/>
        <pt x="1019" y="-25" on="0"/>
        <pt x="870" y="49" on="0"/>
        <pt x="842" y="111" on="1"/>
        <pt x="808" y="84" on="0"/>
        <pt x="728" y="35" on="0"/>
        <pt x="630" y="-3" on="0"/>
        <pt x="513" y="-25" on="0"/>
        <pt x="442" y="-25" on="1"/>
        <pt x="358" y="-25" on="0"/>
        <pt x="217" y="6" on="0"/>
        <pt x="117" y="78" on="0"/>
        <pt x="61" y="194" on="0"/>
        <pt x="61" y="279" on="1"/>
        <pt x="61" y="400" on="0"/>
        <pt x="162" y="551" on="0"/>
        <pt x="354" y="635" on="0"/>
        <pt x="632" y="664" on="0"/>
        <pt x="809" y="664" on="1"/>
        <pt x="809" y="717" on="1"/>
        <pt x="809" y="750" on="0"/>
        <pt x="784" y="799" on="0"/>
        <pt x="742" y="830" on="0"/>
        <pt x="684" y="846" on="0"/>
        <pt x="651" y="846" on="1"/>
        <pt x="624" y="846" on="0"/>
        <pt x="569" y="837" on="0"/>
        <pt x="524" y="815" on="0"/>
        <pt x="496" y="779" on="0"/>
        <pt x="496" y="752" on="1"/>
        <pt x="496" y="743" on="1"/>
        <pt x="94" y="743" on="1"/>
        <pt x="92" y="751" on="0"/>
        <pt x="92" y="764" on="0"/>
        <pt x="92" y="772" on="1"/>
        <pt x="92" y="847" on="0"/>
        <pt x="164" y="970" on="0"/>
        <pt x="307" y="1058" on="0"/>
        <pt x="518" y="1106" on="0"/>
      </contour>
      <contour>
        <pt x="809" y="471" on="1"/>
        <pt x="718" y="471" on="0"/>
        <pt x="589" y="450" on="0"/>
        <pt x="507" y="413" on="0"/>
        <pt x="469" y="362" on="0"/>
        <pt x="469" y="332" on="1"/>
        <pt x="469" y="300" on="0"/>
        <pt x="493" y="260" on="0"/>
        <pt x="532" y="238" on="0"/>
        <pt x="582" y="229" on="0"/>
        <pt x="608" y="229" on="1"/>
        <pt x="647" y="229" on="0"/>
        <pt x="720" y="251" on="0"/>
        <pt x="776" y="291" on="0"/>
        <pt x="809" y="346" on="0"/>
        <pt x="809" y="379" on="1"/>
      </contour>
      <contour>
        <pt x="722" y="1212" on="1"/>
        <pt x="461" y="1212" on="1"/>
        <pt x="650" y="1485" on="1"/>
        <pt x="1045" y="1485" on="1"/>
        <pt x="1049" y="1477" on="1"/>
      </contour>
    </TTGlyph>
    <TTGlyph name="abreve" xMin="61" yMin="-25" xMax="1356" yMax="1485">
      <contour>
        <pt x="657" y="1106" on="1"/>
        <pt x="768" y="1106" on="0"/>
        <pt x="971" y="1071" on="0"/>
        <pt x="1126" y="989" on="0"/>
        <pt x="1217" y="854" on="0"/>
        <pt x="1217" y="754" on="1"/>
        <pt x="1217" y="332" on="1"/>
        <pt x="1217" y="298" on="0"/>
        <pt x="1248" y="252" on="0"/>
        <pt x="1282" y="252" on="1"/>
        <pt x="1356" y="252" on="1"/>
        <pt x="1356" y="16" on="1"/>
        <pt x="1333" y="4" on="0"/>
        <pt x="1301" y="-5" on="1"/>
        <pt x="1274" y="-13" on="0"/>
        <pt x="1194" y="-25" on="0"/>
        <pt x="1143" y="-25" on="1"/>
        <pt x="1019" y="-25" on="0"/>
        <pt x="870" y="49" on="0"/>
        <pt x="842" y="111" on="1"/>
        <pt x="808" y="84" on="0"/>
        <pt x="728" y="35" on="0"/>
        <pt x="630" y="-3" on="0"/>
        <pt x="513" y="-25" on="0"/>
        <pt x="442" y="-25" on="1"/>
        <pt x="358" y="-25" on="0"/>
        <pt x="217" y="6" on="0"/>
        <pt x="117" y="78" on="0"/>
        <pt x="61" y="194" on="0"/>
        <pt x="61" y="279" on="1"/>
        <pt x="61" y="400" on="0"/>
        <pt x="162" y="551" on="0"/>
        <pt x="354" y="635" on="0"/>
        <pt x="632" y="664" on="0"/>
        <pt x="809" y="664" on="1"/>
        <pt x="809" y="717" on="1"/>
        <pt x="809" y="750" on="0"/>
        <pt x="784" y="799" on="0"/>
        <pt x="742" y="830" on="0"/>
        <pt x="684" y="846" on="0"/>
        <pt x="651" y="846" on="1"/>
        <pt x="624" y="846" on="0"/>
        <pt x="569" y="837" on="0"/>
        <pt x="524" y="815" on="0"/>
        <pt x="496" y="779" on="0"/>
        <pt x="496" y="752" on="1"/>
        <pt x="496" y="743" on="1"/>
        <pt x="94" y="743" on="1"/>
        <pt x="92" y="751" on="0"/>
        <pt x="92" y="764" on="0"/>
        <pt x="92" y="772" on="1"/>
        <pt x="92" y="847" on="0"/>
        <pt x="164" y="970" on="0"/>
        <pt x="307" y="1058" on="0"/>
        <pt x="518" y="1106" on="0"/>
      </contour>
      <contour>
        <pt x="809" y="471" on="1"/>
        <pt x="718" y="471" on="0"/>
        <pt x="589" y="450" on="0"/>
        <pt x="507" y="413" on="0"/>
        <pt x="469" y="362" on="0"/>
        <pt x="469" y="332" on="1"/>
        <pt x="469" y="300" on="0"/>
        <pt x="493" y="260" on="0"/>
        <pt x="532" y="238" on="0"/>
        <pt x="582" y="229" on="0"/>
        <pt x="608" y="229" on="1"/>
        <pt x="647" y="229" on="0"/>
        <pt x="720" y="251" on="0"/>
        <pt x="776" y="291" on="0"/>
        <pt x="809" y="346" on="0"/>
        <pt x="809" y="379" on="1"/>
      </contour>
      <contour>
        <pt x="1061" y="1485" on="1"/>
        <pt x="1061" y="1434" on="0"/>
        <pt x="1008" y="1329" on="0"/>
        <pt x="910" y="1244" on="0"/>
        <pt x="769" y="1190" on="0"/>
        <pt x="682" y="1190" on="1"/>
        <pt x="593" y="1190" on="0"/>
        <pt x="454" y="1244" on="0"/>
        <pt x="356" y="1329" on="0"/>
        <pt x="305" y="1434" on="0"/>
        <pt x="305" y="1485" on="1"/>
        <pt x="502" y="1485" on="1"/>
        <pt x="505" y="1469" on="0"/>
        <pt x="534" y="1433" on="0"/>
        <pt x="581" y="1402" on="0"/>
        <pt x="644" y="1382" on="0"/>
        <pt x="682" y="1382" on="1"/>
        <pt x="720" y="1382" on="0"/>
        <pt x="785" y="1402" on="0"/>
        <pt x="833" y="1433" on="0"/>
        <pt x="863" y="1469" on="0"/>
        <pt x="866" y="1485" on="1"/>
      </contour>
    </TTGlyph>
    <TTGlyph name="acircumflex" xMin="61" yMin="-25" xMax="1356" yMax="1485">
      <contour>
        <pt x="657" y="1106" on="1"/>
        <pt x="768" y="1106" on="0"/>
        <pt x="971" y="1071" on="0"/>
        <pt x="1126" y="989" on="0"/>
        <pt x="1217" y="854" on="0"/>
        <pt x="1217" y="754" on="1"/>
        <pt x="1217" y="332" on="1"/>
        <pt x="1217" y="298" on="0"/>
        <pt x="1248" y="252" on="0"/>
        <pt x="1282" y="252" on="1"/>
        <pt x="1356" y="252" on="1"/>
        <pt x="1356" y="16" on="1"/>
        <pt x="1333" y="4" on="0"/>
        <pt x="1301" y="-5" on="1"/>
        <pt x="1274" y="-13" on="0"/>
        <pt x="1194" y="-25" on="0"/>
        <pt x="1143" y="-25" on="1"/>
        <pt x="1019" y="-25" on="0"/>
        <pt x="870" y="49" on="0"/>
        <pt x="842" y="111" on="1"/>
        <pt x="808" y="84" on="0"/>
        <pt x="728" y="35" on="0"/>
        <pt x="630" y="-3" on="0"/>
        <pt x="513" y="-25" on="0"/>
        <pt x="442" y="-25" on="1"/>
        <pt x="358" y="-25" on="0"/>
        <pt x="217" y="6" on="0"/>
        <pt x="117" y="78" on="0"/>
        <pt x="61" y="194" on="0"/>
        <pt x="61" y="279" on="1"/>
        <pt x="61" y="400" on="0"/>
        <pt x="162" y="551" on="0"/>
        <pt x="354" y="635" on="0"/>
        <pt x="632" y="664" on="0"/>
        <pt x="809" y="664" on="1"/>
        <pt x="809" y="717" on="1"/>
        <pt x="809" y="750" on="0"/>
        <pt x="784" y="799" on="0"/>
        <pt x="742" y="830" on="0"/>
        <pt x="684" y="846" on="0"/>
        <pt x="651" y="846" on="1"/>
        <pt x="624" y="846" on="0"/>
        <pt x="569" y="837" on="0"/>
        <pt x="524" y="815" on="0"/>
        <pt x="496" y="779" on="0"/>
        <pt x="496" y="752" on="1"/>
        <pt x="496" y="743" on="1"/>
        <pt x="94" y="743" on="1"/>
        <pt x="92" y="751" on="0"/>
        <pt x="92" y="764" on="0"/>
        <pt x="92" y="772" on="1"/>
        <pt x="92" y="847" on="0"/>
        <pt x="164" y="970" on="0"/>
        <pt x="307" y="1058" on="0"/>
        <pt x="518" y="1106" on="0"/>
      </contour>
      <contour>
        <pt x="809" y="471" on="1"/>
        <pt x="718" y="471" on="0"/>
        <pt x="589" y="450" on="0"/>
        <pt x="507" y="413" on="0"/>
        <pt x="469" y="362" on="0"/>
        <pt x="469" y="332" on="1"/>
        <pt x="469" y="300" on="0"/>
        <pt x="493" y="260" on="0"/>
        <pt x="532" y="238" on="0"/>
        <pt x="582" y="229" on="0"/>
        <pt x="608" y="229" on="1"/>
        <pt x="647" y="229" on="0"/>
        <pt x="720" y="251" on="0"/>
        <pt x="776" y="291" on="0"/>
        <pt x="809" y="346" on="0"/>
        <pt x="809" y="379" on="1"/>
      </contour>
      <contour>
        <pt x="1099" y="1188" on="1"/>
        <pt x="833" y="1188" on="1"/>
        <pt x="681" y="1346" on="1"/>
        <pt x="529" y="1188" on="1"/>
        <pt x="267" y="1188" on="1"/>
        <pt x="552" y="1485" on="1"/>
        <pt x="814" y="1485" on="1"/>
      </contour>
    </TTGlyph>
    <TTGlyph name="acute" xMin="61" yMin="1212" xMax="649" yMax="1485">
      <contour>
        <pt x="649" y="1477" on="1"/>
        <pt x="322" y="1212" on="1"/>
        <pt x="61" y="1212" on="1"/>
        <pt x="250" y="1485" on="1"/>
        <pt x="645" y="1485" on="1"/>
      </contour>
    </TTGlyph>
    <TTGlyph name="adieresis" xMin="61" yMin="-25" xMax="1356" yMax="1485">
      <contour>
        <pt x="657" y="1106" on="1"/>
        <pt x="768" y="1106" on="0"/>
        <pt x="971" y="1071" on="0"/>
        <pt x="1126" y="989" on="0"/>
        <pt x="1217" y="854" on="0"/>
        <pt x="1217" y="754" on="1"/>
        <pt x="1217" y="332" on="1"/>
        <pt x="1217" y="298" on="0"/>
        <pt x="1248" y="252" on="0"/>
        <pt x="1282" y="252" on="1"/>
        <pt x="1356" y="252" on="1"/>
        <pt x="1356" y="16" on="1"/>
        <pt x="1333" y="4" on="0"/>
        <pt x="1301" y="-5" on="1"/>
        <pt x="1274" y="-13" on="0"/>
        <pt x="1194" y="-25" on="0"/>
        <pt x="1143" y="-25" on="1"/>
        <pt x="1019" y="-25" on="0"/>
        <pt x="870" y="49" on="0"/>
        <pt x="842" y="111" on="1"/>
        <pt x="808" y="84" on="0"/>
        <pt x="728" y="35" on="0"/>
        <pt x="630" y="-3" on="0"/>
        <pt x="513" y="-25" on="0"/>
        <pt x="442" y="-25" on="1"/>
        <pt x="358" y="-25" on="0"/>
        <pt x="217" y="6" on="0"/>
        <pt x="117" y="78" on="0"/>
        <pt x="61" y="194" on="0"/>
        <pt x="61" y="279" on="1"/>
        <pt x="61" y="400" on="0"/>
        <pt x="162" y="551" on="0"/>
        <pt x="354" y="635" on="0"/>
        <pt x="632" y="664" on="0"/>
        <pt x="809" y="664" on="1"/>
        <pt x="809" y="717" on="1"/>
        <pt x="809" y="750" on="0"/>
        <pt x="784" y="799" on="0"/>
        <pt x="742" y="830" on="0"/>
        <pt x="684" y="846" on="0"/>
        <pt x="651" y="846" on="1"/>
        <pt x="624" y="846" on="0"/>
        <pt x="569" y="837" on="0"/>
        <pt x="524" y="815" on="0"/>
        <pt x="496" y="779" on="0"/>
        <pt x="496" y="752" on="1"/>
        <pt x="496" y="743" on="1"/>
        <pt x="94" y="743" on="1"/>
        <pt x="92" y="751" on="0"/>
        <pt x="92" y="764" on="0"/>
        <pt x="92" y="772" on="1"/>
        <pt x="92" y="847" on="0"/>
        <pt x="164" y="970" on="0"/>
        <pt x="307" y="1058" on="0"/>
        <pt x="518" y="1106" on="0"/>
      </contour>
      <contour>
        <pt x="809" y="471" on="1"/>
        <pt x="718" y="471" on="0"/>
        <pt x="589" y="450" on="0"/>
        <pt x="507" y="413" on="0"/>
        <pt x="469" y="362" on="0"/>
        <pt x="469" y="332" on="1"/>
        <pt x="469" y="300" on="0"/>
        <pt x="493" y="260" on="0"/>
        <pt x="532" y="238" on="0"/>
        <pt x="582" y="229" on="0"/>
        <pt x="608" y="229" on="1"/>
        <pt x="647" y="229" on="0"/>
        <pt x="720" y="251" on="0"/>
        <pt x="776" y="291" on="0"/>
        <pt x="809" y="346" on="0"/>
        <pt x="809" y="379" on="1"/>
      </contour>
      <contour>
        <pt x="1064" y="1200" on="1"/>
        <pt x="753" y="1200" on="1"/>
        <pt x="753" y="1485" on="1"/>
        <pt x="1064" y="1485" on="1"/>
      </contour>
      <contour>
        <pt x="613" y="1200" on="1"/>
        <pt x="302" y="1200" on="1"/>
        <pt x="302" y="1485" on="1"/>
        <pt x="613" y="1485" on="1"/>
      </contour>
    </TTGlyph>
    <TTGlyph name="ae" xMin="61" yMin="-25" xMax="1991" yMax="1106">
      <contour>
        <pt x="1421" y="1106" on="1"/>
        <pt x="1558" y="1106" on="0"/>
        <pt x="1770" y="1039" on="0"/>
        <pt x="1916" y="900" on="0"/>
        <pt x="1991" y="687" on="0"/>
        <pt x="1991" y="541" on="1"/>
        <pt x="1991" y="471" on="1"/>
        <pt x="1221" y="471" on="1"/>
        <pt x="1221" y="359" on="0"/>
        <pt x="1311" y="236" on="0"/>
        <pt x="1417" y="236" on="1"/>
        <pt x="1466" y="236" on="0"/>
        <pt x="1534" y="260" on="0"/>
        <pt x="1576" y="303" on="0"/>
        <pt x="1595" y="360" on="0"/>
        <pt x="1595" y="393" on="1"/>
        <pt x="1991" y="393" on="1"/>
        <pt x="1991" y="296" on="0"/>
        <pt x="1922" y="141" on="0"/>
        <pt x="1785" y="33" on="0"/>
        <pt x="1581" y="-25" on="0"/>
        <pt x="1446" y="-25" on="1"/>
        <pt x="1291" y="-25" on="0"/>
        <pt x="1048" y="48" on="0"/>
        <pt x="967" y="125" on="1"/>
        <pt x="928" y="96" on="0"/>
        <pt x="834" y="42" on="0"/>
        <pt x="723" y="0" on="0"/>
        <pt x="596" y="-25" on="0"/>
        <pt x="524" y="-25" on="1"/>
        <pt x="417" y="-25" on="0"/>
        <pt x="246" y="6" on="0"/>
        <pt x="126" y="81" on="0"/>
        <pt x="61" y="205" on="0"/>
        <pt x="61" y="299" on="1"/>
        <pt x="61" y="413" on="0"/>
        <pt x="161" y="556" on="0"/>
        <pt x="353" y="636" on="0"/>
        <pt x="631" y="664" on="0"/>
        <pt x="809" y="664" on="1"/>
        <pt x="809" y="717" on="1"/>
        <pt x="809" y="750" on="0"/>
        <pt x="786" y="799" on="0"/>
        <pt x="745" y="830" on="0"/>
        <pt x="690" y="846" on="0"/>
        <pt x="659" y="846" on="1"/>
        <pt x="631" y="846" on="0"/>
        <pt x="573" y="837" on="0"/>
        <pt x="526" y="815" on="0"/>
        <pt x="496" y="779" on="0"/>
        <pt x="496" y="752" on="1"/>
        <pt x="496" y="743" on="1"/>
        <pt x="94" y="743" on="1"/>
        <pt x="92" y="751" on="0"/>
        <pt x="92" y="764" on="0"/>
        <pt x="92" y="772" on="1"/>
        <pt x="92" y="847" on="0"/>
        <pt x="164" y="970" on="0"/>
        <pt x="307" y="1058" on="0"/>
        <pt x="518" y="1106" on="0"/>
        <pt x="657" y="1106" on="1"/>
        <pt x="773" y="1106" on="0"/>
        <pt x="983" y="1062" on="0"/>
        <pt x="1061" y="1008" on="1"/>
        <pt x="1135" y="1057" on="0"/>
        <pt x="1316" y="1106" on="0"/>
      </contour>
      <contour>
        <pt x="809" y="471" on="1"/>
        <pt x="718" y="471" on="0"/>
        <pt x="589" y="450" on="0"/>
        <pt x="507" y="413" on="0"/>
        <pt x="469" y="362" on="0"/>
        <pt x="469" y="332" on="1"/>
        <pt x="469" y="300" on="0"/>
        <pt x="493" y="260" on="0"/>
        <pt x="532" y="238" on="0"/>
        <pt x="582" y="229" on="0"/>
        <pt x="608" y="229" on="1"/>
        <pt x="647" y="229" on="0"/>
        <pt x="720" y="251" on="0"/>
        <pt x="776" y="291" on="0"/>
        <pt x="809" y="346" on="0"/>
        <pt x="809" y="379" on="1"/>
      </contour>
      <contour>
        <pt x="1409" y="846" on="1"/>
        <pt x="1320" y="846" on="0"/>
        <pt x="1232" y="748" on="0"/>
        <pt x="1223" y="664" on="1"/>
        <pt x="1579" y="664" on="1"/>
        <pt x="1579" y="749" on="0"/>
        <pt x="1491" y="846" on="0"/>
      </contour>
    </TTGlyph>
    <TTGlyph name="aeacute" xMin="61" yMin="-25" xMax="1991" yMax="1485">
      <contour>
        <pt x="1421" y="1106" on="1"/>
        <pt x="1558" y="1106" on="0"/>
        <pt x="1770" y="1039" on="0"/>
        <pt x="1916" y="900" on="0"/>
        <pt x="1991" y="687" on="0"/>
        <pt x="1991" y="541" on="1"/>
        <pt x="1991" y="471" on="1"/>
        <pt x="1221" y="471" on="1"/>
        <pt x="1221" y="359" on="0"/>
        <pt x="1311" y="236" on="0"/>
        <pt x="1417" y="236" on="1"/>
        <pt x="1466" y="236" on="0"/>
        <pt x="1534" y="260" on="0"/>
        <pt x="1576" y="303" on="0"/>
        <pt x="1595" y="360" on="0"/>
        <pt x="1595" y="393" on="1"/>
        <pt x="1991" y="393" on="1"/>
        <pt x="1991" y="296" on="0"/>
        <pt x="1922" y="141" on="0"/>
        <pt x="1785" y="33" on="0"/>
        <pt x="1581" y="-25" on="0"/>
        <pt x="1446" y="-25" on="1"/>
        <pt x="1291" y="-25" on="0"/>
        <pt x="1048" y="48" on="0"/>
        <pt x="967" y="125" on="1"/>
        <pt x="928" y="96" on="0"/>
        <pt x="834" y="42" on="0"/>
        <pt x="723" y="0" on="0"/>
        <pt x="596" y="-25" on="0"/>
        <pt x="524" y="-25" on="1"/>
        <pt x="417" y="-25" on="0"/>
        <pt x="246" y="6" on="0"/>
        <pt x="126" y="81" on="0"/>
        <pt x="61" y="205" on="0"/>
        <pt x="61" y="299" on="1"/>
        <pt x="61" y="413" on="0"/>
        <pt x="161" y="556" on="0"/>
        <pt x="353" y="636" on="0"/>
        <pt x="631" y="664" on="0"/>
        <pt x="809" y="664" on="1"/>
        <pt x="809" y="717" on="1"/>
        <pt x="809" y="750" on="0"/>
        <pt x="786" y="799" on="0"/>
        <pt x="745" y="830" on="0"/>
        <pt x="690" y="846" on="0"/>
        <pt x="659" y="846" on="1"/>
        <pt x="631" y="846" on="0"/>
        <pt x="573" y="837" on="0"/>
        <pt x="526" y="815" on="0"/>
        <pt x="496" y="779" on="0"/>
        <pt x="496" y="752" on="1"/>
        <pt x="496" y="743" on="1"/>
        <pt x="94" y="743" on="1"/>
        <pt x="92" y="751" on="0"/>
        <pt x="92" y="764" on="0"/>
        <pt x="92" y="772" on="1"/>
        <pt x="92" y="847" on="0"/>
        <pt x="164" y="970" on="0"/>
        <pt x="307" y="1058" on="0"/>
        <pt x="518" y="1106" on="0"/>
        <pt x="657" y="1106" on="1"/>
        <pt x="773" y="1106" on="0"/>
        <pt x="983" y="1062" on="0"/>
        <pt x="1061" y="1008" on="1"/>
        <pt x="1135" y="1057" on="0"/>
        <pt x="1316" y="1106" on="0"/>
      </contour>
      <contour>
        <pt x="809" y="471" on="1"/>
        <pt x="718" y="471" on="0"/>
        <pt x="589" y="450" on="0"/>
        <pt x="507" y="413" on="0"/>
        <pt x="469" y="362" on="0"/>
        <pt x="469" y="332" on="1"/>
        <pt x="469" y="300" on="0"/>
        <pt x="493" y="260" on="0"/>
        <pt x="532" y="238" on="0"/>
        <pt x="582" y="229" on="0"/>
        <pt x="608" y="229" on="1"/>
        <pt x="647" y="229" on="0"/>
        <pt x="720" y="251" on="0"/>
        <pt x="776" y="291" on="0"/>
        <pt x="809" y="346" on="0"/>
        <pt x="809" y="379" on="1"/>
      </contour>
      <contour>
        <pt x="1409" y="846" on="1"/>
        <pt x="1320" y="846" on="0"/>
        <pt x="1232" y="748" on="0"/>
        <pt x="1223" y="664" on="1"/>
        <pt x="1579" y="664" on="1"/>
        <pt x="1579" y="749" on="0"/>
        <pt x="1491" y="846" on="0"/>
      </contour>
      <contour>
        <pt x="1113" y="1212" on="1"/>
        <pt x="852" y="1212" on="1"/>
        <pt x="1041" y="1485" on="1"/>
        <pt x="1436" y="1485" on="1"/>
        <pt x="1440" y="1477" on="1"/>
      </contour>
    </TTGlyph>
    <TTGlyph name="afii00208" xMin="0" yMin="401" xMax="1538" yMax="684">
      <contour>
        <pt x="1538" y="401" on="1"/>
        <pt x="0" y="401" on="1"/>
        <pt x="0" y="684" on="1"/>
        <pt x="1538" y="684" on="1"/>
      </contour>
    </TTGlyph>
    <TTGlyph name="afii61248" xMin="94" yMin="-25" xMax="1952" yMax="1434">
      <contour>
        <pt x="700" y="-25" on="1"/>
        <pt x="506" y="-25" on="1"/>
        <pt x="1346" y="1434" on="1"/>
        <pt x="1542" y="1434" on="1"/>
      </contour>
      <contour>
        <pt x="496" y="1432" on="1"/>
        <pt x="577" y="1432" on="0"/>
        <pt x="721" y="1398" on="0"/>
        <pt x="827" y="1325" on="0"/>
        <pt x="889" y="1210" on="0"/>
        <pt x="889" y="1128" on="1"/>
        <pt x="629" y="1128" on="1"/>
        <pt x="629" y="1191" on="0"/>
        <pt x="559" y="1249" on="0"/>
        <pt x="496" y="1249" on="1"/>
        <pt x="424" y="1249" on="0"/>
        <pt x="362" y="1169" on="0"/>
        <pt x="362" y="1098" on="1"/>
        <pt x="362" y="1020" on="1"/>
        <pt x="362" y="949" on="0"/>
        <pt x="426" y="868" on="0"/>
        <pt x="502" y="868" on="1"/>
        <pt x="568" y="868" on="0"/>
        <pt x="639" y="927" on="0"/>
        <pt x="639" y="993" on="1"/>
        <pt x="889" y="993" on="1"/>
        <pt x="889" y="912" on="0"/>
        <pt x="827" y="795" on="0"/>
        <pt x="721" y="721" on="0"/>
        <pt x="577" y="686" on="0"/>
        <pt x="496" y="686" on="1"/>
        <pt x="404" y="686" on="0"/>
        <pt x="256" y="732" on="0"/>
        <pt x="151" y="825" on="0"/>
        <pt x="94" y="965" on="0"/>
        <pt x="94" y="1059" on="1"/>
        <pt x="94" y="1153" on="0"/>
        <pt x="151" y="1293" on="0"/>
        <pt x="256" y="1386" on="0"/>
        <pt x="404" y="1432" on="0"/>
      </contour>
      <contour>
        <pt x="1548" y="721" on="1"/>
        <pt x="1639" y="721" on="0"/>
        <pt x="1789" y="675" on="0"/>
        <pt x="1894" y="582" on="0"/>
        <pt x="1952" y="442" on="0"/>
        <pt x="1952" y="348" on="1"/>
        <pt x="1952" y="254" on="0"/>
        <pt x="1894" y="114" on="0"/>
        <pt x="1789" y="21" on="0"/>
        <pt x="1639" y="-25" on="0"/>
        <pt x="1548" y="-25" on="1"/>
        <pt x="1457" y="-25" on="0"/>
        <pt x="1309" y="21" on="0"/>
        <pt x="1204" y="114" on="0"/>
        <pt x="1147" y="254" on="0"/>
        <pt x="1147" y="348" on="1"/>
        <pt x="1147" y="442" on="0"/>
        <pt x="1204" y="582" on="0"/>
        <pt x="1309" y="675" on="0"/>
        <pt x="1457" y="721" on="0"/>
      </contour>
      <contour>
        <pt x="1548" y="539" on="1"/>
        <pt x="1477" y="539" on="0"/>
        <pt x="1415" y="457" on="0"/>
        <pt x="1415" y="385" on="1"/>
        <pt x="1415" y="309" on="1"/>
        <pt x="1415" y="238" on="0"/>
        <pt x="1477" y="158" on="0"/>
        <pt x="1548" y="158" on="1"/>
        <pt x="1619" y="158" on="0"/>
        <pt x="1683" y="238" on="0"/>
        <pt x="1683" y="309" on="1"/>
        <pt x="1683" y="385" on="1"/>
        <pt x="1683" y="457" on="0"/>
        <pt x="1619" y="539" on="0"/>
      </contour>
    </TTGlyph>
    <TTGlyph name="afii61289" xMin="109" yMin="-25" xMax="1061" yMax="1509">
      <contour>
        <pt x="676" y="1509" on="1"/>
        <pt x="772" y="1509" on="0"/>
        <pt x="911" y="1448" on="0"/>
        <pt x="1001" y="1344" on="0"/>
        <pt x="1044" y="1206" on="0"/>
        <pt x="1044" y="1130" on="1"/>
        <pt x="1044" y="1041" on="0"/>
        <pt x="978" y="874" on="0"/>
        <pt x="856" y="710" on="0"/>
        <pt x="681" y="546" on="0"/>
        <pt x="573" y="459" on="1"/>
        <pt x="575" y="406" on="1"/>
        <pt x="579" y="331" on="0"/>
        <pt x="674" y="246" on="0"/>
        <pt x="758" y="246" on="1"/>
        <pt x="803" y="246" on="0"/>
        <pt x="886" y="274" on="0"/>
        <pt x="961" y="322" on="0"/>
        <pt x="1026" y="385" on="0"/>
        <pt x="1053" y="420" on="1"/>
        <pt x="1061" y="420" on="1"/>
        <pt x="1061" y="111" on="1"/>
        <pt x="971" y="36" on="0"/>
        <pt x="770" y="-25" on="0"/>
        <pt x="670" y="-25" on="1"/>
        <pt x="567" y="-25" on="0"/>
        <pt x="407" y="26" on="0"/>
        <pt x="297" y="112" on="0"/>
        <pt x="240" y="225" on="0"/>
        <pt x="240" y="287" on="1"/>
        <pt x="225" y="278" on="0"/>
        <pt x="191" y="255" on="0"/>
        <pt x="156" y="231" on="0"/>
        <pt x="122" y="209" on="0"/>
        <pt x="109" y="201" on="1"/>
        <pt x="109" y="436" on="1"/>
        <pt x="132" y="451" on="0"/>
        <pt x="159" y="469" on="0"/>
        <pt x="182" y="485" on="0"/>
        <pt x="209" y="504" on="0"/>
        <pt x="231" y="520" on="1"/>
        <pt x="231" y="952" on="1"/>
        <pt x="231" y="1096" on="0"/>
        <pt x="295" y="1307" on="0"/>
        <pt x="412" y="1443" on="0"/>
        <pt x="576" y="1509" on="0"/>
      </contour>
      <contour>
        <pt x="694" y="1288" on="1"/>
        <pt x="673" y="1288" on="0"/>
        <pt x="629" y="1262" on="0"/>
        <pt x="595" y="1199" on="0"/>
        <pt x="573" y="1094" on="0"/>
        <pt x="573" y="1016" on="1"/>
        <pt x="573" y="745" on="1"/>
        <pt x="682" y="851" on="0"/>
        <pt x="795" y="1061" on="0"/>
        <pt x="795" y="1151" on="1"/>
        <pt x="795" y="1213" on="0"/>
        <pt x="747" y="1288" on="0"/>
      </contour>
    </TTGlyph>
    <TTGlyph name="afii61352" xMin="152" yMin="0" xMax="2640" yMax="1434">
      <contour>
        <pt x="1554" y="0" on="1"/>
        <pt x="1159" y="0" on="1"/>
        <pt x="567" y="684" on="1"/>
        <pt x="567" y="0" on="1"/>
        <pt x="152" y="0" on="1"/>
        <pt x="152" y="1409" on="1"/>
        <pt x="547" y="1409" on="1"/>
        <pt x="1139" y="715" on="1"/>
        <pt x="1139" y="1409" on="1"/>
        <pt x="1554" y="1409" on="1"/>
      </contour>
      <contour>
        <pt x="2591" y="295" on="1"/>
        <pt x="1722" y="295" on="1"/>
        <pt x="1722" y="537" on="1"/>
        <pt x="2591" y="537" on="1"/>
      </contour>
      <contour>
        <pt x="2157" y="1434" on="1"/>
        <pt x="2266" y="1434" on="0"/>
        <pt x="2444" y="1383" on="0"/>
        <pt x="2571" y="1281" on="0"/>
        <pt x="2640" y="1128" on="0"/>
        <pt x="2640" y="1026" on="1"/>
        <pt x="2640" y="924" on="0"/>
        <pt x="2571" y="771" on="0"/>
        <pt x="2444" y="669" on="0"/>
        <pt x="2266" y="618" on="0"/>
        <pt x="2157" y="618" on="1"/>
        <pt x="2047" y="618" on="0"/>
        <pt x="1868" y="669" on="0"/>
        <pt x="1742" y="771" on="0"/>
        <pt x="1673" y="924" on="0"/>
        <pt x="1673" y="1026" on="1"/>
        <pt x="1673" y="1128" on="0"/>
        <pt x="1742" y="1281" on="0"/>
        <pt x="1868" y="1383" on="0"/>
        <pt x="2047" y="1434" on="0"/>
      </contour>
      <contour>
        <pt x="2157" y="1214" on="1"/>
        <pt x="2071" y="1214" on="0"/>
        <pt x="1997" y="1116" on="0"/>
        <pt x="1997" y="1030" on="1"/>
        <pt x="1997" y="1020" on="1"/>
        <pt x="1997" y="935" on="0"/>
        <pt x="2071" y="838" on="0"/>
        <pt x="2157" y="838" on="1"/>
        <pt x="2241" y="838" on="0"/>
        <pt x="2316" y="935" on="0"/>
        <pt x="2316" y="1020" on="1"/>
        <pt x="2316" y="1030" on="1"/>
        <pt x="2316" y="1116" on="0"/>
        <pt x="2241" y="1214" on="0"/>
      </contour>
    </TTGlyph>
    <TTGlyph name="agrave" xMin="61" yMin="-25" xMax="1356" yMax="1485">
      <contour>
        <pt x="657" y="1106" on="1"/>
        <pt x="768" y="1106" on="0"/>
        <pt x="971" y="1071" on="0"/>
        <pt x="1126" y="989" on="0"/>
        <pt x="1217" y="854" on="0"/>
        <pt x="1217" y="754" on="1"/>
        <pt x="1217" y="332" on="1"/>
        <pt x="1217" y="298" on="0"/>
        <pt x="1248" y="252" on="0"/>
        <pt x="1282" y="252" on="1"/>
        <pt x="1356" y="252" on="1"/>
        <pt x="1356" y="16" on="1"/>
        <pt x="1333" y="4" on="0"/>
        <pt x="1301" y="-5" on="1"/>
        <pt x="1274" y="-13" on="0"/>
        <pt x="1194" y="-25" on="0"/>
        <pt x="1143" y="-25" on="1"/>
        <pt x="1019" y="-25" on="0"/>
        <pt x="870" y="49" on="0"/>
        <pt x="842" y="111" on="1"/>
        <pt x="808" y="84" on="0"/>
        <pt x="728" y="35" on="0"/>
        <pt x="630" y="-3" on="0"/>
        <pt x="513" y="-25" on="0"/>
        <pt x="442" y="-25" on="1"/>
        <pt x="358" y="-25" on="0"/>
        <pt x="217" y="6" on="0"/>
        <pt x="117" y="78" on="0"/>
        <pt x="61" y="194" on="0"/>
        <pt x="61" y="279" on="1"/>
        <pt x="61" y="400" on="0"/>
        <pt x="162" y="551" on="0"/>
        <pt x="354" y="635" on="0"/>
        <pt x="632" y="664" on="0"/>
        <pt x="809" y="664" on="1"/>
        <pt x="809" y="717" on="1"/>
        <pt x="809" y="750" on="0"/>
        <pt x="784" y="799" on="0"/>
        <pt x="742" y="830" on="0"/>
        <pt x="684" y="846" on="0"/>
        <pt x="651" y="846" on="1"/>
        <pt x="624" y="846" on="0"/>
        <pt x="569" y="837" on="0"/>
        <pt x="524" y="815" on="0"/>
        <pt x="496" y="779" on="0"/>
        <pt x="496" y="752" on="1"/>
        <pt x="496" y="743" on="1"/>
        <pt x="94" y="743" on="1"/>
        <pt x="92" y="751" on="0"/>
        <pt x="92" y="764" on="0"/>
        <pt x="92" y="772" on="1"/>
        <pt x="92" y="847" on="0"/>
        <pt x="164" y="970" on="0"/>
        <pt x="307" y="1058" on="0"/>
        <pt x="518" y="1106" on="0"/>
      </contour>
      <contour>
        <pt x="809" y="471" on="1"/>
        <pt x="718" y="471" on="0"/>
        <pt x="589" y="450" on="0"/>
        <pt x="507" y="413" on="0"/>
        <pt x="469" y="362" on="0"/>
        <pt x="469" y="332" on="1"/>
        <pt x="469" y="300" on="0"/>
        <pt x="493" y="260" on="0"/>
        <pt x="532" y="238" on="0"/>
        <pt x="582" y="229" on="0"/>
        <pt x="608" y="229" on="1"/>
        <pt x="647" y="229" on="0"/>
        <pt x="720" y="251" on="0"/>
        <pt x="776" y="291" on="0"/>
        <pt x="809" y="346" on="0"/>
        <pt x="809" y="379" on="1"/>
      </contour>
      <contour>
        <pt x="595" y="1212" on="1"/>
        <pt x="267" y="1477" on="1"/>
        <pt x="271" y="1485" on="1"/>
        <pt x="666" y="1485" on="1"/>
        <pt x="855" y="1212" on="1"/>
      </contour>
    </TTGlyph>
</ttFont>
